<svg width="430" height="305" viewBox="0 0 430 305" fill="none" xmlns="http://www.w3.org/2000/svg">
<path d="M237.062 225.632L236.632 224L235 224.429L235.429 226.061L237.062 225.632Z" fill="white"/>
<path d="M77.6536 113.046L77.1011 110.945L75.0001 111.498L75.5526 113.599L77.6536 113.046Z" fill="white"/>
<path d="M217.49 259.767L215.345 259.422L215 261.567L217.145 261.912L217.49 259.767Z" fill="white"/>
<path d="M329.286 229.903L329.905 228.617L328.619 227.998L328 229.284L329.286 229.903Z" fill="white"/>
<path d="M343.654 232.101L343.101 230L341 230.553L341.553 232.654L343.654 232.101Z" fill="white"/>
<path d="M108.145 86.0867L107.219 85L106.133 85.9254L107.058 87.0121L108.145 86.0867Z" fill="white"/>
<path d="M245.286 79.9032L245.905 78.6172L244.619 77.9981L244 79.2841L245.286 79.9032Z" fill="white"/>
<path d="M357.035 104.828C342.422 108.188 327.288 113.519 308.048 122.173C290.669 129.989 277.909 136.409 266.089 144.401" stroke="url(#paint0_linear_7960_25651)" stroke-opacity="0.5" stroke-linecap="round"/>
<circle cx="317.542" cy="138.526" r="53.0265" fill="url(#paint1_linear_7960_25651)" stroke="black"/>
<path d="M329.77 187.999C357.163 181.371 373.998 153.792 367.37 126.399C360.731 143.887 290.336 170.158 268.169 150.398C274.797 177.792 302.376 194.626 329.77 187.999Z" fill="#8E1A99" fill-opacity="0.2"/>
<g clip-path="url(#clip0_7960_25651)">
<path d="M315.876 108.739C317.272 108.055 318.742 108.102 320.095 108.87C324.787 111.543 329.465 114.24 334.119 116.966C335.617 117.846 336.385 119.255 336.39 120.988C336.418 127.061 336.408 133.129 336.39 139.202C336.39 139.427 336.245 139.754 336.062 139.862C334.259 140.939 332.433 141.974 330.453 143.116V142.161C330.453 135.915 330.434 129.673 330.467 123.427C330.471 122.228 330.059 121.456 328.996 120.852C323.551 117.757 318.133 114.606 312.706 111.473C312.472 111.337 312.243 111.192 311.887 110.977C313.282 110.185 314.537 109.389 315.867 108.739H315.876ZM314.879 170.869C314.575 170.714 314.35 170.606 314.13 170.48C306.942 166.336 299.764 162.164 292.554 158.053C290.531 156.901 289.608 155.258 289.632 152.949C289.674 148.042 289.66 143.135 289.637 138.223C289.627 136.009 290.526 134.403 292.474 133.298C297.536 130.418 302.569 127.496 307.603 124.57C308.038 124.317 308.357 124.275 308.811 124.546C310.548 125.59 312.318 126.588 314.167 127.655C313.816 127.866 313.549 128.025 313.278 128.184C307.827 131.331 302.387 134.487 296.922 137.615C296.028 138.125 295.611 138.79 295.621 139.829C295.649 143.697 295.653 147.565 295.621 151.432C295.611 152.5 296.037 153.179 296.955 153.703C302.719 157 308.46 160.333 314.219 163.639C314.706 163.92 314.912 164.21 314.902 164.791C314.86 166.772 314.888 168.757 314.888 170.873L314.879 170.869ZM314.879 159.79C314.378 159.505 314.018 159.303 313.657 159.093C309.087 156.456 304.522 153.811 299.942 151.193C299.446 150.913 299.263 150.608 299.268 150.032C299.301 147.059 299.287 144.086 299.277 141.112C299.277 140.71 299.338 140.433 299.736 140.209C301.422 139.268 303.089 138.284 304.761 137.324C304.882 137.254 305.013 137.203 305.233 137.095V140.433C305.233 142.241 305.262 144.053 305.224 145.86C305.201 146.89 305.599 147.588 306.498 148.094C309.087 149.555 311.644 151.072 314.233 152.528C314.743 152.814 314.898 153.132 314.888 153.694C314.856 155.67 314.874 157.65 314.874 159.786L314.879 159.79ZM309.602 120.763C308.633 120.192 307.804 120.196 306.835 120.763C301.403 123.938 295.948 127.07 290.498 130.217C290.269 130.352 290.03 130.474 289.622 130.694C289.768 128.625 289.323 126.672 290.03 124.78C290.414 123.746 291.135 122.968 292.09 122.416C296.637 119.789 301.179 117.157 305.734 114.545C307.397 113.59 309.092 113.613 310.754 114.573C315.928 117.551 321.097 120.538 326.257 123.535C326.477 123.661 326.753 123.947 326.753 124.162C326.791 126.288 326.777 128.419 326.777 130.699C324.899 129.617 323.167 128.615 321.434 127.613C317.487 125.333 313.531 123.076 309.602 120.763ZM345.96 154.19C345.825 155.862 344.846 157.046 343.399 157.88C337.86 161.064 332.325 164.267 326.791 167.46C325.054 168.462 323.317 169.464 321.575 170.466C321.364 170.588 321.149 170.691 320.863 170.841C320.844 170.55 320.821 170.34 320.821 170.129C320.821 168.293 320.83 166.463 320.812 164.627C320.812 164.21 320.91 163.958 321.294 163.737C329.366 159.093 337.434 154.434 345.497 149.779C345.619 149.709 345.754 149.653 345.984 149.545C345.984 151.175 346.078 152.692 345.96 154.19ZM346.003 142.634C345.989 144.535 344.963 145.87 343.338 146.806C337.027 150.435 330.719 154.082 324.412 157.725C323.26 158.39 322.104 159.05 320.868 159.762C320.849 159.448 320.826 159.242 320.826 159.032C320.826 157.224 320.844 155.412 320.812 153.605C320.802 153.09 320.975 152.818 321.42 152.561C327.156 149.269 332.873 145.94 338.619 142.667C339.639 142.086 340.089 141.37 340.079 140.171C340.037 133.925 340.061 127.679 340.061 121.432V120.341C341.559 121.245 342.964 121.99 344.247 122.898C345.417 123.727 346.007 124.982 346.012 126.429C346.031 131.832 346.045 137.235 346.007 142.639L346.003 142.634Z" fill="white"/>
</g>
<mask id="mask0_7960_25651" style="mask-type:alpha" maskUnits="userSpaceOnUse" x="283" y="105" width="69" height="69">
<g clip-path="url(#clip1_7960_25651)">
<path d="M315.876 108.739C317.272 108.055 318.742 108.102 320.095 108.87C324.787 111.543 329.465 114.24 334.119 116.966C335.617 117.846 336.385 119.255 336.39 120.988C336.418 127.061 336.408 133.129 336.39 139.202C336.39 139.427 336.245 139.754 336.062 139.862C334.259 140.939 332.433 141.974 330.453 143.116V142.161C330.453 135.915 330.434 129.673 330.467 123.427C330.471 122.228 330.059 121.456 328.996 120.852C323.551 117.757 318.133 114.606 312.706 111.473C312.472 111.337 312.243 111.192 311.887 110.977C313.282 110.185 314.537 109.389 315.867 108.739H315.876ZM314.879 170.869C314.575 170.714 314.35 170.606 314.13 170.48C306.942 166.336 299.764 162.164 292.554 158.053C290.531 156.901 289.608 155.258 289.632 152.949C289.674 148.042 289.66 143.135 289.637 138.223C289.627 136.009 290.526 134.403 292.474 133.298C297.536 130.418 302.569 127.496 307.603 124.57C308.038 124.317 308.357 124.275 308.811 124.546C310.548 125.59 312.318 126.588 314.167 127.655C313.816 127.866 313.549 128.025 313.278 128.184C307.827 131.331 302.387 134.487 296.922 137.615C296.028 138.125 295.611 138.79 295.621 139.829C295.649 143.697 295.653 147.565 295.621 151.432C295.611 152.5 296.037 153.179 296.955 153.703C302.719 157 308.46 160.333 314.219 163.639C314.706 163.92 314.912 164.21 314.902 164.791C314.86 166.772 314.888 168.757 314.888 170.873L314.879 170.869ZM314.879 159.79C314.378 159.505 314.018 159.303 313.657 159.093C309.087 156.456 304.522 153.811 299.942 151.193C299.446 150.913 299.263 150.608 299.268 150.032C299.301 147.059 299.287 144.086 299.277 141.112C299.277 140.71 299.338 140.433 299.736 140.209C301.422 139.268 303.089 138.284 304.761 137.324C304.882 137.254 305.013 137.203 305.233 137.095V140.433C305.233 142.241 305.262 144.053 305.224 145.86C305.201 146.89 305.599 147.588 306.498 148.094C309.087 149.555 311.644 151.072 314.233 152.528C314.743 152.814 314.898 153.132 314.888 153.694C314.856 155.67 314.874 157.65 314.874 159.786L314.879 159.79ZM309.602 120.763C308.633 120.192 307.804 120.196 306.835 120.763C301.403 123.938 295.948 127.07 290.498 130.217C290.269 130.352 290.03 130.474 289.622 130.694C289.768 128.625 289.323 126.672 290.03 124.78C290.414 123.746 291.135 122.968 292.09 122.416C296.637 119.789 301.179 117.157 305.734 114.545C307.397 113.59 309.092 113.613 310.754 114.573C315.928 117.551 321.097 120.538 326.257 123.535C326.477 123.661 326.753 123.947 326.753 124.162C326.791 126.288 326.777 128.419 326.777 130.699C324.899 129.617 323.167 128.615 321.434 127.613C317.487 125.333 313.531 123.076 309.602 120.763ZM345.96 154.19C345.825 155.862 344.846 157.046 343.399 157.88C337.86 161.064 332.325 164.267 326.791 167.46C325.054 168.462 323.317 169.464 321.575 170.466C321.364 170.588 321.149 170.691 320.863 170.841C320.844 170.55 320.821 170.34 320.821 170.129C320.821 168.293 320.83 166.463 320.812 164.627C320.812 164.21 320.91 163.958 321.294 163.737C329.366 159.093 337.434 154.434 345.497 149.779C345.619 149.709 345.754 149.653 345.984 149.545C345.984 151.175 346.078 152.692 345.96 154.19ZM346.003 142.634C345.989 144.535 344.963 145.87 343.338 146.806C337.027 150.435 330.719 154.082 324.412 157.725C323.26 158.39 322.104 159.05 320.868 159.762C320.849 159.448 320.826 159.242 320.826 159.032C320.826 157.224 320.844 155.412 320.812 153.605C320.802 153.09 320.975 152.818 321.42 152.561C327.156 149.269 332.873 145.94 338.619 142.667C339.639 142.086 340.089 141.37 340.079 140.171C340.037 133.925 340.061 127.679 340.061 121.432V120.341C341.559 121.245 342.964 121.99 344.247 122.898C345.417 123.727 346.007 124.982 346.012 126.429C346.031 131.832 346.045 137.235 346.007 142.639L346.003 142.634Z" fill="white"/>
</g>
</mask>
<g mask="url(#mask0_7960_25651)">
<path d="M291.76 165.571C332.23 151.847 340.141 119.264 339.038 104.688L364.097 123.185L356.266 161.417L312.631 179.586L291.76 165.571Z" fill="#D8EFF4"/>
</g>
<path d="M360.939 103.844C377.969 99.9995 389.18 100.259 391.515 105.45C395.816 115.012 365.873 137.8 324.636 156.347C283.399 174.895 246.484 182.179 242.183 172.617C239.658 167.003 246.416 157.661 262.853 146.465" stroke="url(#paint2_linear_7960_25651)" stroke-linecap="round"/>
<path d="M360.297 101.798C377.936 98.1421 390.54 99.2236 393.158 105.043C397.979 115.764 367.023 138.813 324.633 157.879C282.243 176.945 245.266 184.305 240.444 173.584C237.613 167.29 244.341 157.199 261.105 145.395" stroke="black" stroke-linecap="round"/>
<path d="M178.664 201.347C178.664 233.296 152.824 259.194 120.952 259.194C89.0802 259.194 63.2407 233.296 63.2407 201.347C63.2407 169.398 89.0802 143.5 120.952 143.5C152.824 143.5 178.664 169.398 178.664 201.347Z" fill="url(#paint3_linear_7960_25651)" stroke="black"/>
<path fill-rule="evenodd" clip-rule="evenodd" d="M121.073 243.155L144.256 202.75L121.073 214.535L97.8906 202.75L121.073 243.155Z" fill="white"/>
<path d="M97.8931 199.507L121.076 159.102L144.258 199.507H121.076H97.8931Z" fill="white"/>
<path d="M144.258 199.504L121.075 211.264L97.8924 199.504L121.075 199.504L144.258 199.504Z" fill="white"/>
<path d="M166.658 233.62C178.349 216.327 179.32 190.881 168.965 173.805C151.595 213.313 121.865 233.62 78.5696 236.842C102.825 266.549 148.923 259.853 166.658 233.62Z" fill="#07064F" fill-opacity="0.15"/>
<path d="M87.5327 157.032C100.078 147.323 115.438 143.254 129.904 145.704C150.57 149.205 145.709 160.697 112.043 173.391C82.6238 184.48 64.918 182.798 77.5747 166.905C80.4378 163.313 83.7362 159.968 87.5327 157.032Z" fill="white" fill-opacity="0.3"/>
<path d="M181.569 133.111C181.562 133.11 181.556 133.109 181.55 133.108L179.165 122.193C179.17 122.189 179.175 122.186 179.18 122.183C179.372 122.055 179.653 121.871 180.009 121.645C180.721 121.194 181.733 120.578 182.93 119.922C185.332 118.605 188.444 117.145 191.359 116.508C198.775 114.887 203.969 115.589 207.446 116.856C210.636 118.019 212.409 119.667 213.141 120.484C212.809 121.531 211.884 123.769 209.473 126.157C206.843 128.761 202.42 131.568 195.004 133.188C192.09 133.825 188.652 133.796 185.92 133.602C184.558 133.505 183.382 133.367 182.546 133.254C182.128 133.198 181.796 133.147 181.569 133.111Z" fill="#D8EFF4" stroke="black"/>
<path d="M196.315 119.732C193.873 119.71 191.857 121.691 191.835 124.133C191.814 126.575 193.794 128.591 196.236 128.612C198.678 128.634 200.694 126.654 200.716 124.211C200.737 121.769 198.757 119.754 196.315 119.732Z" fill="#B9E4EB"/>
<path d="M198.5 121C199 125 197 127 194 127.5C194 127.5 196.791 129.209 199 127C200.5 125.5 200.5 122 198.5 121Z" fill="#0D0D0D" fill-opacity="0.8"/>
<path d="M172.591 135.517C174.09 135.19 175.478 134.29 176.379 132.886C178.18 130.078 177.367 126.358 174.559 124.557C173.155 123.656 171.517 123.418 170.018 123.746C166.742 124.462 160.199 132.058 160.199 132.058C160.199 132.058 169.314 136.233 172.591 135.517Z" fill="#F7A5FF"/>
<path d="M168.805 129.416C168.821 127.604 170.319 126.133 172.13 126.149C173.942 126.165 175.413 127.662 175.397 129.474C175.381 131.285 173.883 132.757 172.072 132.741C170.26 132.725 168.789 131.227 168.805 129.416Z" fill="white" stroke="white"/>
<path d="M185.076 108.993L185.076 108.993L185.082 108.992C186.451 108.764 187.314 109.084 187.95 109.539C188.28 109.775 188.562 110.055 188.83 110.349C188.906 110.432 188.985 110.521 189.064 110.61C189.244 110.813 189.43 111.022 189.608 111.194L193.874 115.754C191.219 116.516 188.868 117.285 187.075 117.921C186.091 118.27 185.272 118.581 184.662 118.829C184.357 118.953 184.101 119.063 183.901 119.155C183.891 119.16 183.88 119.165 183.87 119.17L177.383 110.179L185.076 108.993ZM191.929 143.004L191.908 143.007L191.887 143.012L184.021 144.833L186.693 134.016C186.72 134.016 186.748 134.015 186.777 134.015C187.01 134.011 187.307 133.998 187.658 133.977C188.362 133.934 189.295 133.856 190.396 133.744C192.395 133.541 194.953 133.227 197.692 132.807L195.594 138.567C195.494 138.82 195.408 139.143 195.323 139.464C195.291 139.582 195.26 139.699 195.228 139.812C195.101 140.267 194.948 140.734 194.716 141.171C194.267 142.013 193.506 142.778 191.929 143.004Z" fill="#D8EFF4" stroke="black"/>
<defs>
<linearGradient id="paint0_linear_7960_25651" x1="319.128" y1="123.809" x2="273.059" y2="144.336" gradientUnits="userSpaceOnUse">
<stop stop-color="#FEF5FF"/>
<stop offset="0.00520833" stop-color="#B6FFFB" stop-opacity="0.5"/>
<stop offset="1" stop-color="#F3A0FB"/>
</linearGradient>
<linearGradient id="paint1_linear_7960_25651" x1="301.219" y1="117.255" x2="335.071" y2="151.746" gradientUnits="userSpaceOnUse">
<stop stop-color="#F58FFF"/>
<stop offset="0.880208" stop-color="#F191FA" stop-opacity="0.54"/>
</linearGradient>
<linearGradient id="paint2_linear_7960_25651" x1="284.004" y1="196.45" x2="402.482" y2="59.4686" gradientUnits="userSpaceOnUse">
<stop stop-color="#F191FA"/>
<stop offset="0.857753" stop-color="white"/>
<stop offset="0.932292" stop-color="white"/>
</linearGradient>
<linearGradient id="paint3_linear_7960_25651" x1="82.17" y1="159.191" x2="167.404" y2="246.589" gradientUnits="userSpaceOnUse">
<stop offset="0.0729167" stop-color="#B5C0F2"/>
<stop offset="0.96875" stop-color="#B9C6FE" stop-opacity="0.43"/>
</linearGradient>
<clipPath id="clip0_7960_25651">
<rect width="67.6987" height="67.6987" fill="white" transform="translate(283.974 105.438)"/>
</clipPath>
<clipPath id="clip1_7960_25651">
<rect width="67.6987" height="67.6987" fill="white" transform="translate(283.974 105.438)"/>
</clipPath>
</defs>
</svg>
