<svg width="445" height="305" viewBox="0 0 445 305" fill="none" xmlns="http://www.w3.org/2000/svg">
<rect width="445" height="305" fill="url(#paint0_linear_4963_200999)"/>
<path d="M151.328 117.133C151.328 117.133 158.908 118.962 164.694 118.053C179.224 115.77 182.609 108.18 183.235 106.372C182.097 104.828 176.536 98.6562 162.005 100.939C156.22 101.847 149.565 105.912 149.565 105.912L151.328 117.133ZM146.816 116.229C145.874 117.521 144.494 118.303 143.041 118.531C139.866 119.03 131.382 114.517 131.382 114.517C131.382 114.517 138.074 107.621 141.249 107.122C142.702 106.894 144.255 107.215 145.548 108.156C148.132 110.039 148.698 113.645 146.816 116.229ZM163.25 106.754C164.497 105.042 166.919 104.661 168.632 105.909C170.344 107.156 170.724 109.578 169.477 111.291C168.229 113.003 165.808 113.383 164.095 112.136C162.383 110.888 162.002 108.467 163.25 106.754Z" fill="url(#paint1_diamond_4963_200999)"/>
<path d="M148.085 103.428C148.639 103.093 154.549 99.5584 160.322 98.307L158.547 96.3938C157.667 95.4429 156.37 94.9987 155.105 95.1973L144.207 96.9092L148.085 103.428Z" fill="#9DA7D7" fill-opacity="0.9"/>
<path d="M150.68 119.95C151.31 120.099 158.02 121.651 163.898 121.072L162.795 123.437C162.249 124.612 161.15 125.433 159.886 125.631L148.988 127.343L150.68 119.95Z" fill="#9DA7D7" fill-opacity="0.9"/>
<path d="M54 105L55.6263 113.374L64 115L55.6263 116.626L54 125L52.3737 116.626L44 115L52.3737 113.374L54 105Z" fill="url(#paint2_linear_4963_200999)"/>
<path d="M156.374 207.223C157.168 209.138 157.168 211.289 156.374 213.204V213.204C155.581 215.119 154.06 216.641 152.145 217.434V217.434C150.23 218.227 148.078 218.227 146.163 217.434V217.434C144.248 216.641 142.727 215.119 141.934 213.204V213.204C141.14 211.289 141.14 209.138 141.934 207.223V207.223C142.727 205.308 144.248 203.786 146.163 202.993V202.993C148.078 202.2 150.23 202.2 152.145 202.993V202.993C154.06 203.786 155.581 205.308 156.374 207.223V207.223Z" fill="url(#paint3_linear_4963_200999)"/>
<g filter="url(#filter0_d_4963_200999)">
<g filter="url(#filter1_d_4963_200999)">
<path fill-rule="evenodd" clip-rule="evenodd" d="M98.1766 203.076L117.915 168.754L98.1766 178.765L78.4385 168.754L98.1766 203.076Z" fill="white"/>
<path d="M78.4395 166L98.1776 131.678L117.916 166L98.1776 166L78.4395 166Z" fill="white"/>
<path d="M117.917 165.997L98.1789 175.987L78.4408 165.997L98.1789 165.997L117.917 165.997Z" fill="white"/>
</g>
</g>
<circle cx="98.074" cy="167.562" r="48.139" fill="url(#paint4_linear_4963_200999)" stroke="url(#paint5_linear_4963_200999)" stroke-width="2.84642"/>
<path d="M147.134 174.98C151.17 147.906 132.495 122.687 105.422 118.651C155.83 166.517 116.68 203.956 90.8047 216.691C117.878 220.728 143.097 202.053 147.134 174.98Z" fill="#ABAAC2" fill-opacity="0.11"/>
<circle cx="149.081" cy="56.0812" r="2.08116" fill="#FEF4FF" fill-opacity="0.15"/>
<circle cx="56.0812" cy="78.0812" r="2.08116" fill="#FEF4FF" fill-opacity="0.15"/>
<circle cx="339.081" cy="78.0812" r="2.08116" fill="#FEF4FF" fill-opacity="0.15"/>
<circle cx="390.081" cy="112.081" r="2.08116" fill="#FEF4FF" fill-opacity="0.15"/>
<circle cx="237.081" cy="162.081" r="2.08116" fill="#FEF4FF" fill-opacity="0.15"/>
<path d="M361.77 170.692C348.343 174.44 331.639 181.094 314.191 190.02C298.431 198.082 284.53 206.737 273.958 214.744" stroke="url(#paint6_linear_4963_200999)" stroke-width="3.10938"/>
<g opacity="0.9" clip-path="url(#clip0_4963_200999)">
<path d="M321.209 178.23C322.532 177.582 323.926 177.626 325.209 178.354C329.658 180.889 334.093 183.446 338.505 186.03C339.926 186.865 340.654 188.201 340.658 189.844C340.685 195.602 340.676 201.355 340.658 207.113C340.658 207.326 340.521 207.637 340.348 207.739C338.638 208.76 336.907 209.741 335.029 210.824V209.919C335.029 203.996 335.011 198.079 335.043 192.157C335.047 191.02 334.656 190.288 333.649 189.715C328.486 186.78 323.349 183.793 318.204 180.823C317.982 180.694 317.764 180.556 317.427 180.352C318.75 179.602 319.94 178.847 321.2 178.23H321.209ZM320.264 237.137C319.975 236.99 319.762 236.888 319.553 236.768C312.739 232.839 305.933 228.884 299.097 224.986C297.179 223.894 296.304 222.336 296.326 220.147C296.366 215.495 296.353 210.842 296.331 206.185C296.322 204.085 297.174 202.563 299.021 201.515C303.82 198.785 308.592 196.014 313.365 193.24C313.778 193 314.08 192.96 314.51 193.218C316.157 194.208 317.835 195.153 319.589 196.165C319.256 196.365 319.003 196.516 318.745 196.667C313.578 199.65 308.419 202.642 303.238 205.608C302.391 206.092 301.995 206.722 302.004 207.708C302.031 211.375 302.035 215.042 302.004 218.709C301.995 219.721 302.399 220.365 303.27 220.862C308.735 223.987 314.177 227.148 319.638 230.282C320.099 230.549 320.295 230.824 320.286 231.374C320.246 233.252 320.273 235.135 320.273 237.141L320.264 237.137ZM320.264 226.633C319.789 226.362 319.447 226.171 319.105 225.972C314.772 223.472 310.444 220.964 306.102 218.482C305.631 218.216 305.458 217.927 305.463 217.381C305.494 214.562 305.48 211.743 305.472 208.924C305.472 208.542 305.529 208.281 305.907 208.067C307.505 207.175 309.085 206.243 310.67 205.333C310.786 205.266 310.91 205.217 311.118 205.115V208.281C311.118 209.994 311.145 211.712 311.11 213.426C311.087 214.403 311.465 215.064 312.317 215.543C314.772 216.929 317.196 218.367 319.651 219.748C320.135 220.018 320.281 220.32 320.273 220.853C320.241 222.726 320.259 224.604 320.259 226.629L320.264 226.633ZM315.26 189.63C314.341 189.089 313.556 189.093 312.637 189.63C307.487 192.64 302.315 195.61 297.148 198.594C296.93 198.722 296.704 198.838 296.317 199.047C296.455 197.084 296.033 195.233 296.704 193.44C297.068 192.458 297.751 191.721 298.657 191.198C302.968 188.707 307.274 186.212 311.593 183.735C313.169 182.829 314.777 182.851 316.353 183.762C321.258 186.585 326.159 189.417 331.052 192.259C331.26 192.378 331.522 192.649 331.522 192.854C331.558 194.869 331.544 196.889 331.544 199.051C329.764 198.025 328.121 197.075 326.479 196.125C322.736 193.963 318.985 191.824 315.26 189.63ZM349.733 221.324C349.604 222.908 348.676 224.032 347.304 224.822C342.052 227.841 336.805 230.877 331.558 233.905C329.911 234.855 328.264 235.805 326.612 236.755C326.412 236.87 326.208 236.968 325.937 237.11C325.92 236.835 325.897 236.635 325.897 236.435C325.897 234.695 325.906 232.959 325.888 231.219C325.888 230.824 325.982 230.584 326.346 230.376C333.999 225.972 341.648 221.554 349.293 217.142C349.409 217.075 349.537 217.022 349.755 216.92C349.755 218.465 349.844 219.903 349.733 221.324ZM349.773 210.367C349.759 212.169 348.787 213.435 347.247 214.323C341.262 217.763 335.282 221.221 329.302 224.675C328.21 225.306 327.114 225.932 325.942 226.606C325.924 226.309 325.902 226.114 325.902 225.914C325.902 224.2 325.92 222.482 325.888 220.769C325.88 220.28 326.044 220.023 326.466 219.779C331.904 216.658 337.324 213.501 342.772 210.398C343.739 209.848 344.166 209.168 344.157 208.032C344.117 202.11 344.139 196.188 344.139 190.265V189.231C345.56 190.088 346.891 190.794 348.108 191.655C349.218 192.441 349.777 193.63 349.781 195.002C349.799 200.125 349.813 205.248 349.777 210.371L349.773 210.367Z" fill="white"/>
</g>
<circle cx="8.53549" cy="8.53549" r="8.53549" transform="matrix(-0.0477871 -0.998858 -0.998858 0.0477871 257.081 199.259)" fill="url(#paint7_linear_4963_200999)"/>
<circle cx="323.121" cy="206.75" r="49.417" fill="url(#paint8_linear_4963_200999)" fill-opacity="0.7" stroke="url(#paint9_linear_4963_200999)" stroke-width="2.66519"/>
<path d="M361.772 170.692C377.716 166.242 389.038 165.888 391.496 170.692C396.023 179.542 368.754 202.545 330.588 222.069C292.422 241.594 257.812 250.247 253.284 241.397C250.626 236.201 258.928 226.127 273.959 214.743" stroke="url(#paint10_linear_4963_200999)" stroke-width="3.10938"/>
<path d="M373.36 214.344C377.493 186.622 358.371 160.799 330.649 156.666C382.264 205.679 342.177 244.014 315.682 257.055C343.403 261.188 369.227 242.066 373.36 214.344Z" fill="#F15BFF" fill-opacity="0.17"/>
<defs>
<filter id="filter0_d_4963_200999" x="70.3736" y="126.934" width="55.6082" height="87.5281" filterUnits="userSpaceOnUse" color-interpolation-filters="sRGB">
<feFlood flood-opacity="0" result="BackgroundImageFix"/>
<feColorMatrix in="SourceAlpha" type="matrix" values="0 0 0 0 0 0 0 0 0 0 0 0 0 0 0 0 0 0 127 0" result="hardAlpha"/>
<feOffset dy="3.32082"/>
<feGaussianBlur stdDeviation="4.03242"/>
<feComposite in2="hardAlpha" operator="out"/>
<feColorMatrix type="matrix" values="0 0 0 0 0 0 0 0 0 0 0 0 0 0 0 0 0 0 1 0"/>
<feBlend mode="normal" in2="BackgroundImageFix" result="effect1_dropShadow_4963_200999"/>
<feBlend mode="normal" in="SourceGraphic" in2="effect1_dropShadow_4963_200999" result="shape"/>
</filter>
<filter id="filter1_d_4963_200999" x="77.4897" y="131.678" width="41.3761" height="73.296" filterUnits="userSpaceOnUse" color-interpolation-filters="sRGB">
<feFlood flood-opacity="0" result="BackgroundImageFix"/>
<feColorMatrix in="SourceAlpha" type="matrix" values="0 0 0 0 0 0 0 0 0 0 0 0 0 0 0 0 0 0 127 0" result="hardAlpha"/>
<feOffset dy="0.948805"/>
<feGaussianBlur stdDeviation="0.474403"/>
<feComposite in2="hardAlpha" operator="out"/>
<feColorMatrix type="matrix" values="0 0 0 0 0 0 0 0 0 0 0 0 0 0 0 0 0 0 0.25 0"/>
<feBlend mode="normal" in2="BackgroundImageFix" result="effect1_dropShadow_4963_200999"/>
<feBlend mode="normal" in="SourceGraphic" in2="effect1_dropShadow_4963_200999" result="shape"/>
</filter>
<linearGradient id="paint0_linear_4963_200999" x1="222.5" y1="0" x2="222.5" y2="305" gradientUnits="userSpaceOnUse">
<stop stop-color="#01003F" stop-opacity="0"/>
<stop offset="1" stop-color="#6B4292" stop-opacity="0.432292"/>
</linearGradient>
<radialGradient id="paint1_diamond_4963_200999" cx="0" cy="0" r="1" gradientUnits="userSpaceOnUse" gradientTransform="translate(173.586 106.475) rotate(168.859) scale(42.3963 55.3183)">
<stop offset="0.25814" stop-color="#9DA7D7"/>
<stop offset="0.519562" stop-color="#BEC7EF"/>
<stop offset="0.671533" stop-color="#F3F3F3"/>
<stop offset="1" stop-color="#FF6FF9"/>
</radialGradient>
<linearGradient id="paint2_linear_4963_200999" x1="48.6" y1="108.2" x2="58.8" y2="121.3" gradientUnits="userSpaceOnUse">
<stop stop-color="#A2B0EF"/>
<stop offset="1" stop-color="#181B5C"/>
</linearGradient>
<linearGradient id="paint3_linear_4963_200999" x1="154.906" y1="205.645" x2="143.825" y2="214.274" gradientUnits="userSpaceOnUse">
<stop stop-color="#A2B0EF"/>
<stop offset="1" stop-color="#1B1625" stop-opacity="0"/>
</linearGradient>
<linearGradient id="paint4_linear_4963_200999" x1="65.0541" y1="131.753" x2="137.451" y2="206.161" gradientUnits="userSpaceOnUse">
<stop offset="0.0729167" stop-color="#9CA7D7"/>
<stop offset="0.96875" stop-color="#01003F" stop-opacity="0"/>
</linearGradient>
<linearGradient id="paint5_linear_4963_200999" x1="67.0002" y1="127.017" x2="136.284" y2="203.372" gradientUnits="userSpaceOnUse">
<stop stop-color="#BCC6EF"/>
<stop offset="1" stop-color="#5E79DB" stop-opacity="0"/>
</linearGradient>
<linearGradient id="paint6_linear_4963_200999" x1="320.043" y1="185.761" x2="344.807" y2="208.415" gradientUnits="userSpaceOnUse">
<stop stop-color="#B6FFFB" stop-opacity="0.5"/>
<stop offset="1" stop-color="#F269FF" stop-opacity="0.74"/>
</linearGradient>
<linearGradient id="paint7_linear_4963_200999" x1="5.98215" y1="-3.50175" x2="22.8308" y2="6.95542" gradientUnits="userSpaceOnUse">
<stop stop-color="#01003F" stop-opacity="0"/>
<stop offset="1" stop-color="#F191FA"/>
</linearGradient>
<linearGradient id="paint8_linear_4963_200999" x1="289.31" y1="170.082" x2="363.441" y2="246.273" gradientUnits="userSpaceOnUse">
<stop stop-color="#F15BFF"/>
<stop offset="0.473958" stop-color="#F698FF" stop-opacity="0.66"/>
<stop offset="0.96875" stop-color="#F698FF" stop-opacity="0"/>
</linearGradient>
<linearGradient id="paint9_linear_4963_200999" x1="291.303" y1="165.233" x2="362.246" y2="243.417" gradientUnits="userSpaceOnUse">
<stop stop-color="#FB4AFF" stop-opacity="0.97"/>
<stop offset="1" stop-color="#BF98FF" stop-opacity="0"/>
</linearGradient>
<linearGradient id="paint10_linear_4963_200999" x1="287.965" y1="225.628" x2="374.028" y2="180.32" gradientUnits="userSpaceOnUse">
<stop stop-color="#F067FF"/>
<stop offset="0.260417" stop-color="#B2ACFF" stop-opacity="0.842526"/>
<stop offset="0.494792" stop-color="#99C8FF" stop-opacity="0.78"/>
<stop offset="0.796875" stop-color="#96A9E8" stop-opacity="0.852577"/>
<stop offset="1" stop-color="#8E6BBA"/>
</linearGradient>
<clipPath id="clip0_4963_200999">
<rect width="64.1866" height="64.1866" fill="white" transform="translate(290.962 175.1)"/>
</clipPath>
</defs>
</svg>
