<svg width="248" height="176" viewBox="0 0 248 176" fill="none" xmlns="http://www.w3.org/2000/svg">
<circle cx="7.14088" cy="7.14088" r="7.14088" transform="matrix(-0.0477871 -0.998858 -0.998858 0.0477871 231.943 151.142)" fill="url(#paint0_linear_3034_48596)"/>
<path d="M188.023 29.7653C166.226 35.0919 138.999 44.9155 110.454 58.3493C84.6705 70.483 61.8427 83.6646 44.4043 95.977" stroke="url(#paint1_linear_3034_48596)" stroke-width="5.8215" stroke-linejoin="round"/>
<g clip-path="url(#clip0_3034_48596)">
<g filter="url(#filter0_d_3034_48596)">
<path d="M122.159 36.8923C124.304 35.8416 126.563 35.9136 128.643 37.0939C135.855 41.2033 143.044 45.3487 150.198 49.5373C152.501 50.8903 153.681 53.0565 153.688 55.7194C153.732 65.0537 153.717 74.3809 153.688 83.7152C153.688 84.0607 153.465 84.5644 153.185 84.73C150.414 86.3853 147.607 87.9758 144.563 89.7318V88.2636C144.563 78.663 144.534 69.0696 144.584 59.4689C144.592 57.6265 143.958 56.4391 142.325 55.5107C133.955 50.7535 125.628 45.91 117.287 41.0953C116.927 40.8866 116.574 40.6635 116.027 40.3324C118.172 39.1162 120.101 37.8927 122.145 36.8923H122.159ZM120.626 132.388C120.158 132.15 119.813 131.985 119.475 131.79C108.427 125.421 97.3945 119.009 86.3113 112.69C83.2023 110.919 81.7845 108.393 81.8205 104.845C81.8852 97.3029 81.8636 89.7606 81.8277 82.2111C81.8133 78.8069 83.1951 76.3384 86.189 74.64C93.9688 70.2139 101.705 65.723 109.442 61.225C110.111 60.8363 110.601 60.7716 111.299 61.189C113.969 62.7939 116.689 64.3268 119.532 65.9677C118.992 66.2916 118.582 66.5363 118.165 66.781C109.788 71.6173 101.425 76.468 93.026 81.2755C91.6514 82.0599 91.0109 83.0819 91.0253 84.6796C91.0684 90.6242 91.0756 96.5688 91.0253 102.513C91.0109 104.154 91.6658 105.198 93.0764 106.004C101.936 111.071 110.759 116.195 119.611 121.276C120.36 121.708 120.676 122.154 120.662 123.046C120.597 126.09 120.64 129.142 120.64 132.395L120.626 132.388ZM120.626 115.36C119.856 114.921 119.302 114.611 118.748 114.288C111.723 110.236 104.707 106.169 97.668 102.146C96.9051 101.715 96.6244 101.247 96.6316 100.362C96.682 95.7916 96.6604 91.2216 96.646 86.6515C96.646 86.0326 96.7396 85.608 97.3513 85.2625C99.9422 83.816 102.504 82.3046 105.074 80.8293C105.261 80.7213 105.462 80.6421 105.8 80.4766V85.608C105.8 88.386 105.844 91.1712 105.786 93.9492C105.75 95.5325 106.362 96.6048 107.744 97.3821C111.723 99.6275 115.653 101.959 119.633 104.198C120.417 104.637 120.655 105.126 120.64 105.99C120.59 109.027 120.619 112.071 120.619 115.353L120.626 115.36ZM112.515 55.3739C111.025 54.4959 109.752 54.5031 108.262 55.3739C99.9134 60.2534 91.529 65.0681 83.1519 69.9044C82.7992 70.1131 82.4322 70.3002 81.8061 70.6385C82.0292 67.4575 81.3455 64.4564 82.4322 61.5488C83.0223 59.9583 84.1307 58.7636 85.5988 57.9144C92.587 53.877 99.5679 49.8323 106.571 45.8165C109.125 44.3483 111.731 44.3843 114.286 45.8597C122.238 50.4369 130.183 55.0285 138.114 59.6345C138.453 59.8288 138.877 60.2678 138.877 60.5988C138.935 63.8662 138.913 67.1408 138.913 70.6457C136.027 68.9832 133.364 67.4431 130.702 65.903C124.635 62.3981 118.553 58.9292 112.515 55.3739ZM168.399 106.752C168.19 109.322 166.686 111.142 164.462 112.424C155.948 117.317 147.442 122.24 138.935 127.148C136.265 128.688 133.595 130.229 130.918 131.769C130.594 131.956 130.263 132.114 129.824 132.345C129.795 131.898 129.759 131.574 129.759 131.251C129.759 128.429 129.773 125.615 129.744 122.794C129.744 122.154 129.896 121.765 130.486 121.427C142.893 114.288 155.293 107.127 167.686 99.973C167.873 99.865 168.082 99.7786 168.435 99.6131C168.435 102.118 168.579 104.449 168.399 106.752ZM168.464 88.9905C168.442 91.9125 166.866 93.9636 164.369 95.4029C154.667 100.981 144.973 106.587 135.279 112.186C133.508 113.208 131.731 114.223 129.831 115.317C129.802 114.834 129.766 114.518 129.766 114.194C129.766 111.416 129.795 108.631 129.744 105.853C129.73 105.061 129.996 104.644 130.68 104.248C139.496 99.1885 148.284 94.0715 157.114 89.0409C158.683 88.1485 159.374 87.0474 159.36 85.205C159.295 75.6043 159.331 66.0037 159.331 56.4031V54.7262C161.634 56.1152 163.793 57.2595 165.765 58.6557C167.564 59.9295 168.471 61.8583 168.478 64.0821C168.507 72.3873 168.528 80.6925 168.471 88.9977L168.464 88.9905Z" fill="white"/>
</g>
</g>
<circle cx="125.149" cy="82.4812" r="79.0078" fill="url(#paint2_linear_3034_48596)" stroke="url(#paint3_linear_3034_48596)" stroke-width="4.98985"/>
<path d="M205.829 94.6783C212.467 50.1577 181.757 8.68575 137.236 2.04809C220.13 80.7624 155.75 142.328 113.199 163.271C157.72 169.909 199.192 139.199 205.829 94.6783Z" fill="#83E3F0" fill-opacity="0.23"/>
<path d="M187.667 29.8583C213.495 23.5591 231.687 23.5912 235.377 31.4327C242.176 45.878 197.187 81.3547 134.892 110.672C72.5972 139.989 16.5861 152.046 9.78785 137.6C5.79668 129.12 19.655 113.39 44.3854 95.9139" stroke="url(#paint4_linear_3034_48596)" stroke-width="5.8215"/>
<defs>
<filter id="filter0_d_3034_48596" x="77.2209" y="33.2426" width="95.861" height="105.389" filterUnits="userSpaceOnUse" color-interpolation-filters="sRGB">
<feFlood flood-opacity="0" result="BackgroundImageFix"/>
<feColorMatrix in="SourceAlpha" type="matrix" values="0 0 0 0 0 0 0 0 0 0 0 0 0 0 0 0 0 0 127 0" result="hardAlpha"/>
<feOffset dy="1.66328"/>
<feGaussianBlur stdDeviation="2.28702"/>
<feComposite in2="hardAlpha" operator="out"/>
<feColorMatrix type="matrix" values="0 0 0 0 0 0 0 0 0 0 0 0 0 0 0 0 0 0 1 0"/>
<feBlend mode="normal" in2="BackgroundImageFix" result="effect1_dropShadow_3034_48596"/>
<feBlend mode="normal" in="SourceGraphic" in2="effect1_dropShadow_3034_48596" result="shape"/>
</filter>
<linearGradient id="paint0_linear_3034_48596" x1="5.00473" y1="-2.9296" x2="19.1005" y2="5.81898" gradientUnits="userSpaceOnUse">
<stop stop-color="#393948" stop-opacity="0"/>
<stop offset="1" stop-color="#6CD3F1"/>
</linearGradient>
<linearGradient id="paint1_linear_3034_48596" x1="120.098" y1="51.8126" x2="158.629" y2="89.5274" gradientUnits="userSpaceOnUse">
<stop stop-color="#B6FFFB" stop-opacity="0.5"/>
<stop offset="1" stop-color="#F269FF" stop-opacity="0.74"/>
</linearGradient>
<linearGradient id="paint2_linear_3034_48596" x1="70.8496" y1="23.5945" x2="198.765" y2="154.522" gradientUnits="userSpaceOnUse">
<stop stop-color="#48D6FF"/>
<stop offset="0.533457" stop-color="#80CAFF" stop-opacity="0.5"/>
<stop offset="0.96875" stop-color="#01003F" stop-opacity="0"/>
</linearGradient>
<linearGradient id="paint3_linear_3034_48596" x1="74.05" y1="15.8069" x2="187.983" y2="141.368" gradientUnits="userSpaceOnUse">
<stop stop-color="#83E3FF"/>
<stop offset="1" stop-color="#BF98FF" stop-opacity="0"/>
</linearGradient>
<linearGradient id="paint4_linear_3034_48596" x1="91.5739" y1="66.4255" x2="208.993" y2="77.552" gradientUnits="userSpaceOnUse">
<stop stop-color="#74DEFF" stop-opacity="0.67"/>
<stop offset="0.0677083" stop-color="#B9EEFF" stop-opacity="0.835"/>
<stop offset="0.291667" stop-color="white"/>
<stop offset="0.598958" stop-color="#BCCFFF"/>
<stop offset="0.916667" stop-color="#8B9FF5"/>
</linearGradient>
<clipPath id="clip0_3034_48596">
<rect width="154.445" height="154.445" fill="white" transform="translate(47.9277 7.39941)"/>
</clipPath>
</defs>
</svg>
