<svg width="100" height="24" viewBox="0 0 100 24" fill="none" xmlns="http://www.w3.org/2000/svg">
<g clip-path="url(#clip0_3987_59980)">
<g clip-path="url(#clip1_3987_59980)">
<path fill-rule="evenodd" clip-rule="evenodd" d="M29.5562 7.5332H31.6036V18.2576H29.5562V7.5332ZM39.8213 11.7677C40.377 10.8766 41.3104 10.4507 42.3272 10.4507L42.3327 10.4478C43.2662 10.4478 43.9496 10.7169 44.3857 11.2549C44.8163 11.8014 45.0303 12.5272 45.0303 13.4323V18.2579H43.0578V13.6649C43.0578 12.6477 42.6939 12.132 41.8855 12.132H41.766C40.852 12.132 40.1408 12.9307 40.1408 14.0012V18.2579H38.1684V13.6649C38.1684 12.6477 37.7906 12.132 36.9821 12.132H36.8627C35.9515 12.132 35.2319 12.9307 35.2319 14.0012V18.2579H33.2595V10.5992H35.2319V11.6837C35.7431 10.8542 36.5904 10.4507 37.5016 10.4507C38.5768 10.4507 39.4046 10.899 39.8213 11.7677ZM55.4425 10.4507C54.4257 10.4507 53.4923 10.8766 52.9367 11.7677C52.5227 10.899 51.6921 10.4507 50.6169 10.4507C49.7057 10.4507 48.8584 10.8542 48.3472 11.6837V10.5992H46.3748V18.2579H48.3472V14.0012C48.3472 12.9307 49.0668 12.132 49.978 12.132H50.0974C50.9059 12.132 51.2837 12.6477 51.2837 13.6649V18.2579H53.2561V14.0012C53.2561 12.9307 53.9673 12.132 54.8813 12.132H55.0008C55.8092 12.132 56.1731 12.6477 56.1731 13.6649V18.2579H58.1456V13.4323C58.1456 12.5272 57.9317 11.8014 57.501 11.2549C57.0649 10.7169 56.3815 10.4478 55.448 10.4478L55.4425 10.4507ZM70.3857 12.2109V15.7334L70.3829 15.7306C70.3829 16.434 70.5246 16.5769 71.2219 16.5769H72.3109V18.2611H70.3829C69.0995 18.2611 68.4105 17.5661 68.4105 16.2714V12.2109H66.1714V18.2611H64.1989V17.1401C63.7322 17.9248 62.9238 18.4124 61.982 18.4124C61.1291 18.4124 60.4846 18.1518 60.0623 17.6193C59.6317 17.0953 59.4178 16.3947 59.4178 15.5036V10.6052H61.3903V15.2794C61.3903 16.2658 61.7986 16.8039 62.5182 16.8039H62.6376C63.4961 16.8039 64.2017 15.9295 64.2017 14.8591V10.6024H68.4133V8.11951H70.3857V10.6024H72.0831V12.2109H70.3857ZM79.3507 13.2021C79.3507 11.4367 78.0756 10.4503 76.1615 10.4503C74.2474 10.4503 73.0556 11.5207 72.8917 12.9723H74.8725C74.9169 12.5072 75.3836 12.0588 76.0948 12.0588H76.2198C76.9449 12.0588 77.4366 12.5884 77.4366 13.2778V13.4655L75.5225 13.6365C74.7058 13.7037 74.039 13.9419 73.5195 14.3623C73 14.7798 72.7417 15.3795 72.7417 16.1586C72.7194 17.5037 73.8696 18.4256 75.2336 18.4088C76.2059 18.4088 77.006 17.9913 77.4811 17.3243C77.495 17.7279 77.5255 18.0417 77.57 18.2603H79.423C79.3702 17.9016 79.348 17.3411 79.348 16.5761V13.2021H79.3507ZM77.4366 15.1329C77.4366 16.0969 76.6421 16.8003 75.7448 16.8003H75.6253C75.0836 16.8003 74.6836 16.4948 74.6836 16.0213C74.6836 15.7298 74.7947 15.5112 75.0169 15.3543C75.2392 15.1974 75.4975 15.1077 75.7892 15.0853L77.4366 14.9143V15.1301V15.1329ZM82.6899 11.5938C83.015 11.0333 83.8595 10.4504 84.8763 10.4504V10.4476C87.0043 10.4112 88.2711 12.3336 88.2489 14.4269C88.2711 16.5202 87.0043 18.4426 84.8763 18.4062C83.8623 18.4062 83.015 17.8233 82.6899 17.2628V18.2577H80.7175V7.5332H82.6899V11.5938ZM84.4235 16.7976H84.5429C85.5291 16.7976 86.2792 15.8505 86.2792 14.4129C86.2792 12.9753 85.5375 12.0561 84.5429 12.0561H84.4235C83.5178 12.0337 82.6733 13.0201 82.6871 14.4269C82.6733 15.8336 83.5178 16.8201 84.4235 16.7976ZM91.2076 7.5332H89.2351V18.2576H91.2076V7.5332ZM92.216 14.4299C92.1938 12.1405 93.6022 10.4198 95.8275 10.4507H95.8303C98.0472 10.4282 99.314 12.104 99.2918 14.3403C99.2918 14.4888 99.2834 14.7298 99.2612 15.0577H94.1301C94.2051 16.0833 95.0219 16.8007 95.8442 16.8007H95.9692C96.6804 16.8007 97.161 16.3972 97.3027 15.8367H99.2612C98.8889 17.3612 97.6888 18.4092 95.8275 18.4092C93.9217 18.4401 92.1799 16.8764 92.216 14.4299ZM95.6969 12.0592C94.8663 12.0592 94.1773 12.6197 94.1329 13.5248H97.3804C97.336 12.6197 96.647 12.0592 95.8164 12.0592H95.6969Z" fill=""/>
<path d="M11.9417 0C5.34649 0 0 5.33913 0 11.9252C0 18.5113 5.34649 23.8505 11.9417 23.8505C18.5369 23.8505 23.8834 18.5113 23.8834 11.9252C23.8834 5.33913 18.5369 0 11.9417 0ZM11.4798 4.55448C11.8115 4.39222 12.1609 4.40333 12.4826 4.5856C13.5977 5.22021 14.7095 5.86037 15.8158 6.5072C16.1719 6.71614 16.3544 7.05067 16.3555 7.46188C16.3622 8.90336 16.36 10.3437 16.3555 11.7852C16.3555 11.8385 16.321 11.9163 16.2776 11.9419C15.8492 12.1975 15.4151 12.4431 14.9444 12.7143V12.4876C14.9444 11.005 14.9399 9.52352 14.9477 8.04092C14.9488 7.7564 14.8509 7.57302 14.5982 7.42965C13.3039 6.69502 12.0162 5.94706 10.7264 5.20354C10.6707 5.17131 10.6162 5.13685 10.5316 5.08573C10.8633 4.8979 11.1615 4.70897 11.4776 4.55448H11.4798ZM11.2428 19.3015C11.1704 19.2649 11.117 19.2393 11.0647 19.2093C9.35636 18.2257 7.65024 17.2355 5.93634 16.2597C5.45556 15.9863 5.23631 15.5962 5.24188 15.0482C5.25189 13.8835 5.24855 12.7188 5.24299 11.5529C5.24076 11.0272 5.45444 10.646 5.91742 10.3837C7.12049 9.70023 8.31689 9.00672 9.51328 8.3121C9.61678 8.25208 9.69246 8.24208 9.80041 8.30654C10.2133 8.55438 10.634 8.79111 11.0736 9.04451C10.9901 9.09452 10.9267 9.13231 10.8621 9.17009C9.5667 9.91695 8.27348 10.666 6.9747 11.4084C6.76213 11.5296 6.66308 11.6874 6.66531 11.9341C6.67198 12.8521 6.6731 13.7701 6.66531 14.6882C6.66308 14.9416 6.76436 15.1027 6.98249 15.2272C8.3525 16.0096 9.71695 16.8009 11.0858 17.5856C11.2016 17.6522 11.2506 17.7211 11.2483 17.859C11.2383 18.3291 11.245 18.8003 11.245 19.3027L11.2428 19.3015ZM11.2428 16.672C11.1237 16.6042 11.038 16.5564 10.9523 16.5064C9.86608 15.8807 8.78098 15.2527 7.69254 14.6315C7.57457 14.5648 7.53116 14.4925 7.53227 14.3558C7.54007 13.6501 7.53673 12.9444 7.5345 12.2386C7.5345 12.1431 7.54897 12.0775 7.64357 12.0241C8.04422 11.8008 8.44042 11.5674 8.83774 11.3395C8.86667 11.3229 8.89783 11.3106 8.95014 11.2851V12.0775C8.95014 12.5065 8.95682 12.9366 8.94792 13.3656C8.94235 13.6101 9.03695 13.7757 9.25063 13.8957C9.86608 14.2425 10.4737 14.6026 11.0892 14.9482C11.2105 15.016 11.2472 15.0916 11.245 15.225C11.2372 15.694 11.2417 16.1641 11.2417 16.6709L11.2428 16.672ZM9.9885 7.40854C9.75812 7.27295 9.56114 7.27406 9.33076 7.40854C8.03977 8.16206 6.74321 8.90558 5.44777 9.65244C5.39323 9.68467 5.33647 9.71356 5.23965 9.7658C5.27415 9.27456 5.16842 8.81111 5.33647 8.36211C5.42773 8.11649 5.59912 7.932 5.82616 7.80086C6.90681 7.17737 7.98635 6.55277 9.06922 5.93261C9.46431 5.70589 9.86719 5.71144 10.2623 5.93928C11.4921 6.64612 12.7207 7.35519 13.9472 8.06648C13.9995 8.09649 14.0651 8.16428 14.0651 8.21541C14.074 8.71998 14.0707 9.22566 14.0707 9.76691C13.6244 9.51018 13.2126 9.27234 12.8009 9.0345C11.8627 8.49326 10.9222 7.95757 9.9885 7.40854V7.40854ZM18.6304 15.3428C18.5981 15.7395 18.3655 16.0207 18.0216 16.2185C16.705 16.9743 15.3895 17.7345 14.074 18.4924C13.6612 18.7303 13.2483 18.9681 12.8342 19.206C12.7842 19.2349 12.733 19.2593 12.6651 19.2949C12.6606 19.226 12.6551 19.176 12.6551 19.1259C12.6551 18.6903 12.6573 18.2557 12.6528 17.8201C12.6528 17.7211 12.6762 17.6611 12.7675 17.6089C14.6862 16.5064 16.6037 15.4006 18.5202 14.2958C18.5491 14.2792 18.5814 14.2658 18.6359 14.2403C18.6359 14.627 18.6582 14.9871 18.6304 15.3428V15.3428ZM18.6404 12.5998C18.637 13.0511 18.3933 13.3678 18.0071 13.5901C16.5069 14.4514 15.0078 15.3172 13.5087 16.1819C13.2349 16.3397 12.96 16.4964 12.6662 16.6653C12.6617 16.5909 12.6562 16.542 12.6562 16.4919C12.6562 16.0629 12.6606 15.6328 12.6528 15.2038C12.6506 15.0816 12.6918 15.0171 12.7975 14.956C14.1609 14.1747 15.5197 13.3845 16.8853 12.6076C17.1279 12.4698 17.2348 12.2998 17.2325 12.0153C17.2225 10.5327 17.2281 9.05006 17.2281 7.56747V7.30851C17.5842 7.52301 17.9181 7.69972 18.223 7.91533C18.5013 8.11205 18.6415 8.4099 18.6426 8.75332C18.6471 10.0359 18.6504 11.3184 18.6415 12.601L18.6404 12.5998Z" fill=""/>
</g>
</g>
<defs>
<clipPath id="clip0_3987_59980">
<rect width="99.514" height="23.8505" fill="white"/>
</clipPath>
<clipPath id="clip1_3987_59980">
<rect width="99.514" height="23.8505" fill="white"/>
</clipPath>
</defs>
</svg>
