<svg width="430" height="305" viewBox="0 0 430 305" fill="none" xmlns="http://www.w3.org/2000/svg">
<path d="M321.061 221.632L320.632 220L319 220.429L319.429 222.061L321.061 221.632Z" fill="white"/>
<path d="M85.6535 104.341L85.101 102.24L83 102.792L83.5525 104.893L85.6535 104.341Z" fill="white"/>
<path d="M301.49 255.768L299.345 255.422L299 257.567L301.145 257.912L301.49 255.768Z" fill="white"/>
<path d="M385.409 227.905L386.028 226.619L384.742 226L384.123 227.286L385.409 227.905Z" fill="white"/>
<path d="M66.6531 231.327L66.1006 229.226L63.9996 229.778L64.5521 231.879L66.6531 231.327Z" fill="white"/>
<path d="M72.4268 229.905L73.0459 228.619L71.7598 228L71.1407 229.286L72.4268 229.905Z" fill="white"/>
<path d="M116.145 77.3826L115.219 76.2959L114.132 77.2213L115.058 78.308L116.145 77.3826Z" fill="white"/>
<path d="M241.678 60.9052L242.297 59.6191L241.011 59L240.392 60.2861L241.678 60.9052Z" fill="white"/>
<path d="M387.451 141.346L388.388 146.169L393.211 147.106L388.388 148.042L387.451 152.865L386.515 148.042L381.692 147.106L386.515 146.169L387.451 141.346Z" fill="url(#paint0_linear_7858_3465)"/>
<g filter="url(#filter0_d_7858_3465)">
<g filter="url(#filter1_d_7858_3465)">
<path fill-rule="evenodd" clip-rule="evenodd" d="M360.378 186.185L370.861 167.956L360.378 173.273L349.895 167.956L360.378 186.185Z" fill="white"/>
<path d="M349.895 166.493L360.378 148.265L370.861 166.493H360.378H349.895Z" fill="white"/>
<path d="M370.862 166.492L360.379 171.797L349.896 166.492L360.379 166.492L370.862 166.492Z" fill="white"/>
</g>
</g>
<circle cx="360.323" cy="167.323" r="25.8225" fill="url(#paint1_linear_7858_3465)" stroke="black"/>
<path d="M383.74 172.218C385.716 158.961 377.174 146.535 363.917 144.559C365.3 151.474 359.307 182.36 350.548 188.354C363.917 196.191 381.763 185.476 383.74 172.218Z" fill="#07064F" fill-opacity="0.15"/>
<path d="M275.389 114.044C252.51 119.304 228.815 127.65 198.691 141.199C171.483 153.437 151.505 163.489 133 176" stroke="url(#paint2_linear_7858_3465)" stroke-opacity="0.5" stroke-width="4.78372" stroke-linecap="round"/>
<circle cx="14.0947" cy="14.0947" r="13.5947" transform="matrix(-0.0477871 -0.998858 -0.998858 0.0477871 104.504 154.435)" fill="url(#paint3_linear_7858_3465)" stroke="black"/>
<circle cx="213.556" cy="166.803" r="83.3032" fill="url(#paint4_linear_7858_3465)" stroke="black"/>
<path d="M232.7 244.261C275.589 233.885 301.945 190.705 291.569 147.817C281.174 175.198 170.961 216.328 136.256 185.392C146.632 228.28 189.812 254.637 232.7 244.261Z" fill="#8E1A99" fill-opacity="0.2"/>
<g clip-path="url(#clip0_7858_3465)">
<path d="M210.948 120.169C213.133 119.099 215.435 119.172 217.553 120.375C224.899 124.56 232.222 128.783 239.509 133.05C241.855 134.428 243.057 136.634 243.065 139.347C243.109 148.855 243.094 158.356 243.065 167.864C243.065 168.216 242.837 168.729 242.552 168.898C239.729 170.584 236.87 172.204 233.769 173.992V172.497C233.769 162.718 233.74 152.946 233.791 143.166C233.798 141.29 233.153 140.08 231.489 139.134C222.963 134.289 214.482 129.355 205.985 124.451C205.619 124.238 205.259 124.011 204.702 123.673C206.887 122.435 208.852 121.188 210.934 120.169H210.948ZM209.387 217.442C208.91 217.201 208.558 217.032 208.214 216.834C196.961 210.346 185.723 203.814 174.433 197.378C171.266 195.575 169.822 193.001 169.859 189.387C169.925 181.705 169.903 174.022 169.866 166.332C169.851 162.864 171.259 160.35 174.309 158.62C182.233 154.111 190.114 149.537 197.995 144.955C198.676 144.559 199.175 144.493 199.886 144.918C202.606 146.553 205.377 148.115 208.272 149.786C207.723 150.116 207.305 150.365 206.88 150.614C198.346 155.541 189.828 160.482 181.273 165.379C179.873 166.178 179.22 167.219 179.235 168.846C179.279 174.902 179.286 180.957 179.235 187.012C179.22 188.684 179.887 189.747 181.324 190.568C190.348 195.728 199.336 200.948 208.353 206.124C209.115 206.563 209.438 207.018 209.423 207.927C209.357 211.028 209.401 214.136 209.401 217.45L209.387 217.442ZM209.387 200.098C208.602 199.651 208.038 199.335 207.473 199.005C200.318 194.878 193.171 190.736 186.001 186.638C185.224 186.198 184.938 185.722 184.946 184.82C184.997 180.165 184.975 175.51 184.96 170.855C184.96 170.224 185.056 169.792 185.679 169.44C188.318 167.967 190.928 166.427 193.545 164.924C193.735 164.814 193.941 164.734 194.285 164.565V169.792C194.285 172.622 194.329 175.459 194.27 178.288C194.234 179.901 194.857 180.993 196.264 181.785C200.318 184.072 204.321 186.448 208.375 188.728C209.174 189.175 209.416 189.673 209.401 190.553C209.35 193.647 209.379 196.747 209.379 200.09L209.387 200.098ZM201.125 138.995C199.607 138.101 198.31 138.108 196.792 138.995C188.288 143.965 179.748 148.87 171.215 153.796C170.856 154.009 170.482 154.199 169.844 154.544C170.071 151.303 169.375 148.246 170.482 145.285C171.083 143.665 172.212 142.448 173.707 141.583C180.826 137.47 187.937 133.35 195.07 129.26C197.672 127.764 200.326 127.801 202.928 129.304C211.029 133.966 219.122 138.643 227.201 143.335C227.545 143.533 227.978 143.98 227.978 144.317C228.036 147.645 228.014 150.981 228.014 154.551C225.075 152.858 222.362 151.289 219.65 149.72C213.47 146.15 207.275 142.616 201.125 138.995ZM258.049 191.33C257.836 193.947 256.304 195.802 254.039 197.107C245.367 202.092 236.701 207.106 228.036 212.106C225.317 213.674 222.597 215.243 219.87 216.812C219.54 217.003 219.203 217.164 218.756 217.399C218.726 216.944 218.69 216.614 218.69 216.284C218.69 213.411 218.704 210.544 218.675 207.67C218.675 207.018 218.829 206.622 219.43 206.278C232.068 199.005 244.699 191.711 257.323 184.424C257.514 184.314 257.726 184.226 258.086 184.058C258.086 186.609 258.232 188.984 258.049 191.33ZM258.115 173.237C258.093 176.214 256.487 178.303 253.944 179.769C244.062 185.451 234.187 191.161 224.312 196.865C222.509 197.906 220.698 198.939 218.763 200.054C218.734 199.563 218.697 199.24 218.697 198.91C218.697 196.08 218.726 193.243 218.675 190.414C218.66 189.607 218.931 189.182 219.628 188.779C228.608 183.625 237.559 178.413 246.554 173.289C248.152 172.38 248.856 171.258 248.841 169.381C248.775 159.602 248.812 149.823 248.812 140.043V138.335C251.158 139.75 253.357 140.916 255.366 142.338C257.199 143.635 258.122 145.6 258.13 147.865C258.159 156.325 258.181 164.785 258.122 173.245L258.115 173.237Z" fill="white"/>
</g>
<mask id="mask0_7858_3465" style="mask-type:alpha" maskUnits="userSpaceOnUse" x="161" y="115" width="106" height="106">
<g clip-path="url(#clip1_7858_3465)">
<path d="M210.948 120.169C213.133 119.099 215.435 119.172 217.553 120.375C224.899 124.56 232.222 128.783 239.509 133.05C241.855 134.428 243.057 136.634 243.065 139.347C243.109 148.855 243.094 158.356 243.065 167.864C243.065 168.216 242.837 168.729 242.552 168.898C239.729 170.584 236.87 172.204 233.769 173.992V172.497C233.769 162.718 233.74 152.946 233.791 143.166C233.798 141.29 233.153 140.08 231.489 139.134C222.963 134.289 214.482 129.355 205.985 124.451C205.619 124.238 205.259 124.011 204.702 123.673C206.887 122.435 208.852 121.188 210.934 120.169H210.948ZM209.387 217.442C208.91 217.201 208.558 217.032 208.214 216.834C196.961 210.346 185.723 203.814 174.433 197.378C171.266 195.575 169.822 193.001 169.859 189.387C169.925 181.705 169.903 174.022 169.866 166.332C169.851 162.864 171.259 160.35 174.309 158.62C182.233 154.111 190.114 149.537 197.995 144.955C198.676 144.559 199.175 144.493 199.886 144.918C202.606 146.553 205.377 148.115 208.272 149.786C207.723 150.116 207.305 150.365 206.88 150.614C198.346 155.541 189.828 160.482 181.273 165.379C179.873 166.178 179.22 167.219 179.235 168.846C179.279 174.902 179.286 180.957 179.235 187.012C179.22 188.684 179.887 189.747 181.324 190.568C190.348 195.728 199.336 200.948 208.353 206.124C209.115 206.563 209.438 207.018 209.423 207.927C209.357 211.028 209.401 214.136 209.401 217.45L209.387 217.442ZM209.387 200.098C208.602 199.651 208.038 199.335 207.473 199.005C200.318 194.878 193.171 190.736 186.001 186.638C185.224 186.198 184.938 185.722 184.946 184.82C184.997 180.165 184.975 175.51 184.96 170.855C184.96 170.224 185.056 169.792 185.679 169.44C188.318 167.967 190.928 166.427 193.545 164.924C193.735 164.814 193.941 164.734 194.285 164.565V169.792C194.285 172.622 194.329 175.459 194.27 178.288C194.234 179.901 194.857 180.993 196.264 181.785C200.318 184.072 204.321 186.448 208.375 188.728C209.174 189.175 209.416 189.673 209.401 190.553C209.35 193.647 209.379 196.747 209.379 200.09L209.387 200.098ZM201.125 138.995C199.607 138.101 198.31 138.108 196.792 138.995C188.288 143.965 179.748 148.87 171.215 153.796C170.856 154.009 170.482 154.199 169.844 154.544C170.071 151.303 169.375 148.246 170.482 145.285C171.083 143.665 172.212 142.448 173.707 141.583C180.826 137.47 187.937 133.35 195.07 129.26C197.672 127.764 200.326 127.801 202.928 129.304C211.029 133.966 219.122 138.643 227.201 143.335C227.545 143.533 227.978 143.98 227.978 144.317C228.036 147.645 228.014 150.981 228.014 154.551C225.075 152.858 222.362 151.289 219.65 149.72C213.47 146.15 207.275 142.616 201.125 138.995ZM258.049 191.33C257.836 193.947 256.304 195.802 254.039 197.107C245.367 202.092 236.701 207.106 228.036 212.106C225.317 213.674 222.597 215.243 219.87 216.812C219.54 217.003 219.203 217.164 218.756 217.399C218.726 216.944 218.69 216.614 218.69 216.284C218.69 213.411 218.704 210.544 218.675 207.67C218.675 207.018 218.829 206.622 219.43 206.278C232.068 199.005 244.699 191.711 257.323 184.424C257.514 184.314 257.726 184.226 258.086 184.058C258.086 186.609 258.232 188.984 258.049 191.33ZM258.115 173.237C258.093 176.214 256.487 178.303 253.944 179.769C244.062 185.451 234.187 191.161 224.312 196.865C222.509 197.906 220.698 198.939 218.763 200.054C218.734 199.563 218.697 199.24 218.697 198.91C218.697 196.08 218.726 193.243 218.675 190.414C218.66 189.607 218.931 189.182 219.628 188.779C228.608 183.625 237.559 178.413 246.554 173.289C248.152 172.38 248.856 171.258 248.841 169.381C248.775 159.602 248.812 149.823 248.812 140.043V138.335C251.158 139.75 253.357 140.916 255.366 142.338C257.199 143.635 258.122 145.6 258.13 147.865C258.159 156.325 258.181 164.785 258.122 173.245L258.115 173.237Z" fill="white"/>
</g>
</mask>
<g mask="url(#mask0_7858_3465)">
<path d="M173.19 209.149C236.551 187.662 248.938 136.648 247.211 113.827L286.444 142.788L274.184 202.646L205.868 231.091L173.19 209.149Z" fill="#D8EFF4"/>
</g>
<path d="M281.5 112.5C308.164 106.481 325.716 106.888 329.371 115.015C336.105 129.986 289.226 165.663 224.663 194.702C160.101 223.74 102.305 235.144 95.5709 220.173C91.6177 211.384 102.199 196.758 127.933 179.229" stroke="url(#paint5_linear_7858_3465)" stroke-width="4.78372" stroke-linecap="round"/>
<path d="M280.495 109.302C308.112 103.577 327.845 105.27 331.943 114.382C339.492 131.166 291.025 167.253 224.658 197.103C158.291 226.954 100.398 238.477 92.8489 221.692C88.4168 211.838 98.9502 196.039 125.196 177.558" stroke="black" stroke-linecap="round"/>
<defs>
<filter id="filter0_d_7858_3465" x="345.347" y="145.589" width="30.0624" height="47.0158" filterUnits="userSpaceOnUse" color-interpolation-filters="sRGB">
<feFlood flood-opacity="0" result="BackgroundImageFix"/>
<feColorMatrix in="SourceAlpha" type="matrix" values="0 0 0 0 0 0 0 0 0 0 0 0 0 0 0 0 0 0 127 0" result="hardAlpha"/>
<feOffset dy="1.87268"/>
<feGaussianBlur stdDeviation="2.27396"/>
<feComposite in2="hardAlpha" operator="out"/>
<feColorMatrix type="matrix" values="0 0 0 0 0 0 0 0 0 0 0 0 0 0 0 0 0 0 1 0"/>
<feBlend mode="normal" in2="BackgroundImageFix" result="effect1_dropShadow_7858_3465"/>
<feBlend mode="normal" in="SourceGraphic" in2="effect1_dropShadow_7858_3465" result="shape"/>
</filter>
<filter id="filter1_d_7858_3465" x="349.36" y="148.265" width="22.0366" height="38.99" filterUnits="userSpaceOnUse" color-interpolation-filters="sRGB">
<feFlood flood-opacity="0" result="BackgroundImageFix"/>
<feColorMatrix in="SourceAlpha" type="matrix" values="0 0 0 0 0 0 0 0 0 0 0 0 0 0 0 0 0 0 127 0" result="hardAlpha"/>
<feOffset dy="0.535051"/>
<feGaussianBlur stdDeviation="0.267525"/>
<feComposite in2="hardAlpha" operator="out"/>
<feColorMatrix type="matrix" values="0 0 0 0 0 0 0 0 0 0 0 0 0 0 0 0 0 0 0.25 0"/>
<feBlend mode="normal" in2="BackgroundImageFix" result="effect1_dropShadow_7858_3465"/>
<feBlend mode="normal" in="SourceGraphic" in2="effect1_dropShadow_7858_3465" result="shape"/>
</filter>
<linearGradient id="paint0_linear_7858_3465" x1="384.341" y1="143.189" x2="390.216" y2="150.734" gradientUnits="userSpaceOnUse">
<stop stop-color="#A2B0EF"/>
<stop offset="1" stop-color="#181B5C"/>
</linearGradient>
<linearGradient id="paint1_linear_7858_3465" x1="342.786" y1="148.304" x2="381.236" y2="187.822" gradientUnits="userSpaceOnUse">
<stop offset="0.0729167" stop-color="#9CA7D7"/>
<stop offset="0.96875" stop-color="#01003F" stop-opacity="0"/>
</linearGradient>
<linearGradient id="paint2_linear_7858_3465" x1="216.039" y1="143.761" x2="143.911" y2="175.899" gradientUnits="userSpaceOnUse">
<stop stop-color="#FEF5FF"/>
<stop offset="0.00520833" stop-color="#B6FFFB" stop-opacity="0.5"/>
<stop offset="1" stop-color="#F3A0FB"/>
</linearGradient>
<linearGradient id="paint3_linear_7858_3465" x1="9.87837" y1="-5.78247" x2="37.7008" y2="11.4855" gradientUnits="userSpaceOnUse">
<stop stop-color="#01003F" stop-opacity="0"/>
<stop offset="1" stop-color="#F191FA"/>
</linearGradient>
<linearGradient id="paint4_linear_7858_3465" x1="188" y1="133.5" x2="241" y2="187.5" gradientUnits="userSpaceOnUse">
<stop stop-color="#F58FFF"/>
<stop offset="0.880208" stop-color="#F191FA" stop-opacity="0.54"/>
</linearGradient>
<linearGradient id="paint5_linear_7858_3465" x1="161.048" y1="257.488" x2="346.541" y2="43.0242" gradientUnits="userSpaceOnUse">
<stop stop-color="#F191FA"/>
<stop offset="0.857753" stop-color="white"/>
<stop offset="0.932292" stop-color="white"/>
</linearGradient>
<clipPath id="clip0_7858_3465">
<rect width="105.992" height="105.992" fill="white" transform="translate(161 115)"/>
</clipPath>
<clipPath id="clip1_7858_3465">
<rect width="105.992" height="105.992" fill="white" transform="translate(161 115)"/>
</clipPath>
</defs>
</svg>
