<svg width="430" height="305" viewBox="0 0 430 305" fill="none" xmlns="http://www.w3.org/2000/svg">
<rect width="430" height="305" fill="white" fill-opacity="0.04"/>
<path d="M106.061 103.632L105.632 102L104 102.429L104.429 104.061L106.061 103.632Z" fill="white"/>
<path d="M104.653 188.101L104.101 186L102 186.553L102.552 188.654L104.653 188.101Z" fill="white"/>
<path d="M316.489 259.345L314.345 259L314 261.145L316.144 261.49L316.489 259.345Z" fill="white"/>
<path d="M360.286 172.903L360.905 171.617L359.619 170.998L359 172.284L360.286 172.903Z" fill="white"/>
<path d="M303.653 104.101L303.101 102L301 102.553L301.552 104.654L303.653 104.101Z" fill="white"/>
<path d="M325.286 247.903L325.905 246.617L324.619 245.998L324 247.284L325.286 247.903Z" fill="white"/>
<path d="M77.2861 203.903L77.9053 202.617L76.6192 201.998L76.0001 203.284L77.2861 203.903Z" fill="white"/>
<path d="M114.012 109.087L113.087 108L112 108.925L112.926 110.012L114.012 109.087Z" fill="white"/>
<path d="M115.286 260.903L115.905 259.617L114.619 258.998L114 260.284L115.286 260.903Z" fill="white"/>
<circle cx="215.5" cy="176.5" r="79.5" fill="url(#paint0_radial_8086_7713)"/>
<circle cx="215.5" cy="176.5" r="79.5" fill="url(#paint1_radial_8086_7713)"/>
<path d="M215.5 97C171.593 97 136 132.593 136 176.5C136 220.407 171.593 256 215.5 256C259.407 256 295 220.407 295 176.5C295 132.593 259.407 97 215.5 97ZM212.055 129.126C214.263 128.044 216.589 128.118 218.73 129.333C226.154 133.564 233.556 137.832 240.921 142.144C243.292 143.537 244.507 145.767 244.514 148.508C244.559 158.118 244.544 167.72 244.514 177.33C244.514 177.685 244.285 178.204 243.996 178.375C241.143 180.079 238.253 181.716 235.119 183.524C235.119 182.894 235.119 182.457 235.119 182.012C235.119 172.129 235.09 162.252 235.142 152.368C235.149 150.472 234.497 149.249 232.815 148.293C224.198 143.396 215.626 138.41 207.039 133.453C206.668 133.238 206.305 133.008 205.742 132.668C207.965 131.415 209.951 130.156 212.055 129.126ZM210.477 227.438C209.995 227.193 209.639 227.023 209.291 226.823C197.918 220.266 186.56 213.664 175.15 207.159C171.949 205.336 170.49 202.736 170.527 199.083C170.593 191.318 170.571 183.554 170.534 175.781C170.519 172.277 171.942 169.735 175.024 167.987C183.033 163.43 190.998 158.807 198.963 154.176C199.652 153.776 200.156 153.71 200.874 154.139C203.623 155.791 206.424 157.37 209.35 159.059C208.795 159.392 208.372 159.644 207.943 159.896C199.318 164.875 190.709 169.869 182.063 174.818C180.647 175.626 179.988 176.678 180.003 178.323C180.047 184.443 180.055 190.563 180.003 196.682C179.988 198.372 180.662 199.446 182.114 200.276C191.235 205.492 200.319 210.767 209.432 215.998C210.202 216.443 210.528 216.902 210.514 217.821C210.432 220.947 210.477 224.081 210.477 227.438ZM210.477 209.908C209.684 209.456 209.113 209.137 208.543 208.804C201.311 204.632 194.088 200.446 186.841 196.305C186.056 195.86 185.767 195.378 185.775 194.467C185.826 189.762 185.804 185.058 185.789 180.353C185.789 179.716 185.886 179.278 186.515 178.923C189.183 177.434 191.82 175.878 194.465 174.359C194.658 174.248 194.866 174.166 195.214 173.996C195.214 175.855 195.214 177.567 195.214 179.278C195.214 182.138 195.258 185.006 195.199 187.866C195.162 189.496 195.792 190.6 197.214 191.4C201.312 193.711 205.357 196.112 209.454 198.416C210.262 198.868 210.506 199.372 210.491 200.261C210.44 203.395 210.477 206.529 210.477 209.908ZM202.127 148.153C200.593 147.249 199.281 147.256 197.748 148.153C189.153 153.176 180.521 158.133 171.897 163.112C171.534 163.319 171.156 163.519 170.512 163.867C170.741 160.593 170.038 157.503 171.156 154.51C171.764 152.872 172.905 151.642 174.416 150.768C181.611 146.612 188.797 142.448 196.007 138.313C198.637 136.802 201.319 136.839 203.949 138.358C212.136 143.07 220.316 147.797 228.481 152.539C228.829 152.739 229.266 153.191 229.266 153.532C229.325 156.895 229.303 160.267 229.303 163.875C226.332 162.163 223.591 160.578 220.849 158.992C214.604 155.384 208.343 151.805 202.127 148.153ZM259.658 201.046C259.444 203.692 257.895 205.566 255.606 206.885C246.841 211.923 238.083 216.991 229.325 222.044C226.577 223.629 223.828 225.215 221.072 226.801C220.738 226.993 220.397 227.156 219.945 227.393C219.916 226.934 219.879 226.601 219.879 226.267C219.871 223.363 219.894 220.466 219.864 217.561C219.857 216.902 220.02 216.502 220.627 216.154C233.4 208.804 246.166 201.432 258.925 194.067C259.118 193.956 259.332 193.867 259.696 193.697C259.696 196.275 259.851 198.676 259.658 201.046ZM259.725 182.761C259.703 185.769 258.08 187.88 255.509 189.362C245.522 195.104 235.542 200.876 225.562 206.64C223.739 207.692 221.909 208.737 219.953 209.863C219.923 209.367 219.886 209.041 219.886 208.707C219.879 205.848 219.916 202.98 219.864 200.12C219.849 199.305 220.123 198.876 220.827 198.468C229.903 193.259 238.95 187.992 248.041 182.813C249.656 181.894 250.367 180.76 250.353 178.864C250.286 168.98 250.323 159.096 250.323 149.212C250.323 148.745 250.323 148.271 250.323 147.486C252.694 148.916 254.917 150.094 256.947 151.531C258.799 152.843 259.733 154.828 259.74 157.118C259.762 165.66 259.784 174.211 259.725 182.761Z" fill="#131313"/>
<path fill-rule="evenodd" clip-rule="evenodd" d="M215.5 97C171.593 97 136 132.593 136 176.5C136 220.407 171.593 256 215.5 256C259.407 256 295 220.407 295 176.5C295 132.593 259.407 97 215.5 97ZM215.5 103.625C175.252 103.625 142.625 136.252 142.625 176.5C142.625 216.748 175.252 249.375 215.5 249.375C255.748 249.375 288.375 216.748 288.375 176.5C288.375 136.252 255.748 103.625 215.5 103.625Z" fill="url(#paint2_radial_8086_7713)"/>
<path fill-rule="evenodd" clip-rule="evenodd" d="M215.5 97C171.593 97 136 132.593 136 176.5C136 220.407 171.593 256 215.5 256C259.407 256 295 220.407 295 176.5C295 132.593 259.407 97 215.5 97ZM215.5 103.625C175.252 103.625 142.625 136.252 142.625 176.5C142.625 216.748 175.252 249.375 215.5 249.375C255.748 249.375 288.375 216.748 288.375 176.5C288.375 136.252 255.748 103.625 215.5 103.625Z" fill="url(#paint3_radial_8086_7713)"/>
<defs>
<radialGradient id="paint0_radial_8086_7713" cx="0" cy="0" r="1" gradientUnits="userSpaceOnUse" gradientTransform="translate(178.203 139.011) rotate(44.9817) scale(165.179 350.307)">
<stop stop-color="#A3EEF8"/>
<stop offset="0.177083" stop-color="#A4DCF5"/>
<stop offset="0.380208" stop-color="#A6AEEC"/>
<stop offset="1" stop-color="#ECBEE1"/>
</radialGradient>
<radialGradient id="paint1_radial_8086_7713" cx="0" cy="0" r="1" gradientUnits="userSpaceOnUse" gradientTransform="translate(222.395 246.131) rotate(84.265) scale(85.5554 163.669)">
<stop stop-color="#FCF5EE"/>
<stop offset="0.715135" stop-color="#ECBEE1" stop-opacity="0"/>
</radialGradient>
<radialGradient id="paint2_radial_8086_7713" cx="0" cy="0" r="1" gradientUnits="userSpaceOnUse" gradientTransform="translate(178.203 139.011) rotate(44.9817) scale(165.179 350.307)">
<stop stop-color="#A3EEF8"/>
<stop offset="0.177083" stop-color="#A4DCF5"/>
<stop offset="0.380208" stop-color="#A6AEEC"/>
<stop offset="1" stop-color="#ECBEE1"/>
</radialGradient>
<radialGradient id="paint3_radial_8086_7713" cx="0" cy="0" r="1" gradientUnits="userSpaceOnUse" gradientTransform="translate(222.395 246.131) rotate(84.265) scale(85.5554 163.669)">
<stop stop-color="#FCF5EE"/>
<stop offset="0.715135" stop-color="#ECBEE1" stop-opacity="0"/>
</radialGradient>
</defs>
</svg>
