<svg width="1083" height="698" viewBox="0 0 1083 698" fill="none" xmlns="http://www.w3.org/2000/svg">
<g clip-path="url(#clip0_2_257)">
<g clip-path="url(#clip1_2_257)">
<rect width="1082.51" height="1636.35" rx="27.692" fill="#0D0D0D"/>
<g filter="url(#filter0_d_2_257)">
<path d="M0 0.00408936L1082.51 0.00408936V1636.35H0V0.00408936Z" fill="#0D0D0D"/>
</g>
<rect width="1083" height="201" transform="translate(0 0.00164795)" fill="#0D0D0D"/>
<g clip-path="url(#clip2_2_257)">
<rect x="40.2794" y="40.5826" width="120.838" height="120.838" rx="50.3492" fill="#F3F3F3" fill-opacity="0.08"/>
<g clip-path="url(#clip3_2_257)">
<path d="M100.698 117.785L104.705 113.778L95.0969 104.148H117.481V97.8547H95.0969L104.705 88.2255L100.698 84.2185L83.9152 101.002L100.698 117.785Z" fill="#F3F3F3"/>
</g>
<rect x="40.2794" y="40.5826" width="120.838" height="120.838" rx="50.3492" stroke="#131313"/>
</g>
<g clip-path="url(#clip4_2_257)">
<rect x="921.883" y="40.5826" width="120.838" height="120.838" rx="50.3492" fill="#F3F3F3" fill-opacity="0.08"/>
<g clip-path="url(#clip5_2_257)">
<path d="M998.036 90.3234L992.98 85.2675L982.302 95.9457L971.623 85.2675L966.567 90.3234L977.246 101.002L966.567 111.68L971.623 116.736L982.302 106.058L992.98 116.736L998.036 111.68L987.357 101.002L998.036 90.3234Z" fill="#F3F3F3"/>
</g>
<rect x="921.883" y="40.5826" width="120.838" height="120.838" rx="50.3492" stroke="#131313"/>
</g>
<g clip-path="url(#clip6_2_257)">
<path d="M87.3559 277.314H95.9656V313.818H87.3559V298.864H72.3518V313.818H63.7421V277.314H72.3518V291.261H87.3559V277.314ZM115.021 292.369C111.748 292.369 109.13 294.383 109.13 300.173C109.13 305.862 111.647 308.027 115.021 308.027C118.394 308.027 120.912 305.862 120.912 300.173C120.912 294.383 118.293 292.369 115.021 292.369ZM115.021 285.924C122.523 285.924 129.37 290.355 129.37 300.173C129.37 309.991 122.523 314.472 115.021 314.472C107.519 314.472 100.671 309.991 100.671 300.173C100.671 290.355 107.519 285.924 115.021 285.924ZM145.746 286.73H154.305L157.477 305.107L161.052 286.73H169.561L163.317 313.818H153.65L150.025 293.829L146.4 313.818H136.783L130.54 286.73H139.049L142.624 305.107L145.746 286.73ZM196.095 286.73H204.654L207.826 305.107L211.401 286.73H219.91L213.667 313.818H204L200.374 293.829L196.749 313.818H187.133L180.889 286.73H189.398L192.973 305.107L196.095 286.73ZM235.436 292.369C232.163 292.369 229.545 294.383 229.545 300.173C229.545 305.862 232.063 308.027 235.436 308.027C238.809 308.027 241.327 305.862 241.327 300.173C241.327 294.383 238.709 292.369 235.436 292.369ZM235.436 285.924C242.938 285.924 249.785 290.355 249.785 300.173C249.785 309.991 242.938 314.472 235.436 314.472C227.934 314.472 221.086 309.991 221.086 300.173C221.086 290.355 227.934 285.924 235.436 285.924ZM270.883 313.818V310.041C269.221 312.71 267.107 314.472 262.928 314.472C255.728 314.472 253.563 310.394 253.563 303.043V286.73H261.87V300.979C261.87 304.855 261.971 308.027 265.999 308.027C269.574 308.027 270.883 306.064 270.883 301.029V286.73H279.191V313.818H270.883ZM293.499 277.314V313.818H285.192V277.314H293.499ZM317.929 277.314H326.236V313.818H317.929V310.192C316.166 313.163 312.541 314.472 309.621 314.472C302.623 314.472 297.688 309.135 297.688 300.274C297.688 291.412 302.623 286.126 309.621 286.126C312.541 286.126 316.166 287.435 317.929 290.405V277.314ZM312.34 292.57C309.067 292.57 306.298 295.239 306.298 300.274C306.298 305.309 309.067 308.027 312.34 308.027C315.613 308.027 318.331 305.862 318.331 300.274C318.331 294.685 315.613 292.57 312.34 292.57ZM345.985 322.629H343.316V316.637H344.978C348.402 316.637 349.107 316.385 349.912 314.371L350.164 313.667L340.044 286.73H349.157L354.142 303.697L359.479 286.73H368.39L357.767 313.818C355.048 320.715 353.084 322.629 345.985 322.629ZM383.14 292.369C379.867 292.369 377.249 294.383 377.249 300.173C377.249 305.862 379.767 308.027 383.14 308.027C386.513 308.027 389.031 305.862 389.031 300.173C389.031 294.383 386.413 292.369 383.14 292.369ZM383.14 285.924C390.642 285.924 397.489 290.355 397.489 300.173C397.489 309.991 390.642 314.472 383.14 314.472C375.638 314.472 368.79 309.991 368.79 300.173C368.79 290.355 375.638 285.924 383.14 285.924ZM418.587 313.818V310.041C416.925 312.71 414.811 314.472 410.632 314.472C403.432 314.472 401.267 310.394 401.267 303.043V286.73H409.574V300.979C409.574 304.855 409.675 308.027 413.703 308.027C417.278 308.027 418.587 306.064 418.587 301.029V286.73H426.895V313.818H418.587ZM452.02 277.314V313.818H443.713V277.314H452.02ZM457.972 286.73H466.33V313.818H457.972V286.73ZM457.972 277.314H466.279V283.961H457.972V277.314ZM472.28 277.314H480.588V297.051L489.701 286.73H499.519L489.852 297.102L500.324 313.818H490.607L484.213 303.144L480.588 307.02V313.818H472.28V277.314ZM521.454 305.309H529.107C526.69 311.703 521.001 314.472 515.613 314.472C506.802 314.472 500.76 309.135 500.76 300.123C500.76 291.463 507.356 285.924 515.261 285.924C524.273 285.924 529.761 292.721 529.208 302.388H509.118C509.37 306.265 512.341 308.027 515.362 308.027C518.534 308.027 520.497 306.92 521.454 305.309ZM515.261 292.268C512.29 292.268 509.672 293.779 509.219 297.353H520.95C520.799 293.93 518.433 292.268 515.261 292.268ZM552.719 286.73V290.405C554.481 287.435 558.106 286.126 561.026 286.126C568.025 286.126 572.959 291.412 572.959 300.274C572.959 309.135 568.025 314.472 561.026 314.472C558.106 314.472 554.481 313.163 552.719 310.192V322.629H544.411V286.73H552.719ZM558.307 292.57C555.035 292.57 552.316 294.685 552.316 300.274C552.316 305.862 555.035 308.027 558.307 308.027C561.58 308.027 564.349 305.309 564.349 300.274C564.349 295.239 561.58 292.57 558.307 292.57ZM593.723 296.9V295.843C593.723 292.621 592.162 291.513 589.141 291.513C586.472 291.513 584.66 292.872 584.307 295.49H576.553C576.956 290.405 581.79 285.874 589.846 285.874C597.65 285.874 602.081 289.046 601.929 297.253L601.829 303.144V305.963C601.829 308.934 602.03 312.156 602.433 313.818H594.276L594.176 310.545C592.162 313.415 588.939 314.472 585.062 314.472C579.927 314.472 575.698 311.451 575.698 306.517C575.698 299.871 583.2 297.706 593.723 296.9ZM593.924 302.439V301.784C588.134 302.338 584.257 302.942 584.257 305.913C584.257 307.675 585.918 308.833 588.083 308.833C591.406 308.833 593.924 307.423 593.924 302.439ZM609.876 322.629H607.207V316.637H608.869C612.292 316.637 612.997 316.385 613.803 314.371L614.055 313.667L603.934 286.73H613.048L618.032 303.697L623.369 286.73H632.281L621.657 313.818C618.938 320.715 616.975 322.629 609.876 322.629ZM648.719 276.71C655.969 276.71 662.716 279.63 662.716 286.025C662.716 290.858 659.695 293.124 655.818 294.987C652.243 296.598 650.481 297.706 650.481 300.928V302.237H642.173C642.022 301.482 642.022 300.475 642.022 299.82C642.022 294.786 644.59 292.772 648.064 291.009C650.531 289.801 654.207 288.844 654.207 286.679C654.207 284.665 652.042 283.356 648.618 283.356C644.389 283.356 641.267 285.119 641.267 289.197H633.211C633.211 281.242 639.555 276.71 648.719 276.71ZM650.985 313.818H641.62V304.855H650.985V313.818Z" fill="#F3F3F3"/>
<g clip-path="url(#clip7_2_257)">
<rect x="35.2445" y="373.097" width="1012.02" height="261.816" rx="30.2095" fill="#F3F3F3" fill-opacity="0.04"/>
<rect x="65.454" y="433.516" width="120.838" height="120.838" rx="10.0698" fill="#F3F3F3" fill-opacity="0.08"/>
<g clip-path="url(#clip8_2_257)">
<rect x="95.6635" y="473.795" width="60.419" height="40.2793" rx="5.03492" fill="#F3F3F3" fill-opacity="0.8"/>
<path d="M125.873 502.746C125.873 502.051 126.437 501.487 127.132 501.487H149.789C150.484 501.487 151.048 502.051 151.048 502.746V507.781C151.048 508.476 150.484 509.039 149.789 509.039H127.132C126.437 509.039 125.873 508.476 125.873 507.781V502.746Z" fill="#868686"/>
<path d="M100.698 492.676C100.698 491.981 101.262 491.417 101.957 491.417H149.789C150.484 491.417 151.048 491.981 151.048 492.676V497.711C151.048 498.406 150.484 498.97 149.789 498.97H101.957C101.262 498.97 100.698 498.406 100.698 497.711V492.676Z" fill="#868686"/>
</g>
<path d="M229.23 448.313H240.468C248.04 448.313 253.72 450.166 253.72 457.819C253.72 465.513 248.04 467.406 240.468 467.406H236.118V477.516H229.23V448.313ZM240.669 454.113H236.118V461.605H240.669C243.891 461.605 246.429 460.88 246.429 457.819C246.429 454.798 243.891 454.113 240.669 454.113ZM269.262 463.982V463.136C269.262 460.558 268.014 459.672 265.597 459.672C263.462 459.672 262.012 460.76 261.73 462.854H255.527C255.849 458.786 259.716 455.161 266.161 455.161C272.404 455.161 275.949 457.698 275.828 464.264L275.747 468.977V471.232C275.747 473.609 275.909 476.187 276.231 477.516H269.705L269.625 474.898C268.014 477.194 265.436 478.039 262.334 478.039C258.226 478.039 254.842 475.623 254.842 471.675C254.842 466.358 260.844 464.626 269.262 463.982ZM269.424 468.413V467.889C264.791 468.332 261.69 468.815 261.69 471.192C261.69 472.602 263.019 473.528 264.751 473.528C267.41 473.528 269.424 472.4 269.424 468.413ZM282.185 484.565H280.05V479.771H281.379C284.118 479.771 284.682 479.57 285.327 477.959L285.528 477.395L277.432 455.845H284.722L288.71 469.42L292.98 455.845H300.109L291.61 477.516C289.435 483.034 287.864 484.565 282.185 484.565ZM321.148 455.845H327.995L330.533 470.547L333.393 455.845H340.2L335.205 477.516H327.472L324.572 461.525L321.671 477.516H313.978L308.984 455.845H315.791L318.651 470.547L321.148 455.845ZM342.784 455.845H349.471V477.516H342.784V455.845ZM342.784 448.313H349.43V453.63H342.784V448.313ZM355.278 455.845V449.924H361.924V455.845H366.677V460.558H361.924V470.265C361.924 472.32 362.569 472.723 364.784 472.723H366.677V477.516H362.448C357.091 477.516 355.278 476.468 355.278 471.434V460.558H351.854V455.845H355.278ZM376.847 448.313V458.705C377.814 457.094 380.15 455.362 383.574 455.362C389.132 455.362 390.864 458.625 390.864 464.506V477.516H384.218V466.157C384.218 463.055 384.138 460.518 380.915 460.518C378.055 460.518 376.847 462.371 376.847 466.399V477.516H370.201V448.313H376.847ZM413.66 455.201C418.171 455.201 423.125 457.255 424.414 463.78H418.211C417.607 461.243 416.036 460.357 414.063 460.357C411.686 460.357 409.35 461.968 409.35 466.6C409.35 471.313 411.686 472.884 414.063 472.884C416.52 472.884 418.01 471.595 418.493 469.54H424.696C423.206 475.985 418.01 478.039 413.66 478.039C406.53 478.039 402.583 473.448 402.583 466.56C402.583 459.672 407.094 455.201 413.66 455.201ZM441.118 463.982V463.136C441.118 460.558 439.87 459.672 437.453 459.672C435.318 459.672 433.868 460.76 433.586 462.854H427.383C427.705 458.786 431.572 455.161 438.017 455.161C444.26 455.161 447.805 457.698 447.684 464.264L447.603 468.977V471.232C447.603 473.609 447.764 476.187 448.087 477.516H441.561L441.481 474.898C439.87 477.194 437.292 478.039 434.19 478.039C430.082 478.039 426.698 475.623 426.698 471.675C426.698 466.358 432.7 464.626 441.118 463.982ZM441.279 468.413V467.889C436.647 468.332 433.546 468.815 433.546 471.192C433.546 472.602 434.875 473.528 436.607 473.528C439.265 473.528 441.279 472.4 441.279 468.413ZM465.233 455.725V462.21C464.467 462.089 464.024 462.089 463.42 462.089C460.198 462.089 458.546 463.257 458.546 466.64V477.516H451.9V455.845H458.305V459.954C459.312 457.376 461.124 455.805 464.226 455.684H464.709C464.91 455.684 465.072 455.684 465.233 455.725ZM482.85 448.313H489.496V477.516H482.85V474.616C481.44 476.992 478.54 478.039 476.203 478.039C470.605 478.039 466.657 473.77 466.657 466.681C466.657 459.591 470.605 455.362 476.203 455.362C478.54 455.362 481.44 456.409 482.85 458.786V448.313ZM478.379 460.518C475.76 460.518 473.545 462.653 473.545 466.681C473.545 470.709 475.76 472.884 478.379 472.884C480.997 472.884 483.172 471.152 483.172 466.681C483.172 462.21 480.997 460.518 478.379 460.518Z" fill="#F3F3F3"/>
<path d="M237.015 504.942L229.905 524.516H226.999L235.186 503.039H237.059L237.015 504.942ZM242.974 524.516L235.85 504.942L235.805 503.039H237.679L245.895 524.516H242.974ZM242.605 516.565V518.896H230.539V516.565H242.605ZM251.087 511.624V530.652H248.343V508.555H250.851L251.087 511.624ZM261.84 516.403V516.713C261.84 517.873 261.703 518.95 261.427 519.943C261.152 520.926 260.749 521.782 260.218 522.51C259.697 523.237 259.052 523.803 258.285 524.206C257.518 524.609 256.638 524.811 255.645 524.811C254.632 524.811 253.737 524.644 252.96 524.309C252.184 523.975 251.525 523.488 250.984 522.849C250.443 522.21 250.01 521.443 249.686 520.548C249.371 519.653 249.155 518.645 249.037 517.524V515.872C249.155 514.692 249.376 513.635 249.7 512.7C250.025 511.766 250.453 510.97 250.984 510.311C251.525 509.642 252.179 509.136 252.946 508.791C253.713 508.437 254.598 508.26 255.601 508.26C256.604 508.26 257.494 508.457 258.271 508.85C259.048 509.234 259.701 509.785 260.233 510.503C260.764 511.22 261.162 512.081 261.427 513.084C261.703 514.077 261.84 515.183 261.84 516.403ZM259.097 516.713V516.403C259.097 515.606 259.013 514.859 258.846 514.161C258.679 513.453 258.418 512.833 258.064 512.302C257.72 511.761 257.277 511.338 256.737 511.034C256.196 510.719 255.552 510.562 254.804 510.562C254.116 510.562 253.516 510.68 253.005 510.916C252.503 511.152 252.075 511.471 251.721 511.874C251.367 512.268 251.077 512.72 250.851 513.231C250.635 513.733 250.472 514.254 250.364 514.795V518.615C250.561 519.304 250.836 519.953 251.19 520.563C251.544 521.162 252.016 521.649 252.606 522.023C253.196 522.387 253.939 522.569 254.834 522.569C255.571 522.569 256.206 522.416 256.737 522.111C257.277 521.797 257.72 521.369 258.064 520.828C258.418 520.287 258.679 519.668 258.846 518.969C259.013 518.261 259.097 517.509 259.097 516.713ZM268.05 511.624V530.652H265.307V508.555H267.814L268.05 511.624ZM278.804 516.403V516.713C278.804 517.873 278.666 518.95 278.391 519.943C278.115 520.926 277.712 521.782 277.181 522.51C276.66 523.237 276.016 523.803 275.249 524.206C274.482 524.609 273.602 524.811 272.608 524.811C271.596 524.811 270.701 524.644 269.924 524.309C269.147 523.975 268.488 523.488 267.947 522.849C267.406 522.21 266.974 521.443 266.649 520.548C266.334 519.653 266.118 518.645 266 517.524V515.872C266.118 514.692 266.339 513.635 266.664 512.7C266.988 511.766 267.416 510.97 267.947 510.311C268.488 509.642 269.142 509.136 269.909 508.791C270.676 508.437 271.561 508.26 272.564 508.26C273.567 508.26 274.457 508.457 275.234 508.85C276.011 509.234 276.665 509.785 277.196 510.503C277.727 511.22 278.125 512.081 278.391 513.084C278.666 514.077 278.804 515.183 278.804 516.403ZM276.06 516.713V516.403C276.06 515.606 275.976 514.859 275.809 514.161C275.642 513.453 275.382 512.833 275.028 512.302C274.683 511.761 274.241 511.338 273.7 511.034C273.159 510.719 272.515 510.562 271.768 510.562C271.079 510.562 270.479 510.68 269.968 510.916C269.466 511.152 269.039 511.471 268.685 511.874C268.331 512.268 268.041 512.72 267.814 513.231C267.598 513.733 267.436 514.254 267.328 514.795V518.615C267.524 519.304 267.8 519.953 268.154 520.563C268.508 521.162 268.98 521.649 269.57 522.023C270.16 522.387 270.902 522.569 271.797 522.569C272.535 522.569 273.169 522.416 273.7 522.111C274.241 521.797 274.683 521.369 275.028 520.828C275.382 520.287 275.642 519.668 275.809 518.969C275.976 518.261 276.06 517.509 276.06 516.713ZM285.25 501.859V524.516H282.506V501.859H285.25ZM296.254 524.811C295.143 524.811 294.135 524.624 293.23 524.25C292.335 523.867 291.563 523.331 290.914 522.642C290.275 521.954 289.783 521.138 289.439 520.194C289.095 519.25 288.923 518.217 288.923 517.096V516.477C288.923 515.179 289.114 514.023 289.498 513.01C289.881 511.987 290.403 511.122 291.062 510.414C291.72 509.706 292.468 509.17 293.304 508.806C294.14 508.442 295.005 508.26 295.9 508.26C297.041 508.26 298.024 508.457 298.85 508.85C299.686 509.244 300.369 509.795 300.9 510.503C301.431 511.201 301.825 512.027 302.08 512.981C302.336 513.925 302.464 514.957 302.464 516.078V517.303H290.545V515.075H299.735V514.869C299.696 514.161 299.548 513.472 299.292 512.804C299.047 512.135 298.653 511.584 298.112 511.152C297.572 510.719 296.834 510.503 295.9 510.503C295.28 510.503 294.71 510.635 294.189 510.901C293.668 511.156 293.22 511.54 292.846 512.051C292.473 512.563 292.183 513.187 291.976 513.925C291.77 514.662 291.666 515.513 291.666 516.477V517.096C291.666 517.853 291.77 518.566 291.976 519.235C292.192 519.894 292.502 520.474 292.905 520.976C293.318 521.477 293.815 521.87 294.395 522.156C294.985 522.441 295.654 522.583 296.401 522.583C297.365 522.583 298.181 522.387 298.85 521.993C299.519 521.6 300.104 521.074 300.605 520.415L302.257 521.728C301.913 522.249 301.476 522.746 300.945 523.218C300.414 523.69 299.76 524.073 298.983 524.368C298.216 524.663 297.306 524.811 296.254 524.811ZM313.984 516.093H308.246V513.777H313.984C315.095 513.777 315.995 513.6 316.684 513.246C317.372 512.892 317.873 512.4 318.188 511.771C318.513 511.142 318.675 510.424 318.675 509.618C318.675 508.88 318.513 508.187 318.188 507.538C317.873 506.889 317.372 506.367 316.684 505.974C315.995 505.571 315.095 505.369 313.984 505.369H308.91V524.516H306.063V503.039H313.984C315.607 503.039 316.979 503.319 318.1 503.879C319.221 504.44 320.071 505.217 320.652 506.21C321.232 507.193 321.522 508.319 321.522 509.588C321.522 510.965 321.232 512.14 320.652 513.113C320.071 514.087 319.221 514.829 318.1 515.341C316.979 515.842 315.607 516.093 313.984 516.093ZM333.942 521.787V513.571C333.942 512.941 333.814 512.396 333.558 511.933C333.313 511.461 332.939 511.097 332.437 510.842C331.936 510.586 331.316 510.458 330.579 510.458C329.89 510.458 329.286 510.576 328.764 510.812C328.253 511.048 327.85 511.358 327.555 511.742C327.27 512.125 327.127 512.538 327.127 512.981H324.398C324.398 512.41 324.546 511.845 324.841 511.284C325.136 510.724 325.559 510.217 326.109 509.765C326.67 509.303 327.339 508.939 328.115 508.673C328.902 508.398 329.777 508.26 330.741 508.26C331.901 508.26 332.924 508.457 333.809 508.85C334.704 509.244 335.402 509.839 335.904 510.635C336.415 511.422 336.671 512.41 336.671 513.6V521.035C336.671 521.566 336.715 522.131 336.804 522.731C336.902 523.331 337.045 523.847 337.231 524.28V524.516H334.384C334.247 524.201 334.139 523.783 334.06 523.262C333.981 522.731 333.942 522.239 333.942 521.787ZM334.414 514.839L334.443 516.757H331.685C330.908 516.757 330.215 516.821 329.605 516.949C328.996 517.067 328.484 517.249 328.071 517.494C327.658 517.74 327.343 518.05 327.127 518.424C326.911 518.788 326.803 519.215 326.803 519.707C326.803 520.209 326.916 520.666 327.142 521.079C327.368 521.492 327.707 521.821 328.16 522.067C328.622 522.303 329.187 522.421 329.856 522.421C330.692 522.421 331.429 522.244 332.069 521.89C332.708 521.536 333.214 521.103 333.588 520.592C333.971 520.081 334.178 519.584 334.207 519.102L335.373 520.415C335.304 520.828 335.117 521.285 334.812 521.787C334.507 522.288 334.099 522.77 333.588 523.232C333.086 523.685 332.487 524.063 331.788 524.368C331.1 524.663 330.323 524.811 329.458 524.811C328.376 524.811 327.427 524.599 326.611 524.176C325.804 523.754 325.175 523.188 324.723 522.48C324.28 521.762 324.059 520.961 324.059 520.076C324.059 519.22 324.226 518.468 324.56 517.819C324.895 517.16 325.377 516.614 326.006 516.182C326.635 515.739 327.393 515.405 328.278 515.179C329.163 514.952 330.151 514.839 331.243 514.839H334.414ZM345.211 522.864L349.651 508.555H352.572L346.17 526.979C346.023 527.372 345.826 527.795 345.58 528.248C345.344 528.71 345.039 529.147 344.666 529.56C344.292 529.974 343.84 530.308 343.309 530.564C342.787 530.829 342.163 530.962 341.435 530.962C341.219 530.962 340.944 530.932 340.609 530.873C340.275 530.814 340.039 530.765 339.901 530.726L339.886 528.513C339.965 528.523 340.088 528.533 340.255 528.543C340.432 528.562 340.555 528.572 340.624 528.572C341.244 528.572 341.77 528.489 342.202 528.321C342.635 528.164 342.999 527.894 343.294 527.51C343.599 527.136 343.859 526.62 344.076 525.961L345.211 522.864ZM341.952 508.555L346.097 520.946L346.805 523.822L344.843 524.826L338.972 508.555H341.952ZM366.497 512.597L369.712 510.311C370.332 509.888 370.809 509.465 371.143 509.042C371.487 508.61 371.66 508.02 371.66 507.272C371.66 506.692 371.433 506.166 370.981 505.694C370.529 505.212 369.889 504.971 369.063 504.971C368.493 504.971 368.011 505.104 367.618 505.369C367.225 505.635 366.929 505.989 366.733 506.431C366.536 506.864 366.438 507.341 366.438 507.862C366.438 508.305 366.546 508.762 366.762 509.234C366.979 509.706 367.279 510.198 367.662 510.709C368.046 511.22 368.483 511.761 368.975 512.332L379.138 524.516H375.864L367.529 514.544C366.792 513.679 366.133 512.887 365.553 512.169C364.973 511.442 364.515 510.739 364.181 510.06C363.856 509.381 363.694 508.678 363.694 507.951C363.694 506.83 363.915 505.886 364.358 505.119C364.81 504.342 365.44 503.752 366.246 503.348C367.052 502.945 367.996 502.744 369.078 502.744C370.13 502.744 371.035 502.955 371.792 503.378C372.559 503.791 373.149 504.342 373.562 505.03C373.975 505.709 374.182 506.456 374.182 507.272C374.182 507.961 374.059 508.58 373.813 509.131C373.567 509.672 373.223 510.168 372.781 510.621C372.348 511.073 371.841 511.515 371.261 511.948L366.998 515.12C366.29 515.641 365.774 516.137 365.45 516.609C365.125 517.081 364.914 517.499 364.815 517.863C364.727 518.227 364.682 518.517 364.682 518.733C364.682 519.432 364.835 520.071 365.14 520.651C365.445 521.231 365.907 521.698 366.526 522.052C367.156 522.397 367.942 522.569 368.886 522.569C369.712 522.569 370.514 522.382 371.291 522.008C372.077 521.625 372.781 521.084 373.4 520.386C374.02 519.678 374.511 518.837 374.875 517.863C375.249 516.88 375.436 515.793 375.436 514.603H377.884C377.884 515.577 377.791 516.496 377.604 517.362C377.417 518.227 377.127 519.033 376.734 519.781C376.35 520.518 375.859 521.192 375.259 521.802C375.17 521.89 375.101 521.993 375.052 522.111C375.003 522.229 374.934 522.333 374.846 522.421C374.108 523.218 373.199 523.818 372.117 524.221C371.045 524.614 369.968 524.811 368.886 524.811C367.461 524.811 366.226 524.55 365.184 524.029C364.151 523.508 363.355 522.79 362.794 521.875C362.234 520.961 361.954 519.914 361.954 518.733C361.954 517.829 362.145 517.032 362.529 516.344C362.922 515.655 363.458 515.011 364.137 514.411C364.825 513.812 365.612 513.207 366.497 512.597ZM405.099 513.821V521.684C404.834 522.077 404.411 522.519 403.831 523.011C403.251 523.493 402.449 523.916 401.427 524.28C400.414 524.634 399.106 524.811 397.503 524.811C396.195 524.811 394.99 524.585 393.889 524.132C392.797 523.67 391.848 523.001 391.042 522.126C390.245 521.241 389.626 520.169 389.183 518.91C388.751 517.642 388.534 516.206 388.534 514.603V512.936C388.534 511.334 388.721 509.903 389.095 508.644C389.478 507.385 390.039 506.318 390.777 505.443C391.514 504.558 392.419 503.889 393.491 503.437C394.563 502.975 395.792 502.744 397.178 502.744C398.821 502.744 400.192 503.029 401.294 503.599C402.405 504.16 403.27 504.937 403.89 505.93C404.519 506.923 404.922 508.054 405.099 509.322H402.253C402.125 508.546 401.869 507.838 401.486 507.198C401.112 506.559 400.576 506.048 399.878 505.664C399.18 505.271 398.28 505.074 397.178 505.074C396.185 505.074 395.325 505.256 394.597 505.62C393.869 505.984 393.269 506.505 392.797 507.184C392.325 507.862 391.971 508.683 391.735 509.647C391.509 510.611 391.396 511.697 391.396 512.907V514.603C391.396 515.842 391.539 516.949 391.824 517.922C392.119 518.896 392.537 519.727 393.078 520.415C393.618 521.094 394.263 521.61 395.01 521.964C395.767 522.318 396.603 522.495 397.518 522.495C398.53 522.495 399.352 522.411 399.981 522.244C400.61 522.067 401.102 521.861 401.456 521.625C401.81 521.379 402.08 521.148 402.267 520.931V516.123H397.296V513.821H405.099ZM408.684 516.713V516.373C408.684 515.223 408.851 514.156 409.185 513.172C409.52 512.179 410.002 511.319 410.631 510.591C411.26 509.854 412.022 509.283 412.917 508.88C413.812 508.467 414.815 508.26 415.927 508.26C417.048 508.26 418.056 508.467 418.95 508.88C419.855 509.283 420.622 509.854 421.252 510.591C421.891 511.319 422.377 512.179 422.712 513.172C423.046 514.156 423.213 515.223 423.213 516.373V516.713C423.213 517.863 423.046 518.93 422.712 519.914C422.377 520.897 421.891 521.757 421.252 522.495C420.622 523.223 419.86 523.793 418.965 524.206C418.08 524.609 417.077 524.811 415.956 524.811C414.835 524.811 413.827 524.609 412.932 524.206C412.037 523.793 411.27 523.223 410.631 522.495C410.002 521.757 409.52 520.897 409.185 519.914C408.851 518.93 408.684 517.863 408.684 516.713ZM411.413 516.373V516.713C411.413 517.509 411.506 518.261 411.693 518.969C411.88 519.668 412.16 520.287 412.534 520.828C412.917 521.369 413.394 521.797 413.965 522.111C414.535 522.416 415.199 522.569 415.956 522.569C416.703 522.569 417.357 522.416 417.918 522.111C418.488 521.797 418.96 521.369 419.334 520.828C419.708 520.287 419.988 519.668 420.175 518.969C420.371 518.261 420.47 517.509 420.47 516.713V516.373C420.47 515.587 420.371 514.844 420.175 514.146C419.988 513.438 419.703 512.813 419.319 512.273C418.945 511.722 418.473 511.289 417.903 510.975C417.343 510.66 416.684 510.503 415.927 510.503C415.179 510.503 414.52 510.66 413.95 510.975C413.389 511.289 412.917 511.722 412.534 512.273C412.16 512.813 411.88 513.438 411.693 514.146C411.506 514.844 411.413 515.587 411.413 516.373ZM425.913 516.713V516.373C425.913 515.223 426.08 514.156 426.414 513.172C426.749 512.179 427.23 511.319 427.86 510.591C428.489 509.854 429.251 509.283 430.146 508.88C431.041 508.467 432.044 508.26 433.155 508.26C434.276 508.26 435.284 508.467 436.179 508.88C437.084 509.283 437.851 509.854 438.48 510.591C439.12 511.319 439.606 512.179 439.941 513.172C440.275 514.156 440.442 515.223 440.442 516.373V516.713C440.442 517.863 440.275 518.93 439.941 519.914C439.606 520.897 439.12 521.757 438.48 522.495C437.851 523.223 437.089 523.793 436.194 524.206C435.309 524.609 434.306 524.811 433.185 524.811C432.064 524.811 431.056 524.609 430.161 524.206C429.266 523.793 428.499 523.223 427.86 522.495C427.23 521.757 426.749 520.897 426.414 519.914C426.08 518.93 425.913 517.863 425.913 516.713ZM428.642 516.373V516.713C428.642 517.509 428.735 518.261 428.922 518.969C429.109 519.668 429.389 520.287 429.763 520.828C430.146 521.369 430.623 521.797 431.194 522.111C431.764 522.416 432.428 522.569 433.185 522.569C433.932 522.569 434.586 522.416 435.147 522.111C435.717 521.797 436.189 521.369 436.563 520.828C436.936 520.287 437.217 519.668 437.404 518.969C437.6 518.261 437.699 517.509 437.699 516.713V516.373C437.699 515.587 437.6 514.844 437.404 514.146C437.217 513.438 436.932 512.813 436.548 512.273C436.174 511.722 435.702 511.289 435.132 510.975C434.571 510.66 433.913 510.503 433.155 510.503C432.408 510.503 431.749 510.66 431.179 510.975C430.618 511.289 430.146 511.722 429.763 512.273C429.389 512.813 429.109 513.438 428.922 514.146C428.735 514.844 428.642 515.587 428.642 516.373ZM454.205 508.555H456.683V524.176C456.683 525.583 456.398 526.782 455.827 527.776C455.257 528.769 454.46 529.521 453.438 530.033C452.425 530.554 451.255 530.814 449.927 530.814C449.376 530.814 448.727 530.726 447.98 530.549C447.242 530.382 446.515 530.092 445.797 529.679C445.089 529.275 444.494 528.73 444.012 528.041L445.443 526.419C446.111 527.225 446.81 527.785 447.537 528.1C448.275 528.415 449.003 528.572 449.72 528.572C450.586 528.572 451.333 528.41 451.963 528.085C452.592 527.761 453.079 527.279 453.423 526.64C453.777 526.01 453.954 525.234 453.954 524.309V512.066L454.205 508.555ZM443.215 516.713V516.403C443.215 515.183 443.358 514.077 443.643 513.084C443.938 512.081 444.356 511.22 444.897 510.503C445.448 509.785 446.111 509.234 446.888 508.85C447.665 508.457 448.54 508.26 449.514 508.26C450.517 508.26 451.392 508.437 452.14 508.791C452.897 509.136 453.536 509.642 454.057 510.311C454.588 510.97 455.006 511.766 455.311 512.7C455.616 513.635 455.827 514.692 455.945 515.872V517.229C455.837 518.399 455.626 519.451 455.311 520.386C455.006 521.32 454.588 522.116 454.057 522.775C453.536 523.434 452.897 523.94 452.14 524.294C451.382 524.639 450.497 524.811 449.484 524.811C448.531 524.811 447.665 524.609 446.888 524.206C446.121 523.803 445.462 523.237 444.912 522.51C444.361 521.782 443.938 520.926 443.643 519.943C443.358 518.95 443.215 517.873 443.215 516.713ZM445.944 516.403V516.713C445.944 517.509 446.023 518.257 446.18 518.955C446.347 519.653 446.598 520.268 446.933 520.799C447.277 521.33 447.714 521.748 448.245 522.052C448.776 522.347 449.411 522.495 450.148 522.495C451.053 522.495 451.8 522.303 452.39 521.92C452.98 521.536 453.447 521.03 453.792 520.4C454.146 519.771 454.421 519.087 454.618 518.35V514.795C454.51 514.254 454.342 513.733 454.116 513.231C453.9 512.72 453.615 512.268 453.261 511.874C452.916 511.471 452.489 511.152 451.977 510.916C451.466 510.68 450.866 510.562 450.178 510.562C449.43 510.562 448.786 510.719 448.245 511.034C447.714 511.338 447.277 511.761 446.933 512.302C446.598 512.833 446.347 513.453 446.18 514.161C446.023 514.859 445.944 515.606 445.944 516.403ZM463.793 501.859V524.516H461.049V501.859H463.793ZM474.797 524.811C473.685 524.811 472.677 524.624 471.773 524.25C470.878 523.867 470.106 523.331 469.457 522.642C468.818 521.954 468.326 521.138 467.982 520.194C467.638 519.25 467.466 518.217 467.466 517.096V516.477C467.466 515.179 467.657 514.023 468.041 513.01C468.424 511.987 468.946 511.122 469.604 510.414C470.263 509.706 471.011 509.17 471.847 508.806C472.682 508.442 473.548 508.26 474.443 508.26C475.583 508.26 476.567 508.457 477.393 508.85C478.229 509.244 478.912 509.795 479.443 510.503C479.974 511.201 480.368 512.027 480.623 512.981C480.879 513.925 481.007 514.957 481.007 516.078V517.303H469.088V515.075H478.278V514.869C478.239 514.161 478.091 513.472 477.835 512.804C477.589 512.135 477.196 511.584 476.655 511.152C476.114 510.719 475.377 510.503 474.443 510.503C473.823 510.503 473.253 510.635 472.732 510.901C472.21 511.156 471.763 511.54 471.389 512.051C471.016 512.563 470.725 513.187 470.519 513.925C470.312 514.662 470.209 515.513 470.209 516.477V517.096C470.209 517.853 470.312 518.566 470.519 519.235C470.735 519.894 471.045 520.474 471.448 520.976C471.861 521.477 472.358 521.87 472.938 522.156C473.528 522.441 474.197 522.583 474.944 522.583C475.908 522.583 476.724 522.387 477.393 521.993C478.062 521.6 478.647 521.074 479.148 520.415L480.8 521.728C480.456 522.249 480.018 522.746 479.487 523.218C478.956 523.69 478.302 524.073 477.526 524.368C476.759 524.663 475.849 524.811 474.797 524.811ZM492.527 516.093H486.789V513.777H492.527C493.638 513.777 494.538 513.6 495.226 513.246C495.915 512.892 496.416 512.4 496.731 511.771C497.056 511.142 497.218 510.424 497.218 509.618C497.218 508.88 497.056 508.187 496.731 507.538C496.416 506.889 495.915 506.367 495.226 505.974C494.538 505.571 493.638 505.369 492.527 505.369H487.453V524.516H484.606V503.039H492.527C494.15 503.039 495.521 503.319 496.643 503.879C497.764 504.44 498.614 505.217 499.194 506.21C499.775 507.193 500.065 508.319 500.065 509.588C500.065 510.965 499.775 512.14 499.194 513.113C498.614 514.087 497.764 514.829 496.643 515.341C495.521 515.842 494.15 516.093 492.527 516.093ZM512.485 521.787V513.571C512.485 512.941 512.357 512.396 512.101 511.933C511.855 511.461 511.482 511.097 510.98 510.842C510.479 510.586 509.859 510.458 509.122 510.458C508.433 510.458 507.828 510.576 507.307 510.812C506.796 511.048 506.393 511.358 506.098 511.742C505.813 512.125 505.67 512.538 505.67 512.981H502.941C502.941 512.41 503.089 511.845 503.384 511.284C503.679 510.724 504.101 510.217 504.652 509.765C505.213 509.303 505.881 508.939 506.658 508.673C507.445 508.398 508.32 508.26 509.284 508.26C510.444 508.26 511.467 508.457 512.352 508.85C513.247 509.244 513.945 509.839 514.447 510.635C514.958 511.422 515.214 512.41 515.214 513.6V521.035C515.214 521.566 515.258 522.131 515.346 522.731C515.445 523.331 515.587 523.847 515.774 524.28V524.516H512.927C512.79 524.201 512.681 523.783 512.603 523.262C512.524 522.731 512.485 522.239 512.485 521.787ZM512.957 514.839L512.986 516.757H510.228C509.451 516.757 508.758 516.821 508.148 516.949C507.538 517.067 507.027 517.249 506.614 517.494C506.201 517.74 505.886 518.05 505.67 518.424C505.454 518.788 505.345 519.215 505.345 519.707C505.345 520.209 505.459 520.666 505.685 521.079C505.911 521.492 506.25 521.821 506.703 522.067C507.165 522.303 507.73 522.421 508.399 522.421C509.235 522.421 509.972 522.244 510.611 521.89C511.251 521.536 511.757 521.103 512.131 520.592C512.514 520.081 512.721 519.584 512.75 519.102L513.916 520.415C513.847 520.828 513.66 521.285 513.355 521.787C513.05 522.288 512.642 522.77 512.131 523.232C511.629 523.685 511.029 524.063 510.331 524.368C509.643 524.663 508.866 524.811 508.001 524.811C506.919 524.811 505.97 524.599 505.154 524.176C504.347 523.754 503.718 523.188 503.266 522.48C502.823 521.762 502.602 520.961 502.602 520.076C502.602 519.22 502.769 518.468 503.103 517.819C503.438 517.16 503.92 516.614 504.549 516.182C505.178 515.739 505.935 515.405 506.821 515.179C507.706 514.952 508.694 514.839 509.785 514.839H512.957ZM523.754 522.864L528.194 508.555H531.115L524.713 526.979C524.566 527.372 524.369 527.795 524.123 528.248C523.887 528.71 523.582 529.147 523.209 529.56C522.835 529.974 522.383 530.308 521.852 530.564C521.33 530.829 520.706 530.962 519.978 530.962C519.762 530.962 519.487 530.932 519.152 530.873C518.818 530.814 518.582 530.765 518.444 530.726L518.429 528.513C518.508 528.523 518.631 528.533 518.798 528.543C518.975 528.562 519.098 528.572 519.167 528.572C519.786 528.572 520.313 528.489 520.745 528.321C521.178 528.164 521.542 527.894 521.837 527.51C522.142 527.136 522.402 526.62 522.619 525.961L523.754 522.864ZM520.494 508.555L524.639 520.946L525.347 523.822L523.386 524.826L517.515 508.555H520.494ZM550.483 521.787V513.571C550.483 512.941 550.355 512.396 550.099 511.933C549.853 511.461 549.48 511.097 548.978 510.842C548.477 510.586 547.857 510.458 547.12 510.458C546.431 510.458 545.826 510.576 545.305 510.812C544.794 511.048 544.391 511.358 544.096 511.742C543.81 512.125 543.668 512.538 543.668 512.981H540.939C540.939 512.41 541.086 511.845 541.382 511.284C541.677 510.724 542.099 510.217 542.65 509.765C543.211 509.303 543.879 508.939 544.656 508.673C545.443 508.398 546.318 508.26 547.282 508.26C548.442 508.26 549.465 508.457 550.35 508.85C551.245 509.244 551.943 509.839 552.445 510.635C552.956 511.422 553.212 512.41 553.212 513.6V521.035C553.212 521.566 553.256 522.131 553.344 522.731C553.443 523.331 553.585 523.847 553.772 524.28V524.516H550.925C550.788 524.201 550.679 523.783 550.601 523.262C550.522 522.731 550.483 522.239 550.483 521.787ZM550.955 514.839L550.984 516.757H548.226C547.449 516.757 546.756 516.821 546.146 516.949C545.536 517.067 545.025 517.249 544.612 517.494C544.199 517.74 543.884 518.05 543.668 518.424C543.452 518.788 543.343 519.215 543.343 519.707C543.343 520.209 543.456 520.666 543.683 521.079C543.909 521.492 544.248 521.821 544.7 522.067C545.163 522.303 545.728 522.421 546.397 522.421C547.233 522.421 547.97 522.244 548.609 521.89C549.249 521.536 549.755 521.103 550.129 520.592C550.512 520.081 550.719 519.584 550.748 519.102L551.914 520.415C551.845 520.828 551.658 521.285 551.353 521.787C551.048 522.288 550.64 522.77 550.129 523.232C549.627 523.685 549.027 524.063 548.329 524.368C547.641 524.663 546.864 524.811 545.998 524.811C544.917 524.811 543.968 524.599 543.152 524.176C542.345 523.754 541.716 523.188 541.263 522.48C540.821 521.762 540.6 520.961 540.6 520.076C540.6 519.22 540.767 518.468 541.101 517.819C541.436 517.16 541.917 516.614 542.547 516.182C543.176 515.739 543.933 515.405 544.818 515.179C545.703 514.952 546.692 514.839 547.783 514.839H550.955ZM560.469 501.859V524.516H557.725V501.859H560.469ZM574.143 520.282C574.143 519.889 574.054 519.525 573.877 519.191C573.71 518.847 573.361 518.537 572.83 518.261C572.309 517.976 571.522 517.73 570.47 517.524C569.585 517.337 568.783 517.116 568.066 516.86C567.358 516.604 566.753 516.295 566.251 515.931C565.76 515.567 565.381 515.139 565.115 514.648C564.85 514.156 564.717 513.581 564.717 512.922C564.717 512.292 564.855 511.697 565.13 511.137C565.415 510.576 565.814 510.08 566.325 509.647C566.846 509.214 567.471 508.875 568.198 508.629C568.926 508.383 569.737 508.26 570.632 508.26C571.911 508.26 573.002 508.487 573.907 508.939C574.812 509.391 575.505 509.996 575.987 510.753C576.469 511.501 576.709 512.332 576.709 513.246H573.981C573.981 512.804 573.848 512.376 573.582 511.963C573.327 511.54 572.948 511.191 572.447 510.916C571.955 510.64 571.35 510.503 570.632 510.503C569.875 510.503 569.26 510.621 568.788 510.857C568.326 511.083 567.987 511.373 567.771 511.727C567.564 512.081 567.461 512.455 567.461 512.848C567.461 513.143 567.51 513.408 567.608 513.644C567.716 513.871 567.903 514.082 568.169 514.279C568.434 514.466 568.808 514.643 569.29 514.81C569.772 514.977 570.386 515.144 571.134 515.311C572.442 515.606 573.518 515.96 574.364 516.373C575.21 516.786 575.839 517.293 576.252 517.893C576.665 518.493 576.872 519.22 576.872 520.076C576.872 520.774 576.724 521.413 576.429 521.993C576.144 522.574 575.726 523.075 575.175 523.498C574.635 523.911 573.986 524.235 573.228 524.471C572.481 524.698 571.64 524.811 570.706 524.811C569.3 524.811 568.11 524.56 567.136 524.058C566.163 523.557 565.425 522.908 564.924 522.111C564.422 521.315 564.171 520.474 564.171 519.589H566.915C566.954 520.336 567.171 520.931 567.564 521.374C567.957 521.807 568.439 522.116 569.01 522.303C569.58 522.48 570.145 522.569 570.706 522.569C571.453 522.569 572.078 522.47 572.579 522.274C573.091 522.077 573.479 521.807 573.745 521.462C574.01 521.118 574.143 520.725 574.143 520.282ZM579.733 516.713V516.373C579.733 515.223 579.901 514.156 580.235 513.172C580.569 512.179 581.051 511.319 581.681 510.591C582.31 509.854 583.072 509.283 583.967 508.88C584.862 508.467 585.865 508.26 586.976 508.26C588.097 508.26 589.105 508.467 590 508.88C590.905 509.283 591.672 509.854 592.301 510.591C592.94 511.319 593.427 512.179 593.761 513.172C594.096 514.156 594.263 515.223 594.263 516.373V516.713C594.263 517.863 594.096 518.93 593.761 519.914C593.427 520.897 592.94 521.757 592.301 522.495C591.672 523.223 590.91 523.793 590.015 524.206C589.13 524.609 588.127 524.811 587.006 524.811C585.884 524.811 584.876 524.609 583.982 524.206C583.087 523.793 582.32 523.223 581.681 522.495C581.051 521.757 580.569 520.897 580.235 519.914C579.901 518.93 579.733 517.863 579.733 516.713ZM582.462 516.373V516.713C582.462 517.509 582.556 518.261 582.743 518.969C582.929 519.668 583.21 520.287 583.583 520.828C583.967 521.369 584.444 521.797 585.014 522.111C585.585 522.416 586.248 522.569 587.006 522.569C587.753 522.569 588.407 522.416 588.967 522.111C589.538 521.797 590.01 521.369 590.383 520.828C590.757 520.287 591.037 519.668 591.224 518.969C591.421 518.261 591.519 517.509 591.519 516.713V516.373C591.519 515.587 591.421 514.844 591.224 514.146C591.037 513.438 590.752 512.813 590.369 512.273C589.995 511.722 589.523 511.289 588.953 510.975C588.392 510.66 587.733 510.503 586.976 510.503C586.229 510.503 585.57 510.66 584.999 510.975C584.439 511.289 583.967 511.722 583.583 512.273C583.21 512.813 582.929 513.438 582.743 514.146C582.556 514.844 582.462 515.587 582.462 516.373ZM614.589 521.787V513.571C614.589 512.941 614.462 512.396 614.206 511.933C613.96 511.461 613.586 511.097 613.085 510.842C612.583 510.586 611.964 510.458 611.226 510.458C610.538 510.458 609.933 510.576 609.412 510.812C608.901 511.048 608.497 511.358 608.202 511.742C607.917 512.125 607.775 512.538 607.775 512.981H605.046C605.046 512.41 605.193 511.845 605.488 511.284C605.783 510.724 606.206 510.217 606.757 509.765C607.317 509.303 607.986 508.939 608.763 508.673C609.55 508.398 610.425 508.26 611.388 508.26C612.549 508.26 613.572 508.457 614.457 508.85C615.352 509.244 616.05 509.839 616.551 510.635C617.063 511.422 617.318 512.41 617.318 513.6V521.035C617.318 521.566 617.363 522.131 617.451 522.731C617.549 523.331 617.692 523.847 617.879 524.28V524.516H615.032C614.894 524.201 614.786 523.783 614.707 523.262C614.629 522.731 614.589 522.239 614.589 521.787ZM615.061 514.839L615.091 516.757H612.333C611.556 516.757 610.862 516.821 610.253 516.949C609.643 517.067 609.132 517.249 608.719 517.494C608.306 517.74 607.991 518.05 607.775 518.424C607.558 518.788 607.45 519.215 607.45 519.707C607.45 520.209 607.563 520.666 607.789 521.079C608.015 521.492 608.355 521.821 608.807 522.067C609.269 522.303 609.835 522.421 610.503 522.421C611.339 522.421 612.077 522.244 612.716 521.89C613.355 521.536 613.862 521.103 614.235 520.592C614.619 520.081 614.825 519.584 614.855 519.102L616.02 520.415C615.951 520.828 615.765 521.285 615.46 521.787C615.155 522.288 614.747 522.77 614.235 523.232C613.734 523.685 613.134 524.063 612.436 524.368C611.747 524.663 610.971 524.811 610.105 524.811C609.023 524.811 608.074 524.599 607.258 524.176C606.452 523.754 605.823 523.188 605.37 522.48C604.928 521.762 604.706 520.961 604.706 520.076C604.706 519.22 604.874 518.468 605.208 517.819C605.542 517.16 606.024 516.614 606.653 516.182C607.283 515.739 608.04 515.405 608.925 515.179C609.81 514.952 610.798 514.839 611.89 514.839H615.061ZM626.228 522.052L630.594 508.555H633.382L627.644 524.516H625.815L626.228 522.052ZM622.584 508.555L627.083 522.126L627.393 524.516H625.564L619.782 508.555H622.584ZM645.182 521.787V513.571C645.182 512.941 645.055 512.396 644.799 511.933C644.553 511.461 644.179 511.097 643.678 510.842C643.176 510.586 642.557 510.458 641.819 510.458C641.131 510.458 640.526 510.576 640.005 510.812C639.494 511.048 639.09 511.358 638.795 511.742C638.51 512.125 638.368 512.538 638.368 512.981H635.639C635.639 512.41 635.786 511.845 636.081 511.284C636.376 510.724 636.799 510.217 637.35 509.765C637.91 509.303 638.579 508.939 639.356 508.673C640.143 508.398 641.018 508.26 641.982 508.26C643.142 508.26 644.165 508.457 645.05 508.85C645.945 509.244 646.643 509.839 647.144 510.635C647.656 511.422 647.911 512.41 647.911 513.6V521.035C647.911 521.566 647.956 522.131 648.044 522.731C648.142 523.331 648.285 523.847 648.472 524.28V524.516H645.625C645.487 524.201 645.379 523.783 645.3 523.262C645.222 522.731 645.182 522.239 645.182 521.787ZM645.654 514.839L645.684 516.757H642.926C642.149 516.757 641.455 516.821 640.846 516.949C640.236 517.067 639.725 517.249 639.312 517.494C638.899 517.74 638.584 518.05 638.368 518.424C638.151 518.788 638.043 519.215 638.043 519.707C638.043 520.209 638.156 520.666 638.382 521.079C638.609 521.492 638.948 521.821 639.4 522.067C639.862 522.303 640.428 522.421 641.096 522.421C641.932 522.421 642.67 522.244 643.309 521.89C643.948 521.536 644.455 521.103 644.828 520.592C645.212 520.081 645.418 519.584 645.448 519.102L646.613 520.415C646.544 520.828 646.358 521.285 646.053 521.787C645.748 522.288 645.34 522.77 644.828 523.232C644.327 523.685 643.727 524.063 643.029 524.368C642.34 524.663 641.564 524.811 640.698 524.811C639.616 524.811 638.668 524.599 637.851 524.176C637.045 523.754 636.416 523.188 635.963 522.48C635.521 521.762 635.299 520.961 635.299 520.076C635.299 519.22 635.467 518.468 635.801 517.819C636.135 517.16 636.617 516.614 637.247 516.182C637.876 515.739 638.633 515.405 639.518 515.179C640.403 514.952 641.391 514.839 642.483 514.839H645.654ZM655.169 508.555V524.516H652.425V508.555H655.169ZM652.219 504.322C652.219 503.879 652.351 503.506 652.617 503.201C652.892 502.896 653.295 502.744 653.826 502.744C654.348 502.744 654.746 502.896 655.021 503.201C655.306 503.506 655.449 503.879 655.449 504.322C655.449 504.745 655.306 505.109 655.021 505.414C654.746 505.709 654.348 505.856 653.826 505.856C653.295 505.856 652.892 505.709 652.617 505.414C652.351 505.109 652.219 504.745 652.219 504.322ZM662.515 501.859V524.516H659.771V501.859H662.515ZM676.306 521.787V513.571C676.306 512.941 676.179 512.396 675.923 511.933C675.677 511.461 675.303 511.097 674.802 510.842C674.3 510.586 673.681 510.458 672.943 510.458C672.255 510.458 671.65 510.576 671.129 510.812C670.618 511.048 670.214 511.358 669.919 511.742C669.634 512.125 669.492 512.538 669.492 512.981H666.763C666.763 512.41 666.91 511.845 667.205 511.284C667.5 510.724 667.923 510.217 668.474 509.765C669.034 509.303 669.703 508.939 670.48 508.673C671.267 508.398 672.142 508.26 673.106 508.26C674.266 508.26 675.289 508.457 676.174 508.85C677.069 509.244 677.767 509.839 678.268 510.635C678.78 511.422 679.035 512.41 679.035 513.6V521.035C679.035 521.566 679.08 522.131 679.168 522.731C679.266 523.331 679.409 523.847 679.596 524.28V524.516H676.749C676.611 524.201 676.503 523.783 676.424 523.262C676.346 522.731 676.306 522.239 676.306 521.787ZM676.778 514.839L676.808 516.757H674.05C673.273 516.757 672.579 516.821 671.97 516.949C671.36 517.067 670.849 517.249 670.436 517.494C670.023 517.74 669.708 518.05 669.492 518.424C669.275 518.788 669.167 519.215 669.167 519.707C669.167 520.209 669.28 520.666 669.506 521.079C669.733 521.492 670.072 521.821 670.524 522.067C670.986 522.303 671.552 522.421 672.221 522.421C673.056 522.421 673.794 522.244 674.433 521.89C675.072 521.536 675.579 521.103 675.952 520.592C676.336 520.081 676.542 519.584 676.572 519.102L677.737 520.415C677.668 520.828 677.482 521.285 677.177 521.787C676.872 522.288 676.464 522.77 675.952 523.232C675.451 523.685 674.851 524.063 674.153 524.368C673.464 524.663 672.688 524.811 671.822 524.811C670.741 524.811 669.792 524.599 668.975 524.176C668.169 523.754 667.54 523.188 667.087 522.48C666.645 521.762 666.423 520.961 666.423 520.076C666.423 519.22 666.591 518.468 666.925 517.819C667.259 517.16 667.741 516.614 668.371 516.182C669 515.739 669.757 515.405 670.642 515.179C671.527 514.952 672.516 514.839 673.607 514.839H676.778ZM683.313 501.859H686.057V521.418L685.821 524.516H683.313V501.859ZM696.839 516.403V516.713C696.839 517.873 696.702 518.95 696.426 519.943C696.151 520.926 695.748 521.782 695.217 522.51C694.686 523.237 694.037 523.803 693.27 524.206C692.503 524.609 691.623 524.811 690.629 524.811C689.617 524.811 688.727 524.639 687.96 524.294C687.202 523.94 686.563 523.434 686.042 522.775C685.521 522.116 685.103 521.32 684.788 520.386C684.483 519.451 684.272 518.399 684.154 517.229V515.872C684.272 514.692 684.483 513.635 684.788 512.7C685.103 511.766 685.521 510.97 686.042 510.311C686.563 509.642 687.202 509.136 687.96 508.791C688.717 508.437 689.597 508.26 690.6 508.26C691.603 508.26 692.493 508.457 693.27 508.85C694.047 509.234 694.696 509.785 695.217 510.503C695.748 511.22 696.151 512.081 696.426 513.084C696.702 514.077 696.839 515.183 696.839 516.403ZM694.096 516.713V516.403C694.096 515.606 694.022 514.859 693.875 514.161C693.727 513.453 693.491 512.833 693.167 512.302C692.842 511.761 692.414 511.338 691.883 511.034C691.352 510.719 690.698 510.562 689.921 510.562C689.233 510.562 688.633 510.68 688.122 510.916C687.62 511.152 687.193 511.471 686.838 511.874C686.484 512.268 686.194 512.72 685.968 513.231C685.752 513.733 685.59 514.254 685.481 514.795V518.35C685.639 519.038 685.894 519.702 686.248 520.341C686.612 520.971 687.094 521.487 687.694 521.89C688.304 522.293 689.056 522.495 689.951 522.495C690.688 522.495 691.318 522.347 691.839 522.052C692.37 521.748 692.798 521.33 693.122 520.799C693.457 520.268 693.702 519.653 693.86 518.955C694.017 518.257 694.096 517.509 694.096 516.713ZM703.256 501.859V524.516H700.512V501.859H703.256ZM714.26 524.811C713.149 524.811 712.141 524.624 711.236 524.25C710.341 523.867 709.569 523.331 708.92 522.642C708.281 521.954 707.789 521.138 707.445 520.194C707.101 519.25 706.929 518.217 706.929 517.096V516.477C706.929 515.179 707.121 514.023 707.504 513.01C707.888 511.987 708.409 511.122 709.068 510.414C709.727 509.706 710.474 509.17 711.31 508.806C712.146 508.442 713.011 508.26 713.906 508.26C715.047 508.26 716.03 508.457 716.856 508.85C717.692 509.244 718.376 509.795 718.907 510.503C719.438 511.201 719.831 512.027 720.087 512.981C720.342 513.925 720.47 514.957 720.47 516.078V517.303H708.552V515.075H717.741V514.869C717.702 514.161 717.554 513.472 717.299 512.804C717.053 512.135 716.66 511.584 716.119 511.152C715.578 510.719 714.84 510.503 713.906 510.503C713.287 510.503 712.716 510.635 712.195 510.901C711.674 511.156 711.226 511.54 710.853 512.051C710.479 512.563 710.189 513.187 709.982 513.925C709.776 514.662 709.673 515.513 709.673 516.477V517.096C709.673 517.853 709.776 518.566 709.982 519.235C710.199 519.894 710.508 520.474 710.912 520.976C711.325 521.477 711.821 521.87 712.401 522.156C712.992 522.441 713.66 522.583 714.408 522.583C715.371 522.583 716.188 522.387 716.856 521.993C717.525 521.6 718.11 521.074 718.612 520.415L720.264 521.728C719.919 522.249 719.482 522.746 718.951 523.218C718.42 523.69 717.766 524.073 716.989 524.368C716.222 524.663 715.312 524.811 714.26 524.811ZM735.191 521.684L739.292 508.555H741.092L740.738 511.166L736.563 524.516H734.808L735.191 521.684ZM732.433 508.555L735.929 521.831L736.18 524.516H734.336L729.704 508.555H732.433ZM745.015 521.728L748.349 508.555H751.063L746.431 524.516H744.602L745.015 521.728ZM741.49 508.555L745.502 521.462L745.959 524.516H744.219L739.926 511.137L739.572 508.555H741.49ZM756.831 508.555V524.516H754.087V508.555H756.831ZM753.881 504.322C753.881 503.879 754.013 503.506 754.279 503.201C754.554 502.896 754.957 502.744 755.488 502.744C756.01 502.744 756.408 502.896 756.683 503.201C756.968 503.506 757.111 503.879 757.111 504.322C757.111 504.745 756.968 505.109 756.683 505.414C756.408 505.709 756.01 505.856 755.488 505.856C754.957 505.856 754.554 505.709 754.279 505.414C754.013 505.109 753.881 504.745 753.881 504.322ZM767.894 508.555V510.65H759.265V508.555H767.894ZM762.185 504.676H764.914V520.563C764.914 521.103 764.998 521.512 765.165 521.787C765.332 522.062 765.548 522.244 765.814 522.333C766.079 522.421 766.365 522.465 766.669 522.465C766.896 522.465 767.132 522.446 767.377 522.406C767.633 522.357 767.825 522.318 767.953 522.288L767.968 524.516C767.751 524.585 767.466 524.649 767.112 524.708C766.768 524.776 766.35 524.811 765.858 524.811C765.189 524.811 764.575 524.678 764.014 524.412C763.454 524.147 763.006 523.704 762.672 523.085C762.347 522.456 762.185 521.61 762.185 520.548V504.676ZM773.824 501.859V524.516H771.095V501.859H773.824ZM773.175 515.931L772.039 515.887C772.049 514.795 772.211 513.787 772.526 512.863C772.84 511.928 773.283 511.117 773.853 510.429C774.423 509.74 775.102 509.209 775.889 508.836C776.685 508.452 777.565 508.26 778.529 508.26C779.316 508.26 780.024 508.369 780.653 508.585C781.283 508.791 781.818 509.126 782.261 509.588C782.713 510.05 783.058 510.65 783.294 511.388C783.53 512.115 783.648 513.005 783.648 514.057V524.516H780.904V514.028C780.904 513.192 780.781 512.523 780.535 512.022C780.289 511.511 779.93 511.142 779.458 510.916C778.986 510.68 778.406 510.562 777.718 510.562C777.039 510.562 776.42 510.704 775.859 510.989C775.308 511.275 774.832 511.668 774.428 512.169C774.035 512.671 773.725 513.246 773.499 513.895C773.283 514.534 773.175 515.213 773.175 515.931ZM802.986 503.039V524.516H800.183V503.039H802.986ZM809.889 503.039V505.369H793.295V503.039H809.889ZM814.27 511.063V524.516H811.541V508.555H814.196L814.27 511.063ZM819.256 508.467L819.241 511.004C819.015 510.955 818.799 510.925 818.592 510.916C818.395 510.896 818.169 510.886 817.913 510.886C817.284 510.886 816.728 510.984 816.247 511.181C815.765 511.378 815.357 511.653 815.022 512.007C814.688 512.361 814.422 512.784 814.226 513.276C814.039 513.758 813.916 514.289 813.857 514.869L813.09 515.311C813.09 514.348 813.183 513.443 813.37 512.597C813.567 511.751 813.867 511.004 814.27 510.355C814.673 509.696 815.185 509.185 815.804 508.821C816.433 508.447 817.181 508.26 818.046 508.26C818.243 508.26 818.469 508.285 818.725 508.334C818.98 508.374 819.157 508.418 819.256 508.467ZM830.599 521.787V513.571C830.599 512.941 830.471 512.396 830.216 511.933C829.97 511.461 829.596 511.097 829.095 510.842C828.593 510.586 827.973 510.458 827.236 510.458C826.548 510.458 825.943 510.576 825.422 510.812C824.91 511.048 824.507 511.358 824.212 511.742C823.927 512.125 823.784 512.538 823.784 512.981H821.055C821.055 512.41 821.203 511.845 821.498 511.284C821.793 510.724 822.216 510.217 822.766 509.765C823.327 509.303 823.996 508.939 824.773 508.673C825.559 508.398 826.434 508.26 827.398 508.26C828.559 508.26 829.581 508.457 830.466 508.85C831.361 509.244 832.059 509.839 832.561 510.635C833.072 511.422 833.328 512.41 833.328 513.6V521.035C833.328 521.566 833.372 522.131 833.461 522.731C833.559 523.331 833.702 523.847 833.889 524.28V524.516H831.042C830.904 524.201 830.796 523.783 830.717 523.262C830.638 522.731 830.599 522.239 830.599 521.787ZM831.071 514.839L831.101 516.757H828.342C827.565 516.757 826.872 516.821 826.262 516.949C825.653 517.067 825.141 517.249 824.728 517.494C824.315 517.74 824.001 518.05 823.784 518.424C823.568 518.788 823.46 519.215 823.46 519.707C823.46 520.209 823.573 520.666 823.799 521.079C824.025 521.492 824.364 521.821 824.817 522.067C825.279 522.303 825.844 522.421 826.513 522.421C827.349 522.421 828.087 522.244 828.726 521.89C829.365 521.536 829.871 521.103 830.245 520.592C830.629 520.081 830.835 519.584 830.865 519.102L832.03 520.415C831.961 520.828 831.774 521.285 831.469 521.787C831.165 522.288 830.756 522.77 830.245 523.232C829.744 523.685 829.144 524.063 828.445 524.368C827.757 524.663 826.98 524.811 826.115 524.811C825.033 524.811 824.084 524.599 823.268 524.176C822.462 523.754 821.832 523.188 821.38 522.48C820.937 521.762 820.716 520.961 820.716 520.076C820.716 519.22 820.883 518.468 821.218 517.819C821.552 517.16 822.034 516.614 822.663 516.182C823.293 515.739 824.05 515.405 824.935 515.179C825.82 514.952 826.808 514.839 827.9 514.839H831.071ZM840.349 511.963V524.516H837.62V508.555H840.202L840.349 511.963ZM839.7 515.931L838.564 515.887C838.574 514.795 838.737 513.787 839.051 512.863C839.366 511.928 839.808 511.117 840.379 510.429C840.949 509.74 841.628 509.209 842.414 508.836C843.211 508.452 844.091 508.26 845.055 508.26C845.842 508.26 846.55 508.369 847.179 508.585C847.808 508.791 848.344 509.126 848.787 509.588C849.239 510.05 849.583 510.65 849.819 511.388C850.055 512.115 850.173 513.005 850.173 514.057V524.516H847.43V514.028C847.43 513.192 847.307 512.523 847.061 512.022C846.815 511.511 846.456 511.142 845.984 510.916C845.512 510.68 844.932 510.562 844.244 510.562C843.565 510.562 842.945 510.704 842.385 510.989C841.834 511.275 841.357 511.668 840.954 512.169C840.561 512.671 840.251 513.246 840.025 513.895C839.808 514.534 839.7 515.213 839.7 515.931ZM863.611 520.282C863.611 519.889 863.523 519.525 863.346 519.191C863.179 518.847 862.829 518.537 862.298 518.261C861.777 517.976 860.991 517.73 859.938 517.524C859.053 517.337 858.252 517.116 857.534 516.86C856.826 516.604 856.221 516.295 855.72 515.931C855.228 515.567 854.849 515.139 854.584 514.648C854.318 514.156 854.186 513.581 854.186 512.922C854.186 512.292 854.323 511.697 854.599 511.137C854.884 510.576 855.282 510.08 855.793 509.647C856.315 509.214 856.939 508.875 857.667 508.629C858.394 508.383 859.206 508.26 860.101 508.26C861.379 508.26 862.471 508.487 863.375 508.939C864.28 509.391 864.973 509.996 865.455 510.753C865.937 511.501 866.178 512.332 866.178 513.246H863.449C863.449 512.804 863.316 512.376 863.051 511.963C862.795 511.54 862.416 511.191 861.915 510.916C861.423 510.64 860.818 510.503 860.101 510.503C859.343 510.503 858.729 510.621 858.257 510.857C857.795 511.083 857.455 511.373 857.239 511.727C857.032 512.081 856.929 512.455 856.929 512.848C856.929 513.143 856.978 513.408 857.077 513.644C857.185 513.871 857.372 514.082 857.637 514.279C857.903 514.466 858.276 514.643 858.758 514.81C859.24 514.977 859.855 515.144 860.602 515.311C861.91 515.606 862.987 515.96 863.833 516.373C864.678 516.786 865.308 517.293 865.721 517.893C866.134 518.493 866.34 519.22 866.34 520.076C866.34 520.774 866.193 521.413 865.898 521.993C865.612 522.574 865.195 523.075 864.644 523.498C864.103 523.911 863.454 524.235 862.697 524.471C861.949 524.698 861.109 524.811 860.174 524.811C858.768 524.811 857.578 524.56 856.605 524.058C855.631 523.557 854.894 522.908 854.392 522.111C853.891 521.315 853.64 520.474 853.64 519.589H856.383C856.423 520.336 856.639 520.931 857.032 521.374C857.426 521.807 857.908 522.116 858.478 522.303C859.048 522.48 859.614 522.569 860.174 522.569C860.922 522.569 861.546 522.47 862.048 522.274C862.559 522.077 862.947 521.807 863.213 521.462C863.479 521.118 863.611 520.725 863.611 520.282ZM879.336 521.787V513.571C879.336 512.941 879.208 512.396 878.952 511.933C878.706 511.461 878.332 511.097 877.831 510.842C877.329 510.586 876.71 510.458 875.972 510.458C875.284 510.458 874.679 510.576 874.158 510.812C873.647 511.048 873.243 511.358 872.948 511.742C872.663 512.125 872.521 512.538 872.521 512.981H869.792C869.792 512.41 869.939 511.845 870.234 511.284C870.529 510.724 870.952 510.217 871.503 509.765C872.063 509.303 872.732 508.939 873.509 508.673C874.296 508.398 875.171 508.26 876.135 508.26C877.295 508.26 878.318 508.457 879.203 508.85C880.098 509.244 880.796 509.839 881.297 510.635C881.809 511.422 882.064 512.41 882.064 513.6V521.035C882.064 521.566 882.109 522.131 882.197 522.731C882.296 523.331 882.438 523.847 882.625 524.28V524.516H879.778C879.64 524.201 879.532 523.783 879.454 523.262C879.375 522.731 879.336 522.239 879.336 521.787ZM879.808 514.839L879.837 516.757H877.079C876.302 516.757 875.609 516.821 874.999 516.949C874.389 517.067 873.878 517.249 873.465 517.494C873.052 517.74 872.737 518.05 872.521 518.424C872.304 518.788 872.196 519.215 872.196 519.707C872.196 520.209 872.309 520.666 872.535 521.079C872.762 521.492 873.101 521.821 873.553 522.067C874.015 522.303 874.581 522.421 875.25 522.421C876.085 522.421 876.823 522.244 877.462 521.89C878.101 521.536 878.608 521.103 878.982 520.592C879.365 520.081 879.572 519.584 879.601 519.102L880.766 520.415C880.698 520.828 880.511 521.285 880.206 521.787C879.901 522.288 879.493 522.77 878.982 523.232C878.48 523.685 877.88 524.063 877.182 524.368C876.494 524.663 875.717 524.811 874.851 524.811C873.77 524.811 872.821 524.599 872.004 524.176C871.198 523.754 870.569 523.188 870.116 522.48C869.674 521.762 869.453 520.961 869.453 520.076C869.453 519.22 869.62 518.468 869.954 517.819C870.288 517.16 870.77 516.614 871.4 516.182C872.029 515.739 872.786 515.405 873.671 515.179C874.556 514.952 875.545 514.839 876.636 514.839H879.808ZM889.101 501.859V524.516H886.357V501.859H889.101ZM898.851 508.555L891.888 516.005L887.994 520.046L887.773 517.14L890.561 513.807L895.517 508.555H898.851ZM896.358 524.516L890.664 516.904L892.08 514.47L899.574 524.516H896.358Z" fill="#B6B6B6"/>
<path d="M981.809 448.62L978.26 452.17L989.789 463.725L978.26 475.28L981.809 478.83L996.914 463.725L981.809 448.62Z" fill="#B6B6B6"/>
<rect x="35.2444" y="637.43" width="1012.02" height="241.676" rx="30.2095" fill="#F3F3F3" fill-opacity="0.04"/>
<rect x="65.4539" y="697.849" width="120.838" height="120.838" rx="10.0698" fill="#F3F3F3" fill-opacity="0.08"/>
</g>
</g>
<g clip-path="url(#clip9_2_257)">
<rect width="1132.86" height="1711.87" transform="translate(-12.5873 0.00158691)" fill="#131313"/>
<path d="M701.633 194.564C700.557 195.082 699.411 195.65 698.145 196.298C697.717 196.517 697.238 196.597 696.75 196.567C695.763 196.498 694.767 195.939 694.179 195.033C693.302 193.677 693.691 192.023 695.016 191.345C696.501 190.578 697.866 189.93 699.122 189.282C702.002 187.788 704.852 193.019 701.633 194.574V194.564Z" fill="#EBE9E9" stroke="black" stroke-width="2.51746" stroke-linecap="round" stroke-linejoin="round"/>
<path d="M698.146 196.295C694.01 198.407 690.393 199.095 687.363 199.065C683.925 199.025 681.264 198.059 679.59 197.211C674.956 194.85 671.747 190.275 671.747 185.671C671.747 182.263 673.501 179.323 676.491 177.619C677.517 179.283 678.035 180.12 679.082 181.834C677.607 182.682 677.278 184.156 677.268 185.243C677.238 187.525 678.763 190.714 682.061 192.438C685.639 194.301 690.084 193.893 695.027 191.342C696.213 193.285 696.841 194.272 698.146 196.305V196.295Z" fill="#EBE9E9"/>
<path d="M694.785 197.751C692.035 198.737 689.543 199.096 687.361 199.066C683.923 199.026 681.262 198.059 679.588 197.212C678.641 196.734 677.754 196.146 676.947 195.498C677.704 193.216 678.103 192.08 678.96 189.838C679.727 190.834 680.744 191.751 682.049 192.429C685.627 194.292 690.071 193.884 695.014 191.333C695.014 191.333 696.031 194.103 694.785 197.741V197.751Z" fill="black"/>
<path d="M695.018 191.342C690.085 193.893 685.63 194.302 682.053 192.438C678.754 190.714 677.239 187.525 677.259 185.243C677.269 184.157 677.608 182.682 679.073 181.835" stroke="black" stroke-width="2.51746" stroke-linecap="round" stroke-linejoin="round"/>
<path d="M676.491 177.606C673.501 179.32 671.747 182.26 671.747 185.659C671.747 190.263 674.956 194.837 679.59 197.199C681.264 198.056 683.925 199.022 687.363 199.052C690.393 199.082 694.01 198.395 698.146 196.282" stroke="black" stroke-width="2.51746" stroke-linecap="round" stroke-linejoin="round"/>
<path d="M679.082 181.823C680.477 181.016 682.101 181.604 682.938 182.033C685.38 183.278 687.782 186.497 687.852 190.155C687.921 193.374 686.097 196.224 682.5 198.486C683.775 200.359 684.433 201.316 685.818 203.259C690.961 200.041 693.552 195.486 693.432 190.274C693.313 185.052 690.522 179.87 685.998 177.518C682.879 175.894 679.371 175.954 676.491 177.608C677.517 179.272 678.035 180.109 679.082 181.823Z" fill="#EBE9E9"/>
<path d="M685.818 203.259C690.961 200.041 693.552 195.486 693.432 190.274C693.313 185.052 690.522 179.87 685.998 177.518C682.879 175.894 679.371 175.954 676.491 177.608" stroke="black" stroke-width="2.51746" stroke-linecap="round" stroke-linejoin="round"/>
<path d="M679.082 181.821C680.477 181.013 682.101 181.601 682.939 182.03C685.38 183.276 687.782 186.495 687.852 190.152C687.921 193.371 686.098 196.221 682.5 198.483" stroke="black" stroke-width="2.51746" stroke-linecap="round" stroke-linejoin="round"/>
<path d="M685.818 203.261C681.912 205.703 678.424 206.66 675.464 206.829C672.096 207.028 669.435 206.221 667.731 205.454C663.037 203.351 659.549 198.886 659.22 194.203C658.981 190.744 660.505 187.655 663.346 185.752C664.492 187.386 665.06 188.213 666.216 189.887C664.821 190.834 664.591 192.349 664.661 193.455C664.791 195.777 666.515 198.926 669.863 200.461C673.501 202.125 677.826 201.408 682.5 198.478C683.775 200.351 684.433 201.308 685.818 203.251V203.261Z" fill="#EBE9E9"/>
<path d="M682.629 204.969C679.998 206.165 677.586 206.703 675.463 206.823C672.095 207.022 669.434 206.215 667.73 205.448C666.773 205.019 665.866 204.481 665.029 203.873C665.627 201.511 665.956 200.335 666.654 198.013C667.471 198.98 668.537 199.847 669.863 200.455C673.5 202.119 677.825 201.402 682.499 198.472C682.499 198.472 683.645 201.192 682.629 204.959V204.969Z" fill="black"/>
<path d="M682.499 198.487C677.825 201.417 673.5 202.134 669.862 200.47C666.504 198.935 664.79 195.786 664.66 193.464C664.601 192.358 664.83 190.843 666.215 189.896" stroke="black" stroke-width="2.51746" stroke-linecap="round" stroke-linejoin="round"/>
<path d="M663.346 185.761C660.505 187.665 658.981 190.744 659.22 194.212C659.549 198.896 663.027 203.36 667.731 205.463C669.425 206.221 672.096 207.028 675.464 206.839C678.424 206.669 681.912 205.712 685.818 203.271" stroke="black" stroke-width="2.51746" stroke-linecap="round" stroke-linejoin="round"/>
<path d="M666.215 189.897C667.541 189 669.185 189.498 670.042 189.877C672.544 190.993 675.115 194.092 675.424 197.78C675.693 201.028 674.068 204.038 670.67 206.559C672.025 208.373 672.723 209.3 674.178 211.174C679.041 207.576 681.323 202.772 680.895 197.511C680.466 192.239 677.377 187.206 672.743 185.113C669.544 183.658 666.086 183.917 663.345 185.751C664.491 187.385 665.059 188.213 666.215 189.887V189.897Z" fill="#EBE9E9"/>
<path d="M674.167 211.183C679.03 207.585 681.312 202.782 680.884 197.52C680.455 192.248 677.366 187.216 672.732 185.123C669.533 183.668 666.075 183.927 663.334 185.761" stroke="black" stroke-width="2.51746" stroke-linecap="round" stroke-linejoin="round"/>
<path d="M666.212 189.894C667.537 188.997 669.182 189.496 670.039 189.874C672.54 190.99 675.111 194.09 675.42 197.777C675.689 201.026 674.065 204.035 670.666 206.557" stroke="black" stroke-width="2.51746" stroke-linecap="round" stroke-linejoin="round"/>
<path d="M674.166 211.183C670.469 213.913 667.1 215.099 664.2 215.458C660.902 215.857 658.231 215.189 656.517 214.511C651.763 212.638 648.026 208.273 647.378 203.519C646.9 200.001 648.195 196.792 650.886 194.72C652.142 196.334 652.77 197.151 654.035 198.796C652.72 199.832 652.6 201.387 652.73 202.503C653.019 204.855 654.932 207.974 658.34 209.339C662.038 210.824 666.253 209.838 670.668 206.569C672.023 208.383 672.721 209.309 674.176 211.183H674.166Z" fill="#EBE9E9"/>
<path d="M671.139 213.127C668.627 214.503 666.295 215.2 664.212 215.459C660.914 215.858 658.243 215.19 656.529 214.512C655.562 214.134 654.635 213.635 653.768 213.067C654.227 210.646 654.476 209.44 655.014 207.038C655.891 207.975 656.997 208.792 658.343 209.34C662.04 210.825 666.255 209.839 670.67 206.57C670.67 206.57 671.956 209.251 671.139 213.127Z" fill="black"/>
<path d="M670.671 206.566C666.256 209.835 662.041 210.822 658.344 209.337C654.935 207.971 653.032 204.852 652.733 202.5C652.593 201.384 652.713 199.83 654.038 198.793" stroke="black" stroke-width="2.51746" stroke-linecap="round" stroke-linejoin="round"/>
<path d="M650.887 194.72C648.196 196.792 646.91 200.011 647.379 203.519C648.027 208.273 651.764 212.638 656.517 214.511C658.232 215.189 660.912 215.857 664.201 215.458C667.101 215.109 670.469 213.923 674.167 211.183" stroke="black" stroke-width="2.51746" stroke-linecap="round" stroke-linejoin="round"/>
<path d="M654.036 198.796C655.292 197.81 656.956 198.238 657.833 198.577C660.394 199.583 663.145 202.573 663.663 206.3C664.122 209.579 662.697 212.728 659.478 215.469C660.913 217.233 661.65 218.12 663.155 219.933C667.749 216.007 669.752 210.994 669.015 205.692C668.277 200.381 664.899 195.478 660.155 193.594C656.877 192.289 653.458 192.717 650.877 194.72C652.133 196.335 652.761 197.152 654.026 198.796H654.036Z" fill="#EBE9E9"/>
<path d="M663.166 219.933C667.76 216.007 669.763 210.994 669.026 205.692C668.288 200.381 664.91 195.478 660.166 193.594C656.888 192.289 653.469 192.717 650.888 194.72" stroke="black" stroke-width="2.51746" stroke-linecap="round" stroke-linejoin="round"/>
<path d="M654.036 198.794C655.292 197.807 656.956 198.236 657.833 198.574C660.394 199.581 663.145 202.571 663.663 206.298C664.122 209.577 662.696 212.726 659.478 215.466" stroke="black" stroke-width="2.51746" stroke-linecap="round" stroke-linejoin="round"/>
<path d="M663.166 219.93C659.678 222.909 656.419 224.295 653.579 224.803C650.36 225.381 647.689 224.843 645.945 224.235C641.142 222.57 637.176 218.305 636.229 213.492C635.531 209.934 636.598 206.615 639.129 204.393C640.484 205.988 641.162 206.795 642.537 208.419C641.291 209.525 641.271 211.11 641.481 212.246C641.919 214.618 644.012 217.697 647.46 218.923C651.207 220.248 655.313 219.033 659.479 215.465C660.914 217.229 661.651 218.116 663.156 219.93H663.166Z" fill="#EBE9E9"/>
<path d="M660.274 222.076C657.872 223.611 655.61 224.448 653.567 224.806C650.348 225.384 647.668 224.836 645.934 224.238C644.957 223.9 644.01 223.441 643.123 222.903C643.442 220.432 643.621 219.196 644.02 216.744C644.947 217.651 646.093 218.428 647.458 218.917C651.205 220.242 655.311 219.026 659.477 215.459C659.477 215.459 660.892 218.1 660.274 222.066V222.076Z" fill="black"/>
<path d="M659.477 215.466C655.311 219.034 651.196 220.25 647.458 218.925C644.01 217.699 641.917 214.619 641.479 212.248C641.27 211.111 641.29 209.537 642.535 208.421" stroke="black" stroke-width="2.51746" stroke-linecap="round" stroke-linejoin="round"/>
<path d="M639.139 204.393C636.607 206.615 635.541 209.944 636.239 213.492C637.185 218.295 641.152 222.56 645.955 224.235C647.689 224.833 650.36 225.381 653.589 224.803C656.429 224.295 659.678 222.909 663.176 219.93" stroke="black" stroke-width="2.51746" stroke-linecap="round" stroke-linejoin="round"/>
<path d="M642.536 208.419C643.722 207.362 645.396 207.721 646.293 208.03C648.894 208.927 651.824 211.837 652.552 215.574C653.2 218.873 651.944 222.131 648.914 225.061C650.419 226.765 651.186 227.632 652.751 229.376C657.096 225.181 658.83 219.999 657.814 214.677C656.797 209.345 653.12 204.552 648.287 202.858C644.948 201.682 641.57 202.26 639.138 204.402C640.493 205.997 641.171 206.804 642.546 208.429L642.536 208.419Z" fill="#EBE9E9"/>
<path d="M652.751 229.376C657.096 225.181 658.83 219.999 657.814 214.677C656.797 209.345 653.12 204.552 648.287 202.858C644.948 201.682 641.57 202.26 639.138 204.402" stroke="black" stroke-width="2.51746" stroke-linecap="round" stroke-linejoin="round"/>
<path d="M642.537 208.422C643.723 207.365 645.397 207.724 646.294 208.033C648.895 208.93 651.825 211.84 652.552 215.577C653.2 218.876 651.945 222.134 648.915 225.064" stroke="black" stroke-width="2.51746" stroke-linecap="round" stroke-linejoin="round"/>
<path d="M652.753 229.382C649.455 232.571 646.306 234.116 643.535 234.763C640.386 235.501 637.725 235.062 635.981 234.524C631.158 233.039 627.002 228.884 625.776 224.04C624.87 220.463 625.727 217.044 628.098 214.703C629.553 216.277 630.281 217.074 631.736 218.669C630.57 219.845 630.65 221.449 630.919 222.585C631.497 224.977 633.739 228.017 637.217 229.103C640.994 230.289 644.99 228.874 648.927 225.067C650.431 226.771 651.199 227.638 652.763 229.382H652.753Z" fill="#EBE9E9"/>
<path d="M650.011 231.681C647.719 233.356 645.527 234.292 643.534 234.761C640.385 235.498 637.724 235.06 635.98 234.522C634.993 234.223 634.046 233.804 633.13 233.296C633.319 230.794 633.429 229.539 633.698 227.047C634.664 227.934 635.84 228.672 637.216 229.1C640.993 230.286 644.989 228.871 648.925 225.064C648.925 225.064 650.45 227.665 650.021 231.681H650.011Z" fill="black"/>
<path d="M648.918 225.065C644.981 228.872 640.985 230.287 637.208 229.101C633.73 228.015 631.488 224.975 630.91 222.583C630.631 221.447 630.561 219.843 631.727 218.667" stroke="black" stroke-width="2.51746" stroke-linecap="round" stroke-linejoin="round"/>
<path d="M628.089 214.703C625.717 217.054 624.86 220.463 625.767 224.04C626.992 228.884 631.148 233.039 635.971 234.524C637.715 235.062 640.376 235.491 643.525 234.763C646.296 234.116 649.445 232.571 652.744 229.382" stroke="black" stroke-width="2.51746" stroke-linecap="round" stroke-linejoin="round"/>
<path d="M631.722 218.667C632.828 217.551 634.523 217.85 635.429 218.129C638.07 218.937 641.15 221.757 642.077 225.504C642.884 228.813 641.807 232.151 638.947 235.23C640.512 236.885 641.299 237.712 642.904 239.396C647.02 234.981 648.514 229.68 647.239 224.348C645.953 219.006 642.017 214.322 637.094 212.788C633.695 211.731 630.377 212.439 628.095 214.701C629.55 216.276 630.277 217.073 631.732 218.667H631.722Z" fill="#EBE9E9"/>
<path d="M642.898 239.396C647.013 234.981 648.508 229.68 647.233 224.348C645.947 219.006 642.011 214.322 637.088 212.788C633.689 211.731 630.371 212.439 628.089 214.701" stroke="black" stroke-width="2.51746" stroke-linecap="round" stroke-linejoin="round"/>
<path d="M631.725 218.667C632.831 217.551 634.525 217.85 635.432 218.129C638.073 218.936 641.152 221.757 642.079 225.504C642.886 228.812 641.81 232.151 638.95 235.23" stroke="black" stroke-width="2.51746" stroke-linecap="round" stroke-linejoin="round"/>
<path d="M642.895 239.396C639.766 242.744 636.726 244.428 634.016 245.186C630.936 246.053 628.295 245.714 626.561 245.245C621.738 243.94 617.443 239.894 615.968 235.041C614.882 231.453 615.529 227.975 617.742 225.513C619.276 227.068 620.044 227.845 621.578 229.42C620.492 230.646 620.652 232.26 620.98 233.406C621.678 235.798 624.05 238.788 627.548 239.754C631.335 240.801 635.221 239.226 638.939 235.23C640.503 236.884 641.29 237.711 642.895 239.396Z" fill="#EBE9E9"/>
<path d="M640.284 241.826C638.092 243.6 635.969 244.637 634.016 245.185C630.937 246.052 628.306 245.713 626.562 245.245C625.575 244.976 624.618 244.587 623.701 244.119C623.781 241.597 623.831 240.342 623.971 237.82C624.967 238.677 626.163 239.375 627.548 239.764C631.335 240.81 635.222 239.235 638.939 235.239C638.939 235.239 640.563 237.79 640.284 241.836V241.826Z" fill="black"/>
<path d="M638.938 235.228C635.221 239.224 631.334 240.808 627.547 239.752C624.059 238.785 621.687 235.806 620.98 233.404C620.651 232.258 620.481 230.643 621.578 229.418" stroke="black" stroke-width="2.51746" stroke-linecap="round" stroke-linejoin="round"/>
<path d="M617.742 225.513C615.529 227.965 614.882 231.453 615.968 235.041C617.433 239.894 621.738 243.94 626.561 245.245C628.305 245.714 630.946 246.053 634.016 245.186C636.726 244.428 639.766 242.744 642.895 239.396" stroke="black" stroke-width="2.51746" stroke-linecap="round" stroke-linejoin="round"/>
<path d="M621.58 229.421C622.617 228.255 624.311 228.504 625.228 228.753C627.899 229.481 631.107 232.211 632.194 235.949C633.15 239.247 632.224 242.646 629.513 245.835C631.118 247.429 631.925 248.226 633.549 249.841C637.456 245.266 638.741 239.885 637.236 234.573C635.722 229.252 631.536 224.667 626.553 223.282C623.115 222.326 619.866 223.143 617.734 225.505C619.268 227.059 620.036 227.837 621.57 229.411L621.58 229.421Z" fill="#EBE9E9"/>
<path d="M633.558 249.849C637.464 245.274 638.75 239.893 637.245 234.581C635.73 229.26 631.545 224.675 626.562 223.29C623.124 222.333 619.875 223.151 617.742 225.512" stroke="black" stroke-width="2.51746" stroke-linecap="round" stroke-linejoin="round"/>
<path d="M621.582 229.423C622.619 228.257 624.313 228.506 625.23 228.755C627.9 229.483 631.109 232.213 632.196 235.95C633.152 239.249 632.226 242.647 629.515 245.836" stroke="black" stroke-width="2.51746" stroke-linecap="round" stroke-linejoin="round"/>
<path d="M633.557 249.85C630.587 253.318 627.658 255.111 625.017 255.968C622.027 256.935 619.426 256.696 617.692 256.277C612.908 255.131 608.524 251.215 606.849 246.391C605.614 242.824 606.062 239.296 608.115 236.755C609.709 238.289 610.507 239.057 612.101 240.591C611.085 241.857 611.324 243.481 611.713 244.618C612.51 246.999 614.981 249.919 618.459 250.776C622.226 251.703 626.003 249.989 629.511 245.843C631.116 247.438 631.923 248.235 633.547 249.85H633.557Z" fill="#EBE9E9"/>
<path d="M625.134 249.67C626.629 248.803 628.094 247.527 629.519 245.843C629.519 245.843 631.223 248.334 631.063 252.38C628.961 254.234 626.908 255.35 625.014 255.958C625.044 253.447 625.064 252.191 625.134 249.67Z" fill="black"/>
<path d="M629.521 245.844C626.013 249.99 622.236 251.694 618.469 250.777C614.991 249.92 612.519 247 611.722 244.619C611.343 243.482 611.094 241.858 612.111 240.592" stroke="black" stroke-width="2.51746" stroke-linecap="round" stroke-linejoin="round"/>
<path d="M608.127 236.755C606.074 239.286 605.615 242.814 606.861 246.391C608.535 251.225 612.92 255.131 617.704 256.277C619.428 256.686 622.029 256.935 625.028 255.968C627.659 255.111 630.599 253.328 633.569 249.85" stroke="black" stroke-width="2.51746" stroke-linecap="round" stroke-linejoin="round"/>
<path d="M612.12 240.582C613.086 239.386 614.78 239.575 615.697 239.804C618.378 240.462 621.687 243.103 622.912 246.81C623.989 250.079 623.191 253.497 620.63 256.766C622.255 258.301 623.072 259.068 624.696 260.603C628.413 255.929 629.53 250.517 627.825 245.256C626.121 239.984 621.736 235.509 616.724 234.263C613.266 233.396 610.097 234.313 608.123 236.755C609.718 238.29 610.515 239.057 612.11 240.592L612.12 240.582Z" fill="#EBE9E9"/>
<path d="M624.689 260.603C628.406 255.929 629.522 250.517 627.818 245.256C626.114 239.984 621.729 235.509 616.716 234.263C613.258 233.396 610.089 234.313 608.116 236.755" stroke="black" stroke-width="2.51746" stroke-linecap="round" stroke-linejoin="round"/>
<path d="M612.12 240.581C613.086 239.385 614.781 239.575 615.697 239.804C618.378 240.462 621.687 243.103 622.913 246.81C623.989 250.079 623.172 253.477 620.61 256.746" stroke="black" stroke-width="2.51746" stroke-linecap="round" stroke-linejoin="round"/>
<path d="M522.784 468.655C455.715 493.071 381.56 458.49 357.144 391.411C332.729 324.342 367.309 250.188 434.388 225.772L533.936 189.537C601.005 165.121 675.159 199.702 699.575 266.781C723.991 333.85 689.41 408.004 622.331 432.42L522.784 468.655Z" fill="#EBE9E9"/>
<path d="M682.781 450.68C692.446 450.68 700.281 442.845 700.281 433.18C700.281 423.515 692.446 415.68 682.781 415.68C673.116 415.68 665.281 423.515 665.281 433.18C665.281 442.845 673.116 450.68 682.781 450.68Z" fill="black" stroke="black" stroke-width="2.51746" stroke-linecap="round" stroke-linejoin="round"/>
<path d="M698.646 416.516C707.406 431.684 682.731 456.329 665.949 447.868C665.949 447.868 631.607 421.25 631.577 421.21L678.575 383.181L698.646 416.506V416.516Z" fill="#EBE9E9" stroke="black" stroke-width="2.51746" stroke-linecap="round" stroke-linejoin="round"/>
<path d="M688.082 439.21C689.079 438.333 690.016 437.396 690.883 436.389C692.009 435.094 693.025 433.709 693.892 432.234C695.886 428.835 697.321 424.59 696.175 420.673C695.766 419.258 695.029 418.162 694.281 416.916C693.374 415.402 692.457 413.897 691.55 412.382C688.441 407.22 685.342 402.058 682.233 396.905C680.668 394.304 679.103 391.703 677.539 389.102L638.274 421.281L650.053 430.51C658.425 428.756 668.061 423.733 688.092 439.21H688.082Z" fill="#D8EFF4"/>
<path d="M386.026 472.333C395.691 472.333 403.526 464.498 403.526 454.833C403.526 445.169 395.691 437.334 386.026 437.334C376.361 437.334 368.526 445.169 368.526 454.833C368.526 464.498 376.361 472.333 386.026 472.333Z" fill="black" stroke="black" stroke-width="2.51746" stroke-linecap="round" stroke-linejoin="round"/>
<path d="M370.41 441.979C365.965 447.071 369.622 457.535 378.591 465.368C386.813 472.544 396.629 475.005 401.632 471.447L429.655 455.971L383.494 422.047L370.419 441.989L370.41 441.979Z" fill="#EBE9E9" stroke="black" stroke-width="2.51746" stroke-linecap="round" stroke-linejoin="round"/>
<path d="M373.61 444.767C371.836 446.89 373.081 450.498 374.058 452.68L374.865 454.285C377.556 459.118 381.831 463.174 386.615 465.905C388.977 467.25 391.568 468.326 394.278 468.695C395.504 468.864 396.79 468.884 397.976 468.536C398.753 468.306 399.381 467.828 400.078 467.439L421.784 455.451L384.572 428.105L377.506 438.898L373.61 444.777V444.767Z" fill="#D8EFF4"/>
<path d="M663.65 279.857C639.234 212.788 581.164 172.357 533.936 189.548L434.389 225.783L522.795 468.667L622.342 432.432C669.569 415.241 688.065 346.936 663.66 279.867L663.65 279.857Z" fill="black" stroke="black" stroke-width="2.51746" stroke-linecap="round" stroke-linejoin="round"/>
<path d="M562.558 241.267L563.981 240.048L562.762 238.625L561.339 239.844L562.558 241.267Z" fill="white"/>
<path d="M537.647 230.572L539.478 229.003L537.909 227.171L536.078 228.741L537.647 230.572Z" fill="white"/>
<path d="M564.852 285.697L566.684 284.128L565.115 282.297L563.283 283.866L564.852 285.697Z" fill="white"/>
<path d="M566.949 278.426L568.123 278.701L568.397 277.526L567.223 277.252L566.949 278.426Z" fill="white"/>
<path d="M656.53 244.933L657.384 245.132L657.583 244.278L656.729 244.079L656.53 244.933Z" fill="white"/>
<path d="M544.079 232.68L545.664 232.676L545.66 231.091L544.075 231.096L544.079 232.68Z" fill="white"/>
<path d="M619.115 399.091L620.537 397.872L619.318 396.449L617.896 397.668L619.115 399.091Z" fill="white"/>
<path d="M607.647 348.28L609.478 346.711L607.909 344.88L606.077 346.449L607.647 348.28Z" fill="white"/>
<path d="M611.863 353.361L613.447 353.357L613.443 351.772L611.858 351.776L611.863 353.361Z" fill="white"/>
<path d="M636.258 271.069L637.842 271.065L637.838 269.48L636.254 269.484L636.258 271.069Z" fill="white"/>
<path d="M587.121 264.153L588.705 264.149L588.701 262.564L587.117 262.568L587.121 264.153Z" fill="white"/>
<path d="M579.919 281.612L581.503 281.608L581.499 280.024L579.915 280.028L579.919 281.612Z" fill="white"/>
<path d="M568.847 262.199L570.432 262.195L570.428 260.61L568.843 260.614L568.847 262.199Z" fill="white"/>
<path d="M581.028 216.246L582.612 216.241L582.608 214.657L581.023 214.661L581.028 216.246Z" fill="white"/>
<path d="M616.153 240.534C635.399 235.51 649.404 225.32 647.434 217.773C645.464 210.227 628.265 208.183 609.019 213.207C589.773 218.231 575.768 228.421 577.738 235.967C579.707 243.513 596.906 245.558 616.153 240.534Z" fill="#F191FA" stroke="black" stroke-width="2.51746" stroke-linecap="round" stroke-linejoin="round"/>
<path d="M616.155 240.544C635.398 235.521 649.4 225.326 647.437 217.782L649.968 227.479C651.941 235.023 637.93 245.218 618.686 250.24C599.442 255.263 582.241 253.22 580.268 245.666L577.737 235.969C579.71 243.513 596.911 245.566 616.155 240.544Z" fill="#D8EFF4" stroke="black" stroke-width="2.51746" stroke-linecap="round" stroke-linejoin="round"/>
<path d="M620.776 239.198C623.457 238.351 625.998 237.404 628.38 236.378L630.911 246.074C628.529 247.091 625.988 248.038 623.307 248.895L620.776 239.198Z" fill="#F191FA"/>
<path d="M631.787 234.823C637.547 231.993 642.092 228.754 644.792 225.535L647.324 235.232C644.613 238.451 640.079 241.69 634.318 244.52L631.787 234.823Z" fill="black"/>
<path d="M616.155 240.544C635.398 235.521 649.4 225.326 647.437 217.782L649.968 227.479C651.941 235.023 637.93 245.218 618.686 250.24C599.442 255.263 582.241 253.22 580.268 245.666L577.737 235.969C579.71 243.513 596.911 245.566 616.155 240.544Z" stroke="black" stroke-width="2.51746" stroke-linecap="round" stroke-linejoin="round"/>
<path d="M598.2 377.986C605.442 359.46 605.424 342.14 598.16 339.3C590.896 336.461 579.137 349.178 571.896 367.704C564.654 386.23 564.672 403.55 571.936 406.389C579.2 409.228 590.959 396.512 598.2 377.986Z" fill="#D8EFF4" stroke="black" stroke-width="2.51746" stroke-linecap="round" stroke-linejoin="round"/>
<path d="M571.935 367.724C564.69 386.251 564.71 403.571 571.975 406.411L562.637 402.764C555.372 399.924 555.352 382.603 562.597 364.077C569.842 345.551 581.602 332.835 588.867 335.675L598.204 339.322C590.939 336.482 579.18 349.198 571.935 367.724Z" fill="#D8EFF4" stroke="black" stroke-width="2.51746" stroke-linecap="round" stroke-linejoin="round"/>
<path d="M570.314 372.26C569.427 374.931 568.699 377.542 568.121 380.073L558.784 376.426C559.362 373.894 560.089 371.283 560.976 368.613L570.314 372.26Z" fill="#D0F500"/>
<path d="M567.383 383.739C566.287 390.067 566.237 395.638 567.253 399.724L557.915 396.076C556.909 391.99 556.949 386.419 558.045 380.091L567.383 383.739Z" fill="black"/>
<path d="M571.935 367.724C564.69 386.251 564.71 403.571 571.975 406.411L562.637 402.764C555.372 399.924 555.352 382.603 562.597 364.077C569.842 345.551 581.602 332.835 588.867 335.675L598.204 339.322C590.939 336.482 579.18 349.198 571.935 367.724Z" stroke="black" stroke-width="2.51746" stroke-linecap="round" stroke-linejoin="round"/>
<path d="M671.021 369.495C685.14 355.484 688.546 336.025 678.629 326.031C668.712 316.038 649.227 319.295 635.108 333.306C620.989 347.317 617.583 366.776 627.5 376.769C637.417 386.763 656.902 383.506 671.021 369.495Z" fill="#F191FA" stroke="black" stroke-width="2.51746" stroke-linecap="round" stroke-linejoin="round"/>
<path d="M670.997 369.437C685.118 355.425 688.516 335.962 678.6 325.967L683.723 331.129C693.639 341.125 690.24 360.588 676.119 374.599C661.998 388.611 642.515 391.87 632.599 381.874L627.476 376.712C637.392 386.708 656.885 383.449 670.997 369.437Z" fill="#A66CFF" stroke="black" stroke-width="2.51746" stroke-linecap="round" stroke-linejoin="round"/>
<path d="M674.25 365.88C676.054 363.718 677.628 361.466 678.954 359.164L684.076 364.326C682.751 366.628 681.176 368.88 679.372 371.043L674.25 365.88Z" fill="#D0F500"/>
<path d="M680.75 355.737C683.59 349.658 684.756 343.449 684.109 337.918L689.231 343.08C689.879 348.611 688.713 354.82 685.872 360.899L680.75 355.737Z" fill="black"/>
<path d="M670.997 369.437C685.118 355.425 688.516 335.962 678.6 325.967L683.723 331.129C693.639 341.125 690.24 360.588 676.119 374.599C661.998 388.611 642.515 391.87 632.599 381.874L627.476 376.712C637.392 386.708 656.885 383.449 670.997 369.437Z" stroke="black" stroke-width="2.51746" stroke-linecap="round" stroke-linejoin="round"/>
<path d="M578.388 441.609C589.826 433.4 589.695 413.645 578.096 397.485C566.498 381.326 547.823 374.882 536.385 383.091C524.948 391.301 525.078 411.056 536.677 427.215C548.276 443.374 566.951 449.819 578.388 441.609Z" fill="#F191FA" stroke="black" stroke-width="2.51746" stroke-linecap="round" stroke-linejoin="round"/>
<path d="M536.675 427.246C548.276 443.4 566.951 449.848 578.392 441.636L572.482 445.872C561.042 454.083 542.366 447.636 530.766 431.481C519.166 415.327 519.036 395.565 530.477 387.353L536.386 383.118C524.946 391.329 525.075 411.081 536.675 427.246Z" fill="#A66CFF" stroke="black" stroke-width="2.51746" stroke-linecap="round" stroke-linejoin="round"/>
<path d="M539.677 431.025C541.531 433.148 543.504 435.061 545.567 436.735L539.657 440.971C537.594 439.296 535.621 437.383 533.767 435.26L539.677 431.025Z" fill="#D0F500"/>
<path d="M548.665 439.045C554.216 442.812 560.166 444.945 565.726 445.184L559.817 449.43C554.256 449.19 548.306 447.058 542.756 443.291L548.665 439.055V439.045Z" fill="black"/>
<path d="M536.675 427.246C548.276 443.4 566.951 449.848 578.392 441.636L572.482 445.872C561.042 454.083 542.366 447.636 530.766 431.481C519.166 415.327 519.036 395.565 530.477 387.353L536.386 383.118C524.946 391.329 525.075 411.081 536.675 427.246Z" fill="#D8EFF4" stroke="black" stroke-width="2.51746" stroke-linecap="round" stroke-linejoin="round"/>
<path d="M699.573 266.78C675.157 199.711 601.002 165.13 533.933 189.546C581.161 172.355 639.241 212.786 663.647 279.855C688.062 346.924 669.556 415.229 622.329 432.42C689.398 408.004 723.979 333.849 699.573 266.78Z" fill="white" stroke="black" stroke-width="2.51746" stroke-linecap="round" stroke-linejoin="round"/>
<path d="M687.265 347.325C682.721 357.081 676.901 366.24 669.935 374.531C666.567 387.108 661.335 398.399 654.419 407.797C669.726 395.738 681.764 380.331 689.817 363.061C695.437 351.022 699.115 338.077 700.619 324.743C702.144 311.239 701.447 297.317 698.277 283.525C700.41 305.718 696.404 327.712 687.255 347.315L687.265 347.325Z" fill="#D8EFF4"/>
<path d="M699.573 266.78C675.157 199.711 601.002 165.13 533.933 189.546C581.161 172.355 639.241 212.786 663.647 279.855C688.062 346.924 669.556 415.229 622.329 432.42C689.398 408.004 723.979 333.849 699.573 266.78Z" stroke="black" stroke-width="2.51746" stroke-linecap="round" stroke-linejoin="round"/>
<path d="M564.099 316.088C539.683 249.019 481.613 208.588 434.386 225.769C367.317 250.185 332.736 324.339 357.152 391.408C381.568 458.477 455.722 493.058 522.791 468.652C570.019 451.461 588.515 383.157 564.109 316.088H564.099Z" fill="white" stroke="black" stroke-width="2.51746" stroke-linecap="round" stroke-linejoin="round"/>
<path d="M506.408 517.2C516.073 517.2 523.908 509.365 523.908 499.7C523.908 490.035 516.073 482.2 506.408 482.2C496.743 482.2 488.908 490.035 488.908 499.7C488.908 509.365 496.743 517.2 506.408 517.2Z" fill="black" stroke="black" stroke-width="2.51746" stroke-linecap="round" stroke-linejoin="round"/>
<path d="M528.352 466.456L528.273 498.914C528.263 503.189 519.573 508.003 508.292 509.866C497.17 511.7 487.523 510.016 485.919 506.099L473.392 475.574C473.392 475.574 473.362 475.485 473.352 475.435C472.983 473.183 484.992 469.326 500.179 466.814C515.367 464.303 527.984 464.094 528.352 466.346C528.352 466.376 528.352 466.416 528.352 466.446V466.456Z" fill="white"/>
<path d="M357.776 335.935C356.869 334.473 356.999 332.606 358.097 331.275C363.004 325.353 372.175 315.109 385.957 304.602C387.227 303.627 389.035 303.838 390.052 305.075L392.84 308.468C393.33 309.069 393.558 309.84 393.473 310.612C393.388 311.383 392.977 312.078 392.364 312.549C384.505 318.453 373.375 327.957 363.327 339.824C362.066 341.313 359.668 340.905 358.978 339.074L357.781 335.926L357.776 335.935Z" fill="black" stroke="black" stroke-width="2.51746" stroke-linecap="round" stroke-linejoin="round"/>
<path d="M385.422 337.416C383.944 338.671 382.283 338.859 381.278 337.89C376.81 333.556 369.201 325.31 362.172 312.051C361.519 310.83 362.029 308.809 363.325 307.474L366.878 303.813C367.507 303.169 368.243 302.783 368.923 302.739C369.603 302.696 370.157 303.023 370.473 303.612C374.402 311.189 380.996 321.715 389.913 330.636C391.032 331.756 390.238 334.459 388.466 335.54L385.415 337.412L385.422 337.416Z" fill="black" stroke="black" stroke-width="2.51746" stroke-linecap="round" stroke-linejoin="round"/>
<path d="M421.742 356.449C420.687 356.874 419.501 356.834 418.489 356.336C417.477 355.839 416.708 354.925 416.401 353.836L414.223 346.118C413.668 344.16 414.67 342.109 416.553 341.344C423.586 338.457 434.563 334.249 450.637 331.516C452.656 331.167 454.615 332.407 455.158 334.383L457.28 342.065C457.581 343.145 457.41 344.303 456.814 345.245C456.219 346.187 455.254 346.848 454.155 347.056C439.376 349.801 428.211 353.842 421.747 356.458L421.742 356.449Z" fill="black" stroke="black" stroke-width="2.51746" stroke-linecap="round" stroke-linejoin="round"/>
<path d="M448.139 358.092C448.564 359.147 448.524 360.332 448.027 361.344C447.529 362.356 446.616 363.126 445.527 363.432L437.808 365.61C435.85 366.165 433.799 365.163 433.034 363.28C430.147 356.247 425.939 345.271 423.206 329.196C422.857 327.177 424.097 325.218 426.073 324.676L433.755 322.554C434.835 322.252 435.993 322.424 436.935 323.019C437.877 323.614 438.538 324.579 438.747 325.678C441.491 340.457 445.532 351.622 448.148 358.087L448.139 358.092Z" fill="black" stroke="black" stroke-width="2.51746" stroke-linecap="round" stroke-linejoin="round"/>
<path d="M500.411 217.581C497.212 218.747 497.212 220.651 500.411 221.817L508.991 224.936C512.19 226.102 517.432 226.102 520.631 224.936L579.538 203.49C582.737 202.324 582.737 200.421 579.538 199.255L570.958 196.135C567.759 194.969 562.517 194.969 559.318 196.135L500.411 217.581Z" fill="#F191FA" stroke="black" stroke-width="2.51746" stroke-linecap="round" stroke-linejoin="round"/>
<path d="M564.19 198.385V209.078" stroke="black" stroke-width="2.51746" stroke-linecap="round" stroke-linejoin="round"/>
<path d="M654.204 341.045C657.431 333.945 645.367 321.518 627.258 313.288C609.149 305.058 591.853 304.142 588.627 311.243C585.4 318.343 597.464 330.77 615.573 339C633.682 347.23 650.977 348.145 654.204 341.045Z" fill="#F191FA" stroke="black" stroke-width="2.51746" stroke-linecap="round" stroke-linejoin="round"/>
<path d="M615.605 339.031C610.363 336.649 605.639 333.919 601.633 331.059L630.952 315.074C646.987 323.236 657.231 334.457 654.232 341.064C651.003 348.17 633.713 347.253 615.595 339.021L615.605 339.031Z" fill="black"/>
<path d="M627.297 313.308C609.189 305.076 591.898 304.159 588.67 311.265L592.815 302.136C596.044 295.031 613.335 295.948 631.442 304.179C649.55 312.411 661.608 324.838 658.389 331.944L654.244 341.072C657.473 333.967 645.404 321.539 627.297 313.308Z" fill="#D8EFF4" stroke="black" stroke-width="2.51746" stroke-linecap="round" stroke-linejoin="round"/>
<path d="M622.864 311.438C620.253 310.411 617.672 309.544 615.18 308.837L619.326 299.708C621.818 300.416 624.389 301.283 627.01 302.309L622.864 311.438Z" fill="#F191FA"/>
<path d="M611.55 307.895C605.292 306.46 599.731 306.111 595.595 306.898L599.741 297.77C603.877 296.982 609.437 297.321 615.696 298.766L611.55 307.895Z" fill="black"/>
<path d="M627.297 313.308C609.189 305.076 591.898 304.159 588.67 311.265L592.815 302.136C596.044 295.031 613.335 295.948 631.442 304.179C649.55 312.411 661.608 324.838 658.389 331.944L654.244 341.072C657.473 333.967 645.404 321.539 627.297 313.308Z" stroke="black" stroke-width="2.51746" stroke-linecap="round" stroke-linejoin="round"/>
<path d="M427.432 232.601L405.049 226.073C400.405 224.718 393.08 225.405 388.775 227.598L416.958 241.819" fill="#EBE9E9"/>
<path d="M427.432 232.601L405.049 226.073C400.405 224.718 393.08 225.405 388.775 227.598L416.958 241.819" stroke="black" stroke-width="2.51746" stroke-linecap="round" stroke-linejoin="round"/>
<path d="M387.19 256.248L382.237 234.812C381.799 232.899 382.865 230.607 384.609 229.72L388.775 227.597C390.798 226.57 393.996 226.74 395.89 227.986L416.957 241.818C413.559 242.426 410.201 243.333 406.892 244.539C399.567 247.209 392.98 251.186 387.19 256.258V256.248Z" fill="#EBE9E9" stroke="black" stroke-width="2.51746" stroke-linecap="round" stroke-linejoin="round"/>
<path d="M525.454 284.89L525.304 321.324L535.439 316.132C539.396 314.109 541.399 309.893 540.452 305.947L537.253 292.633C535.021 283.345 525.454 284.89 525.454 284.89Z" fill="#D8EFF4"/>
<path d="M506.997 264.871L508.552 264.562C515.578 263.157 525.095 266.495 529.699 271.977L533.875 276.959C536.356 279.919 539.137 285.42 540.043 289.177L544.548 307.903C545.495 311.849 543.242 316.433 539.535 318.088" stroke="black" stroke-width="2.51746" stroke-linecap="round" stroke-linejoin="round"/>
<path d="M489.366 268.406C503.817 281.99 516.393 300.048 525.313 321.324L528.242 291.248C528.621 287.401 526.887 281.83 524.406 278.86L515.038 267.689C513.284 265.606 509.676 264.34 507.006 264.869L489.277 268.426" fill="#EBE9E9"/>
<path d="M489.366 268.406C503.817 281.99 516.393 300.048 525.313 321.324L528.242 291.248C528.621 287.401 526.887 281.83 524.406 278.86L515.038 267.689C513.284 265.606 509.676 264.34 507.006 264.869L489.277 268.426" stroke="black" stroke-width="2.51746" stroke-linecap="round" stroke-linejoin="round"/>
<path d="M545.567 436.736C500.184 451.724 464.566 440.164 450.265 433.866C445.472 431.753 440.11 431.235 435.008 432.411L413.861 437.274C399.829 431.913 381.104 410.955 374.626 401.577C368.776 393.106 362.787 389.379 362.787 389.379C374.427 421.359 397.806 445.825 426.507 458.92C458.985 473.748 471.403 471.496 495.689 467.56C500.961 466.703 506.004 470.081 507.219 475.293L513.996 504.483L523.922 499.719L523.244 471.387C523.125 466.344 526.901 460.803 531.645 459.069L546.554 453.638C553.022 447.349 558.463 439.726 562.788 431.056L545.567 436.746V436.736Z" fill="#D8EFF4"/>
<path d="M528.352 466.456L528.273 498.914C528.263 503.189 519.573 508.003 508.292 509.866C497.17 511.7 487.523 510.016 485.919 506.099L473.392 475.574C473.392 475.574 473.362 475.485 473.352 475.435C472.983 473.183 484.992 469.326 500.179 466.814C515.367 464.303 527.984 464.094 528.352 466.346C528.352 466.376 528.352 466.416 528.352 466.446V466.456Z" stroke="black" stroke-width="2.51746" stroke-linecap="round" stroke-linejoin="round"/>
<path d="M354.077 376.413L365.497 365.222C370.908 359.92 379.11 360 384.312 361.893L401.663 368.211C414.837 373.005 426.457 385.103 433.872 404.985L437.728 415.319C447.694 442.057 451.062 444.828 433.971 448.455L406.207 454.345" fill="#EBE9E9"/>
<path d="M426.623 434.237C425.726 440.435 422.098 446.176 422.098 446.176L445.956 440.914C446.076 438.781 445.358 435.961 444.013 432.084C441.033 431.646 437.974 431.745 434.984 432.403L426.613 434.237H426.623Z" fill="#D8EFF4"/>
<path d="M354.077 376.413L365.497 365.222C370.908 359.92 379.11 360 384.312 361.893L401.663 368.211C414.837 373.005 426.457 385.103 433.872 404.985L437.728 415.319C447.694 442.057 451.062 444.828 433.971 448.455L406.207 454.345" stroke="black" stroke-width="2.51746" stroke-linecap="round" stroke-linejoin="round"/>
<path d="M394.046 378.645C404.331 382.392 414.057 392.656 419.13 406.588C426.773 427.576 420.983 448.953 406.204 454.334C401.241 456.138 395.9 455.909 390.698 454.025L373.348 447.707C363.063 443.96 353.336 433.695 348.264 419.763C340.62 398.775 346.41 377.399 361.189 372.018C366.152 370.214 371.494 370.443 376.696 372.326L394.046 378.645Z" fill="black" stroke="black" stroke-width="2.51746" stroke-linecap="round" stroke-linejoin="round"/>
<path d="M541.835 457.827C551.811 449.725 559.693 438.703 565.264 425.678" stroke="black" stroke-width="2.51746" stroke-linecap="round" stroke-linejoin="round"/>
<path d="M493.086 204.414L533.925 189.546C550.698 183.447 567.898 181.025 584.671 181.882" stroke="black" stroke-width="2.51746" stroke-linecap="round" stroke-linejoin="round"/>
</g>
</g>
</g>
<defs>
<filter id="filter0_d_2_257" x="-226.571" y="-221.532" width="1535.65" height="2089.49" filterUnits="userSpaceOnUse" color-interpolation-filters="sRGB">
<feFlood flood-opacity="0" result="BackgroundImageFix"/>
<feColorMatrix in="SourceAlpha" type="matrix" values="0 0 0 0 0 0 0 0 0 0 0 0 0 0 0 0 0 0 127 0" result="hardAlpha"/>
<feOffset dy="5.03492"/>
<feGaussianBlur stdDeviation="113.286"/>
<feComposite in2="hardAlpha" operator="out"/>
<feColorMatrix type="matrix" values="0 0 0 0 0 0 0 0 0 0 0 0 0 0 0 0 0 0 0.9 0"/>
<feBlend mode="normal" in2="BackgroundImageFix" result="effect1_dropShadow_2_257"/>
<feBlend mode="normal" in="SourceGraphic" in2="effect1_dropShadow_2_257" result="shape"/>
</filter>
<clipPath id="clip0_2_257">
<rect width="1083" height="698" fill="white"/>
</clipPath>
<clipPath id="clip1_2_257">
<rect width="1082.51" height="1636.35" rx="27.692" fill="white"/>
</clipPath>
<clipPath id="clip2_2_257">
<rect x="40.2794" y="40.5826" width="120.838" height="120.838" rx="60.419" fill="white"/>
</clipPath>
<clipPath id="clip3_2_257">
<rect width="50.3492" height="50.3492" fill="white" transform="translate(75.5237 75.827)"/>
</clipPath>
<clipPath id="clip4_2_257">
<rect x="921.883" y="40.5826" width="120.838" height="120.838" rx="60.419" fill="white"/>
</clipPath>
<clipPath id="clip5_2_257">
<rect width="50.3492" height="50.3492" fill="white" transform="translate(957.127 75.827)"/>
</clipPath>
<clipPath id="clip6_2_257">
<rect width="1042.23" height="1339.29" fill="white" transform="translate(20.1397 221.538)"/>
</clipPath>
<clipPath id="clip7_2_257">
<rect x="20.1397" y="373.097" width="1042.23" height="830.761" rx="40.2793" fill="white"/>
</clipPath>
<clipPath id="clip8_2_257">
<rect width="60.419" height="60.419" fill="white" transform="translate(95.6635 463.725)"/>
</clipPath>
<clipPath id="clip9_2_257">
<rect width="1082.51" height="1636.35" fill="white" transform="translate(0 0.000793457)"/>
</clipPath>
</defs>
</svg>
