<svg width="430" height="305" viewBox="0 0 430 305" fill="none" xmlns="http://www.w3.org/2000/svg">
  <rect x="-0.358398" width="430" height="305" fill="url(#paint0_linear_3682_53956)" />
  <path d="M0 271.864C64.7181 234.427 139.857 213 220 213C302.216 213 379.165 235.549 445 274.801" stroke="url(#paint1_linear_3682_53956)" stroke-width="4.98985" />
  <path d="M220 210C139.857 210 64.7181 231.427 0 268.864V305H445V271.801C379.165 232.549 302.216 210 220 210Z" fill="url(#paint2_linear_3682_53956)" />
  <g filter="url(#filter0_f_3682_53956)">
    <ellipse cx="120.599" cy="268.831" rx="36.1513" ry="6.59134" transform="rotate(-5.18397 120.599 268.831)" fill="#01122C" fill-opacity="0.1" />
  </g>
  <g filter="url(#filter1_f_3682_53956)">
    <ellipse cx="222.599" cy="241.831" rx="36.1513" ry="6.59134" transform="rotate(-5.18397 222.599 241.831)" fill="#01122C" fill-opacity="0.1" />
  </g>
  <g filter="url(#filter2_f_3682_53956)">
    <ellipse cx="324.599" cy="266.831" rx="36.1513" ry="6.59134" transform="rotate(-5.18397 324.599 266.831)" fill="#01122C" fill-opacity="0.1" />
  </g>
  <path opacity="0.7" d="M285.057 166.033L286.826 172.818L293.685 174.568L286.826 176.318L285.057 183.103L283.288 176.318L276.429 174.568L283.288 172.818L285.057 166.033Z" fill="white" />
  <g opacity="0.9">
    <ellipse cx="220.82" cy="185.675" rx="40.5793" ry="45.6707" transform="rotate(34.9892 220.82 185.675)" fill="#EC61F9" />
    <path d="M194.058 223.911C212.96 237.141 240.17 230.541 254.884 209.518C269.599 188.495 266.484 160.67 247.582 147.44C228.681 134.21 201.47 140.81 186.756 161.833C172.041 182.856 175.157 210.681 194.058 223.911Z" stroke="#135464" stroke-opacity="0.4" stroke-width="2" />
    <ellipse cx="219.556" cy="184.974" rx="39.2126" ry="45.6707" transform="rotate(34.9892 219.556 184.974)" fill="url(#paint3_linear_3682_53956)" />
    <path d="M196.984 159.241C175.51 180.465 181.268 204.468 190.87 212.744C184.003 204.774 179.84 181.968 198.258 162.708C216.676 143.448 240.757 150.111 248.779 157.656C242.267 148.507 218.458 138.018 196.984 159.241Z" fill="white" fill-opacity="0.69" />
    <path d="M245.965 215.348C268.569 195.572 267.374 166.115 252.583 154.205C263.081 165.862 260.169 195.643 240.796 212.028C220.552 229.15 201.955 227.494 190.423 220.064C200.482 230.185 223.611 234.907 245.965 215.348Z" fill="#EC61F9" style="mix-blend-mode:overlay" />
    <g clip-path="url(#clip0_3682_53956)">
      <path d="M223.788 173.848L225.496 172.14L231.417 166.228L235.812 166.688L224.485 177.985C224.485 177.985 223.68 176.487 223.404 175.985C223.044 175.312 223.21 174.388 223.785 173.847L223.788 173.848ZM213.478 164.348C213.478 164.348 219.516 175.725 221.793 179.295C222.159 179.853 221.964 180.514 221.468 181.016C219.639 182.855 219.593 182.885 219.593 182.885L209.11 163.891L213.478 164.348ZM214.565 196.709L212.857 198.417L206.936 204.329L202.542 203.869L213.868 192.572C213.868 192.572 214.673 194.07 214.949 194.572C215.31 195.245 215.143 196.169 214.568 196.71L214.565 196.709ZM216.527 185.942C211.922 190.516 198.947 203.488 198.947 203.488L194.223 202.993L211.849 185.499C212.413 184.942 212.564 184.028 212.198 183.389L200.945 163.035L205.491 163.511L216.801 184.038C217.075 184.636 217.01 185.458 216.527 185.942ZM224.809 206.198L217.14 192.198L216.766 191.442C216.402 190.788 216.572 189.845 217.147 189.304L239.434 167.068L243.966 167.543L221.621 189.452C221.046 189.992 220.876 190.935 221.24 191.589L229.542 206.698L224.805 206.201L224.809 206.198ZM233.165 207.073C233.165 207.073 226.976 195.762 224.914 191.986C224.681 191.555 224.66 191.002 224.852 190.519C224.978 190.257 225.206 189.971 225.405 189.778L226.886 188.372L237.466 207.52L233.166 207.07L233.165 207.073Z" fill="white" />
      <path d="M188.502 158.713L190.333 165.811L197.431 167.641L190.333 169.472L188.502 176.57L186.671 169.472L179.574 167.641L186.671 165.811L188.502 158.713Z" fill="white" />
    </g>
  </g>
  <circle cx="48.7228" cy="124.907" r="2.08116" fill="#FEF4FF" fill-opacity="0.15" />
  <circle cx="305.746" cy="78.0812" r="2.08116" fill="#FEF4FF" fill-opacity="0.15" />
  <circle cx="371.302" cy="134.273" r="2.08116" fill="#FEF4FF" fill-opacity="0.15" />
  <circle cx="85.1432" cy="97.8526" r="2.08116" fill="#FEF4FF" fill-opacity="0.15" />
  <g opacity="0.9">
    <ellipse cx="326.462" cy="210.673" rx="40.5793" ry="45.6707" transform="rotate(33.5385 326.462 210.673)" fill="#EC61F9" />
    <path d="M300.676 249.573C319.907 262.32 346.941 255.034 361.119 233.645C375.296 212.256 371.477 184.519 352.247 171.772C333.017 159.025 305.982 166.311 291.805 187.7C277.627 209.089 281.446 236.827 300.676 249.573Z" stroke="#135464" stroke-opacity="0.4" stroke-width="2" />
    <ellipse cx="325.181" cy="210.004" rx="39.2126" ry="45.6707" transform="rotate(33.5385 325.181 210.004)" fill="url(#paint4_linear_3682_53956)" />
    <path d="M301.964 184.851C281.034 206.612 287.398 230.462 297.206 238.491C290.141 230.698 285.401 208.005 303.326 188.285C321.25 168.564 345.492 174.616 353.702 181.955C346.961 172.974 322.894 163.091 301.964 184.851Z" fill="white" fill-opacity="0.69" />
    <path d="M352.35 239.701C374.446 219.358 372.505 189.941 357.417 178.409C368.208 189.797 366.051 219.643 347.099 236.512C327.294 254.141 308.661 252.957 296.945 245.822C307.257 255.684 330.499 259.819 352.35 239.701Z" fill="#EC61F9" style="mix-blend-mode:overlay" />
    <g clip-path="url(#clip1_3682_53956)">
      <path d="M329.13 198.771L330.794 197.02L336.563 190.96L340.968 191.31L329.931 202.889C329.931 202.889 329.089 201.412 328.8 200.917C328.423 200.253 328.566 199.325 329.127 198.771L329.13 198.771ZM318.582 189.536C318.582 189.536 324.907 200.756 327.274 204.267C327.654 204.815 327.476 205.482 326.992 205.996C325.21 207.88 325.165 207.912 325.165 207.912L314.204 189.189L318.582 189.536ZM320.489 221.859L318.825 223.609L313.055 229.669L308.65 229.32L319.687 217.74C319.687 217.74 320.53 219.218 320.819 219.712C321.196 220.376 321.053 221.304 320.492 221.859L320.489 221.859ZM322.177 211.046C317.689 215.734 305.047 229.031 305.047 229.031L300.312 228.655L317.49 210.72C318.039 210.149 318.167 209.232 317.785 208.602L306.021 188.54L310.577 188.901L322.403 209.135C322.692 209.726 322.648 210.549 322.177 211.046ZM330.969 231.085L322.949 217.284L322.555 216.537C322.176 215.893 322.321 214.946 322.882 214.391L344.599 191.597L349.142 191.957L327.358 214.425C326.798 214.979 326.652 215.927 327.032 216.571L335.714 231.465L330.966 231.088L330.969 231.085ZM339.345 231.749C339.345 231.749 332.872 220.598 330.715 216.875C330.471 216.449 330.435 215.898 330.616 215.41C330.735 215.145 330.956 214.853 331.15 214.656L332.594 213.212L343.656 232.086L339.346 231.745L339.345 231.749Z" fill="white" />
    </g>
  </g>
  <g opacity="0.9">
    <ellipse cx="119.822" cy="211.952" rx="40.5793" ry="45.6707" transform="rotate(30.5726 119.822 211.952)" fill="#EC61F9" />
    <path d="M96.0842 252.135C115.948 263.869 142.569 255.194 155.621 233.1C168.673 211.006 163.425 183.504 143.56 171.769C123.696 160.034 97.0751 168.71 84.0231 190.803C70.9711 212.897 76.22 240.4 96.0842 252.135Z" stroke="#135464" stroke-opacity="0.4" stroke-width="2" />
    <ellipse cx="118.508" cy="211.35" rx="39.2126" ry="45.6707" transform="rotate(30.5726 118.508 211.35)" fill="url(#paint5_linear_3682_53956)" />
    <path d="M94.0217 187.432C74.2456 210.246 81.8345 233.735 92.0455 241.246C84.5858 233.829 78.6784 211.412 95.5587 190.79C112.439 170.169 136.961 174.958 145.54 181.862C138.343 173.242 113.798 164.618 94.0217 187.432Z" fill="white" fill-opacity="0.69" />
    <path d="M147.178 239.601C168.192 218.143 164.731 188.865 149.067 178.13C160.432 188.944 159.823 218.861 141.769 236.689C122.903 255.319 104.234 255.101 92.1642 248.581C102.972 257.896 126.397 260.823 147.178 239.601Z" fill="#EC61F9" style="mix-blend-mode:overlay" />
    <g clip-path="url(#clip2_3682_53956)">
      <path d="M121.871 199.931L123.443 198.096L128.89 191.746L133.308 191.867L122.884 204.002C122.884 204.002 121.966 202.57 121.653 202.091C121.242 201.448 121.336 200.514 121.868 199.931L121.871 199.931ZM110.86 191.253C110.86 191.253 117.756 202.131 120.302 205.516C120.709 206.044 120.566 206.718 120.11 207.257C118.428 209.231 118.384 209.264 118.384 209.264L106.47 191.134L110.86 191.253ZM114.436 223.435L112.865 225.269L107.417 231.619L103 231.499L113.423 219.363C113.423 219.363 114.341 220.795 114.654 221.274C115.066 221.918 114.971 222.852 114.439 223.435L114.436 223.435ZM115.563 212.549C111.324 217.463 99.3865 231.396 99.3865 231.396L94.6382 231.266L110.865 212.466C111.384 211.868 111.464 210.945 111.05 210.336L98.2633 190.909L102.833 191.034L115.69 210.629C116.008 211.204 116.008 212.029 115.563 212.549ZM125.38 232.106L116.656 218.738L116.225 218.014C115.812 217.389 115.908 216.436 116.44 215.853L136.948 191.966L141.504 192.091L120.912 215.655C120.38 216.238 120.284 217.192 120.697 217.816L130.138 232.24L125.376 232.11L125.38 232.106ZM133.779 232.336C133.779 232.336 126.737 221.535 124.39 217.928C124.125 217.516 124.061 216.967 124.216 216.47C124.321 216.199 124.527 215.897 124.71 215.69L126.078 214.174L138.102 232.45L133.779 232.332L133.779 232.336Z" fill="white" />
    </g>
  </g>
  <path opacity="0.7" d="M160.086 184.014L161.855 190.798L168.713 192.548L161.855 194.298L160.086 201.083L158.316 194.298L151.458 192.548L158.316 190.798L160.086 184.014Z" fill="white" />
  <defs>
    <filter id="filter0_f_3682_53956" x="83.5906" y="260.498" width="74.0168" height="16.666" filterUnits="userSpaceOnUse" color-interpolation-filters="sRGB">
      <feFlood flood-opacity="0" result="BackgroundImageFix" />
      <feBlend mode="normal" in="SourceGraphic" in2="BackgroundImageFix" result="shape" />
      <feGaussianBlur stdDeviation="0.5" result="effect1_foregroundBlur_3682_53956" />
    </filter>
    <filter id="filter1_f_3682_53956" x="185.591" y="233.498" width="74.0168" height="16.666" filterUnits="userSpaceOnUse" color-interpolation-filters="sRGB">
      <feFlood flood-opacity="0" result="BackgroundImageFix" />
      <feBlend mode="normal" in="SourceGraphic" in2="BackgroundImageFix" result="shape" />
      <feGaussianBlur stdDeviation="0.5" result="effect1_foregroundBlur_3682_53956" />
    </filter>
    <filter id="filter2_f_3682_53956" x="287.591" y="258.498" width="74.0168" height="16.666" filterUnits="userSpaceOnUse" color-interpolation-filters="sRGB">
      <feFlood flood-opacity="0" result="BackgroundImageFix" />
      <feBlend mode="normal" in="SourceGraphic" in2="BackgroundImageFix" result="shape" />
      <feGaussianBlur stdDeviation="0.5" result="effect1_foregroundBlur_3682_53956" />
    </filter>
    <linearGradient id="paint0_linear_3682_53956" x1="214.642" y1="0" x2="214.642" y2="305" gradientUnits="userSpaceOnUse">
      <stop stop-color="#01003F" stop-opacity="0" />
      <stop offset="1" stop-color="#6B4292" stop-opacity="0.432292" />
    </linearGradient>
    <linearGradient id="paint1_linear_3682_53956" x1="-55.8639" y1="293.052" x2="559.215" y2="970.906" gradientUnits="userSpaceOnUse">
      <stop stop-color="#83E3FF" />
      <stop offset="1" stop-color="#BF98FF" stop-opacity="0" />
    </linearGradient>
    <linearGradient id="paint2_linear_3682_53956" x1="190" y1="216.5" x2="249" y2="400" gradientUnits="userSpaceOnUse">
      <stop stop-color="#D178FF" stop-opacity="0.648395" />
      <stop offset="0.84375" stop-color="#30C1FF" stop-opacity="0.21" />
    </linearGradient>
    <linearGradient id="paint3_linear_3682_53956" x1="183.836" y1="172.336" x2="259.998" y2="186.234" gradientUnits="userSpaceOnUse">
      <stop stop-color="#F269FF" stop-opacity="0.74" />
      <stop offset="0.84375" stop-color="#F698FF" />
    </linearGradient>
    <linearGradient id="paint4_linear_3682_53956" x1="289.46" y1="197.366" x2="365.622" y2="211.264" gradientUnits="userSpaceOnUse">
      <stop stop-color="#F269FF" stop-opacity="0.74" />
      <stop offset="0.84375" stop-color="#F698FF" />
    </linearGradient>
    <linearGradient id="paint5_linear_3682_53956" x1="82.7878" y1="198.713" x2="158.95" y2="212.611" gradientUnits="userSpaceOnUse">
      <stop stop-color="#F269FF" stop-opacity="0.74" />
      <stop offset="0.84375" stop-color="#F698FF" />
    </linearGradient>
    <clipPath id="clip0_3682_53956">
      <rect width="69.8931" height="69.2607" fill="white" transform="translate(175.113 158.773) rotate(-15.5592)" />
    </clipPath>
    <clipPath id="clip1_3682_53956">
      <rect width="69.8931" height="69.2607" fill="white" transform="translate(280.088 184.938) rotate(-17.0099)" />
    </clipPath>
    <clipPath id="clip2_3682_53956">
      <rect width="69.8931" height="69.2607" fill="white" transform="translate(72.179 188.65) rotate(-19.9758)" />
    </clipPath>
  </defs>
</svg>
