<svg width="186" height="186" viewBox="0 0 186 186" fill="none" xmlns="http://www.w3.org/2000/svg">
<path d="M93 0C41.6377 0 0 41.6377 0 93C0 144.362 41.6377 186 93 186C144.362 186 186 144.362 186 93C186 41.6377 144.362 0 93 0ZM89.4031 35.5185C91.9859 34.2531 94.7075 34.3398 97.2123 35.7612C105.897 40.7102 114.556 45.7026 123.171 50.747C125.944 52.3764 127.366 54.9853 127.374 58.1922C127.426 69.4336 127.409 80.6664 127.374 91.9079C127.374 92.324 127.106 92.9307 126.768 93.13C123.431 95.1235 120.051 97.039 116.384 99.1538V97.3856C116.384 85.8235 116.35 74.27 116.41 62.7078C116.419 60.489 115.656 59.0589 113.689 57.9408C103.609 52.2117 93.5807 46.3787 83.5353 40.5802C83.102 40.3289 82.6773 40.0602 82.0185 39.6615C84.6014 38.1967 86.9242 36.7233 89.3857 35.5185H89.4031ZM87.5569 150.525C86.9936 150.239 86.5775 150.039 86.1702 149.805C72.8659 142.135 59.5789 134.412 46.2313 126.802C42.487 124.67 40.7796 121.628 40.8229 117.355C40.9009 108.272 40.8749 99.1884 40.8316 90.0965C40.8143 85.9968 42.4784 83.024 46.084 80.9785C55.4533 75.6481 64.7706 70.2397 74.088 64.8226C74.894 64.3546 75.4834 64.2766 76.3241 64.7793C79.5397 66.7121 82.8159 68.5582 86.2395 70.5344C85.5895 70.9244 85.0954 71.2191 84.5927 71.5138C74.504 77.3382 64.4326 83.18 54.3179 88.9697C52.6624 89.9144 51.8911 91.1452 51.9084 93.0693C51.9604 100.229 51.9691 107.388 51.9084 114.547C51.8911 116.523 52.6798 117.78 54.3786 118.751C65.048 124.852 75.6741 131.023 86.3349 137.142C87.2363 137.663 87.6176 138.2 87.6003 139.275C87.5223 142.941 87.5743 146.616 87.5743 150.533L87.5569 150.525ZM87.5569 130.018C86.6295 129.489 85.9622 129.117 85.2948 128.727C76.8355 123.847 68.3849 118.95 59.9083 114.105C58.9896 113.585 58.6515 113.021 58.6602 111.955C58.7209 106.452 58.6949 100.948 58.6775 95.4442C58.6775 94.6988 58.7902 94.1874 59.5269 93.7714C62.6472 92.0293 65.7327 90.2091 68.8269 88.4323C69.0523 88.3023 69.295 88.207 69.7023 88.0076V94.1874C69.7023 97.533 69.7543 100.887 69.685 104.233C69.6417 106.14 70.3784 107.431 72.0425 108.367C76.8355 111.071 81.5678 113.879 86.3609 116.575C87.3056 117.104 87.5916 117.693 87.5743 118.733C87.5136 122.391 87.5483 126.057 87.5483 130.009L87.5569 130.018ZM77.7889 57.7761C75.9948 56.7187 74.4607 56.7274 72.6665 57.7761C62.6125 63.6526 52.5151 69.451 42.4264 75.2754C42.0017 75.5267 41.5596 75.7521 40.8056 76.1595C41.0743 72.3285 40.2509 68.7143 41.5596 65.2127C42.2704 63.2972 43.6051 61.8584 45.3733 60.8357C53.7892 55.9733 62.1965 51.1023 70.6297 46.266C73.7066 44.4979 76.8442 44.5412 79.9211 46.318C89.4984 51.8304 99.0671 57.3601 108.618 62.9072C109.026 63.1412 109.537 63.6699 109.537 64.0686C109.607 68.0035 109.581 71.9472 109.581 76.1681C106.105 74.166 102.898 72.3112 99.6911 70.4564C92.3846 66.2354 85.0608 62.0578 77.7889 57.7761V57.7761ZM145.09 119.652C144.839 122.746 143.028 124.939 140.349 126.482C130.096 132.375 119.851 138.304 109.607 144.215C106.391 146.07 103.175 147.925 99.9512 149.779C99.5611 150.005 99.1624 150.195 98.6337 150.473C98.5991 149.935 98.5557 149.545 98.5557 149.155C98.5557 145.758 98.5731 142.369 98.5384 138.971C98.5384 138.2 98.7204 137.732 99.4311 137.325C114.374 128.727 129.307 120.103 144.232 111.487C144.458 111.357 144.709 111.253 145.134 111.054C145.134 114.07 145.307 116.878 145.09 119.652V119.652ZM145.168 98.261C145.142 101.78 143.244 104.25 140.237 105.984C128.553 112.701 116.878 119.453 105.204 126.196C103.071 127.426 100.931 128.649 98.6424 129.966C98.6077 129.385 98.5644 129.004 98.5644 128.614C98.5644 125.268 98.5991 121.914 98.5384 118.569C98.5211 117.615 98.8417 117.112 99.6651 116.636C110.283 110.543 120.865 104.38 131.5 98.3217C133.39 97.247 134.222 95.9209 134.204 93.702C134.126 82.1399 134.17 70.5777 134.17 59.0156V56.9961C136.943 58.6689 139.543 60.047 141.918 61.7284C144.085 63.2625 145.177 65.5854 145.186 68.2636C145.22 78.2656 145.246 88.2677 145.177 98.2697L145.168 98.261Z" fill="url(#paint0_linear_604_5960)"/>
<defs>
<linearGradient id="paint0_linear_604_5960" x1="0" y1="0" x2="187.841" y2="2.21859" gradientUnits="userSpaceOnUse">
<stop stop-color="#F191FA"/>
<stop offset="1" stop-color="#83E3F0"/>
</linearGradient>
</defs>
</svg>
