<svg width="176" height="25" viewBox="0 0 176 25" fill="none" xmlns="http://www.w3.org/2000/svg">
<g clip-path="url(#clip0_3034_56168)">
<g clip-path="url(#clip1_3034_56168)">
<path fill-rule="evenodd" clip-rule="evenodd" d="M106.043 7.5332H108.09V18.2576H106.043V7.5332ZM116.307 11.7677C116.863 10.8766 117.796 10.4507 118.813 10.4507L118.819 10.4478C119.752 10.4478 120.436 10.7169 120.872 11.2549C121.302 11.8014 121.516 12.5272 121.516 13.4323V18.2579H119.544V13.6649C119.544 12.6477 119.18 12.132 118.371 12.132H118.252C117.338 12.132 116.627 12.9307 116.627 14.0012V18.2579H114.654V13.6649C114.654 12.6477 114.277 12.132 113.468 12.132H113.349C112.437 12.132 111.718 12.9307 111.718 14.0012V18.2579H109.746V10.5992H111.718V11.6837C112.229 10.8542 113.076 10.4507 113.988 10.4507C115.063 10.4507 115.891 10.899 116.307 11.7677ZM131.929 10.4507C130.912 10.4507 129.978 10.8766 129.423 11.7677C129.009 10.899 128.178 10.4507 127.103 10.4507C126.192 10.4507 125.345 10.8542 124.833 11.6837V10.5992H122.861V18.2579H124.833V14.0012C124.833 12.9307 125.553 12.132 126.464 12.132H126.584C127.392 12.132 127.77 12.6477 127.77 13.6649V18.2579H129.742V14.0012C129.742 12.9307 130.454 12.132 131.368 12.132H131.487C132.295 12.132 132.659 12.6477 132.659 13.6649V18.2579H134.632V13.4323C134.632 12.5272 134.418 11.8014 133.987 11.2549C133.551 10.7169 132.868 10.4478 131.934 10.4478L131.929 10.4507ZM146.872 12.2109V15.7334L146.869 15.7306C146.869 16.434 147.011 16.5769 147.708 16.5769H148.797V18.2611H146.869C145.586 18.2611 144.897 17.5661 144.897 16.2714V12.2109H142.658V18.2611H140.685V17.1401C140.219 17.9248 139.41 18.4124 138.468 18.4124C137.616 18.4124 136.971 18.1518 136.549 17.6193C136.118 17.0953 135.904 16.3947 135.904 15.5036V10.6052H137.877V15.2794C137.877 16.2658 138.285 16.8039 139.005 16.8039H139.124C139.982 16.8039 140.688 15.9295 140.688 14.8591V10.6024H144.9V8.11951H146.872V10.6024H148.57V12.2109H146.872ZM155.837 13.2021C155.837 11.4367 154.562 10.4503 152.648 10.4503C150.734 10.4503 149.542 11.5207 149.378 12.9723H151.359C151.403 12.5072 151.87 12.0588 152.581 12.0588H152.706C153.431 12.0588 153.923 12.5884 153.923 13.2778V13.4655L152.009 13.6365C151.192 13.7037 150.525 13.9419 150.006 14.3623C149.486 14.7798 149.228 15.3795 149.228 16.1586C149.206 17.5037 150.356 18.4256 151.72 18.4088C152.692 18.4088 153.492 17.9913 153.967 17.3243C153.981 17.7279 154.012 18.0417 154.056 18.2603H155.909C155.857 17.9016 155.834 17.3411 155.834 16.5761V13.2021H155.837ZM153.923 15.1329C153.923 16.0969 153.129 16.8003 152.231 16.8003H152.112C151.57 16.8003 151.17 16.4948 151.17 16.0213C151.17 15.7298 151.281 15.5112 151.503 15.3543C151.726 15.1974 151.984 15.1077 152.276 15.0853L153.923 14.9143V15.1301V15.1329ZM159.176 11.5938C159.501 11.0333 160.346 10.4504 161.363 10.4504V10.4476C163.491 10.4112 164.758 12.3336 164.735 14.4269C164.758 16.5202 163.491 18.4426 161.363 18.4062C160.349 18.4062 159.501 17.8233 159.176 17.2628V18.2577H157.204V7.5332H159.176V11.5938ZM160.91 16.7976H161.029C162.016 16.7976 162.766 15.8505 162.766 14.4129C162.766 12.9753 162.024 12.0561 161.029 12.0561H160.91C160.004 12.0337 159.16 13.0201 159.174 14.4269C159.16 15.8336 160.004 16.8201 160.91 16.7976ZM167.694 7.5332H165.721V18.2576H167.694V7.5332ZM168.702 14.4299C168.68 12.1405 170.089 10.4198 172.314 10.4507H172.317C174.534 10.4282 175.8 12.104 175.778 14.3403C175.778 14.4888 175.77 14.7298 175.748 15.0577H170.616C170.691 16.0833 171.508 16.8007 172.331 16.8007H172.456C173.167 16.8007 173.647 16.3972 173.789 15.8367H175.748C175.375 17.3612 174.175 18.4092 172.314 18.4092C170.408 18.4401 168.666 16.8764 168.702 14.4299ZM172.183 12.0592C171.353 12.0592 170.664 12.6197 170.619 13.5248H173.867C173.822 12.6197 173.133 12.0592 172.303 12.0592H172.183ZM183.515 18.2611L181.054 14.52L178.548 18.2611H176.256L179.912 12.7965L176.484 7.59826H178.882L181.121 10.9975L183.399 7.59826H185.691L182.263 12.7209L185.919 18.2611H183.515ZM187.988 17.7762C188.11 17.9892 188.274 18.1546 188.486 18.2779C188.694 18.4012 188.919 18.4628 189.166 18.4628C189.413 18.4628 189.641 18.4012 189.85 18.2779C190.058 18.1546 190.225 17.9864 190.347 17.7762C190.466 17.5661 190.527 17.3363 190.527 17.0897C190.527 16.8431 190.466 16.6133 190.347 16.4031C190.222 16.1929 190.058 16.0248 189.85 15.9015C189.638 15.7782 189.411 15.7165 189.166 15.7165C188.922 15.7165 188.694 15.7782 188.486 15.9015C188.274 16.0248 188.11 16.1929 187.988 16.4031C187.866 16.6133 187.805 16.8403 187.805 17.0897C187.805 17.3391 187.866 17.5661 187.988 17.7762ZM190.188 17.6894C190.083 17.8743 189.938 18.0172 189.758 18.1265C189.577 18.2358 189.38 18.2891 189.166 18.2891C188.952 18.2891 188.755 18.2358 188.574 18.1265C188.394 18.0172 188.252 17.8743 188.147 17.6894C188.041 17.5044 187.988 17.3055 187.988 17.0897C187.988 16.8739 188.041 16.6749 188.147 16.49C188.249 16.3078 188.394 16.1649 188.574 16.0556C188.755 15.9463 188.952 15.8931 189.166 15.8931C189.38 15.8931 189.577 15.9463 189.758 16.0556C189.938 16.1621 190.083 16.3078 190.188 16.49C190.294 16.6749 190.347 16.8739 190.347 17.0897C190.347 17.3055 190.294 17.5044 190.188 17.6894ZM189.288 16.4115H188.713L188.708 16.4143V17.737H188.922V17.2186H189.286C189.416 17.2186 189.475 17.2746 189.475 17.3867V17.7342H189.688V17.3895C189.688 17.1793 189.619 17.1093 189.441 17.1065C189.597 17.0869 189.708 16.9608 189.708 16.773C189.708 16.5628 189.552 16.4115 189.288 16.4115ZM189.494 16.8235C189.494 16.9692 189.386 17.0476 189.202 17.0476H188.927V16.5853H189.202C189.397 16.5853 189.494 16.6469 189.494 16.8235Z" fill="#F3F3F3"/>
<path d="M88.428 0C81.8328 0 76.4863 5.33913 76.4863 11.9252C76.4863 18.5113 81.8328 23.8505 88.428 23.8505C95.0232 23.8505 100.37 18.5113 100.37 11.9252C100.37 5.33913 95.0232 0 88.428 0ZM87.9661 4.55448C88.2978 4.39222 88.6473 4.40333 88.9689 4.5856C90.084 5.22021 91.1959 5.86037 92.3021 6.5072C92.6582 6.71614 92.8408 7.05067 92.8419 7.46188C92.8485 8.90336 92.8463 10.3437 92.8419 11.7852C92.8419 11.8385 92.8074 11.9163 92.764 11.9419C92.3355 12.1975 91.9014 12.4431 91.4307 12.7143V12.4876C91.4307 11.005 91.4262 9.52352 91.434 8.04092C91.4351 7.7564 91.3372 7.57302 91.0846 7.42965C89.7902 6.69502 88.5026 5.94706 87.2127 5.20354C87.1571 5.17131 87.1025 5.13685 87.0179 5.08573C87.3496 4.8979 87.6479 4.70897 87.9639 4.55448H87.9661ZM87.7291 19.3015C87.6568 19.2649 87.6033 19.2393 87.551 19.2093C85.8427 18.2257 84.1366 17.2355 82.4227 16.2597C81.9419 15.9863 81.7226 15.5962 81.7282 15.0482C81.7382 13.8835 81.7349 12.7188 81.7293 11.5529C81.7271 11.0272 81.9408 10.646 82.4037 10.3837C83.6068 9.70023 84.8032 9.00672 85.9996 8.3121C86.1031 8.25208 86.1788 8.24208 86.2867 8.30654C86.6996 8.55438 87.1203 8.79111 87.5599 9.04451C87.4765 9.09452 87.413 9.13231 87.3485 9.17009C86.053 9.91695 84.7598 10.666 83.461 11.4084C83.2485 11.5296 83.1494 11.6874 83.1516 11.9341C83.1583 12.8521 83.1594 13.7701 83.1516 14.6882C83.1494 14.9416 83.2507 15.1027 83.4688 15.2272C84.8388 16.0096 86.2033 16.8009 87.5722 17.5856C87.6879 17.6522 87.7369 17.7211 87.7347 17.859C87.7246 18.3291 87.7313 18.8003 87.7313 19.3027L87.7291 19.3015ZM87.7291 16.672C87.61 16.6042 87.5243 16.5564 87.4386 16.5064C86.3524 15.8807 85.2673 15.2527 84.1789 14.6315C84.0609 14.5648 84.0175 14.4925 84.0186 14.3558C84.0264 13.6501 84.0231 12.9444 84.0208 12.2386C84.0208 12.1431 84.0353 12.0775 84.1299 12.0241C84.5305 11.8008 84.9268 11.5674 85.3241 11.3395C85.353 11.3229 85.3842 11.3106 85.4365 11.2851V12.0775C85.4365 12.5065 85.4431 12.9366 85.4342 13.3656C85.4287 13.6101 85.5233 13.7757 85.737 13.8957C86.3524 14.2425 86.9601 14.6026 87.5755 14.9482C87.6968 15.016 87.7335 15.0916 87.7313 15.225C87.7235 15.694 87.728 16.1641 87.728 16.6709L87.7291 16.672ZM86.4748 7.40854C86.2445 7.27295 86.0475 7.27406 85.8171 7.40854C84.5261 8.16206 83.2295 8.90558 81.9341 9.65244C81.8796 9.68467 81.8228 9.71356 81.726 9.7658C81.7605 9.27456 81.6548 8.81111 81.8228 8.36211C81.9141 8.11649 82.0855 7.932 82.3125 7.80086C83.3931 7.17737 84.4727 6.55277 85.5556 5.93261C85.9506 5.70589 86.3535 5.71144 86.7486 5.93928C87.9784 6.64612 89.2071 7.35519 90.4335 8.06648C90.4858 8.09649 90.5515 8.16428 90.5515 8.21541C90.5604 8.71998 90.557 9.22566 90.557 9.76691C90.1108 9.51018 89.699 9.27234 89.2872 9.0345C88.349 8.49326 87.4086 7.95757 86.4748 7.40854ZM95.1167 15.3428C95.0844 15.7395 94.8518 16.0207 94.5079 16.2185C93.1913 16.9743 91.8759 17.7345 90.5604 18.4924C90.1475 18.7303 89.7346 18.9681 89.3206 19.206C89.2705 19.2349 89.2193 19.2593 89.1514 19.2949C89.147 19.226 89.1414 19.176 89.1414 19.1259C89.1414 18.6903 89.1436 18.2557 89.1392 17.8201C89.1392 17.7211 89.1625 17.6611 89.2538 17.6089C91.1725 16.5064 93.0901 15.4006 95.0065 14.2958C95.0354 14.2792 95.0677 14.2658 95.1223 14.2403C95.1223 14.627 95.1445 14.9871 95.1167 15.3428ZM95.1267 12.5998C95.1234 13.0511 94.8796 13.3678 94.4935 13.5901C92.9932 14.4514 91.4941 15.3172 89.995 16.1819C89.7212 16.3397 89.4463 16.4964 89.1525 16.6653C89.1481 16.5909 89.1425 16.542 89.1425 16.4919C89.1425 16.0629 89.147 15.6328 89.1392 15.2038C89.1369 15.0816 89.1781 15.0171 89.2838 14.956C90.6472 14.1747 92.0061 13.3845 93.3716 12.6076C93.6142 12.4698 93.7211 12.2998 93.7189 12.0153C93.7088 10.5327 93.7144 9.05006 93.7144 7.56747V7.30851C94.0705 7.52301 94.4044 7.69972 94.7094 7.91533C94.9876 8.11205 95.1278 8.4099 95.1289 8.75332C95.1334 10.0359 95.1367 11.3184 95.1278 12.601L95.1267 12.5998Z" fill="#F3F3F3"/>
</g>
</g>
<path d="M1.13166 8.57212V18.1123H2.47387V14.3357H4.11873C6.44785 14.3357 8.07955 13.8225 8.07955 11.4539C8.07955 9.09847 6.44785 8.57212 4.11873 8.57212H1.13166ZM4.224 9.70378C5.632 9.70378 6.71103 9.90116 6.71103 11.4539C6.71103 13.0198 5.632 13.1646 4.224 13.1646H2.47387V9.70378H4.224ZM9.79483 14.5989C9.79483 12.6645 10.8212 11.9671 11.9134 11.9671C13.0056 11.9671 14.032 12.704 14.032 14.5989C14.032 16.4148 13.0056 17.2307 11.9134 17.2307C10.8212 17.2307 9.79483 16.4938 9.79483 14.5989ZM11.9134 10.9144C10.2686 10.9144 8.51842 12.0329 8.51842 14.5989C8.51842 17.1649 10.2686 18.2834 11.9134 18.2834C13.5583 18.2834 15.3084 17.1649 15.3084 14.5989C15.3084 12.0329 13.5583 10.9144 11.9134 10.9144ZM18.4397 16.2701L17.0843 11.0328H15.7948L17.8344 18.1123H18.9266L20.4399 12.4145L22.0058 18.1123H23.0979L25.1376 11.0328H23.848L22.4926 16.2701L21.0846 11.0328H19.8477L18.4397 16.2701ZM32.3334 14.9673C32.4782 12.7172 31.2018 10.9144 29.0305 10.9144C27.0962 10.9144 25.5961 12.3356 25.5961 14.5857C25.5961 16.678 26.833 18.2834 29.07 18.2834C30.7938 18.2834 31.9255 17.2701 32.2413 16.0595H31.0044C30.7017 16.7569 30.1227 17.2307 29.07 17.2307C28.0305 17.2307 26.9251 16.4938 26.8856 14.9673H32.3334ZM29.0305 11.9408C30.307 11.9408 31.0307 12.9409 31.0702 13.9409H26.8988C27.0041 12.5198 27.9778 11.9408 29.0305 11.9408ZM37.2556 11.0065C37.1108 10.9934 37.0187 10.9934 36.9003 10.9934C35.966 11.0328 35.2554 11.4671 34.9001 12.2698V11.0328H33.729V18.1123H34.9264V14.4015C34.9264 12.8224 35.4791 12.2303 36.5845 12.2303C36.7818 12.2303 37.0055 12.2434 37.2556 12.2829V11.0065ZM44.5285 14.9673C44.6733 12.7172 43.3969 10.9144 41.2256 10.9144C39.2913 10.9144 37.7912 12.3356 37.7912 14.5857C37.7912 16.678 39.0281 18.2834 41.2651 18.2834C42.9889 18.2834 44.1206 17.2701 44.4364 16.0595H43.1995C42.8968 16.7569 42.3178 17.2307 41.2651 17.2307C40.2256 17.2307 39.1202 16.4938 39.0807 14.9673H44.5285ZM41.2256 11.9408C42.502 11.9408 43.2258 12.9409 43.2653 13.9409H39.0939C39.1992 12.5198 40.1729 11.9408 41.2256 11.9408ZM50.844 12.1513C50.4097 11.4013 49.6728 10.9144 48.528 10.9144C46.8963 10.9144 45.5014 12.2829 45.5014 14.5989C45.5014 16.9543 46.8963 18.2834 48.528 18.2834C49.6728 18.2834 50.4097 17.7965 50.844 17.0464V18.1123H52.0414V8.57212H50.844V12.1513ZM50.8966 14.5989C50.8966 16.4674 49.8965 17.257 48.8306 17.257C47.6069 17.257 46.8042 16.3227 46.8042 14.5989C46.8042 12.8751 47.6069 11.9408 48.8306 11.9408C49.8965 11.9408 50.8966 12.7303 50.8966 14.5989ZM58.1974 14.5989C58.1974 12.7303 59.1975 11.9408 60.2633 11.9408C61.4871 11.9408 62.2898 12.8751 62.2898 14.5989C62.2898 16.3227 61.4871 17.257 60.2633 17.257C59.1975 17.257 58.1974 16.4674 58.1974 14.5989ZM57.0526 8.57212V18.1123H58.25V17.0464C58.6843 17.7965 59.4212 18.2834 60.566 18.2834C62.1977 18.2834 63.5925 16.9543 63.5925 14.5989C63.5925 12.2829 62.1977 10.9144 60.566 10.9144C59.4212 10.9144 58.6843 11.4013 58.25 12.1513V8.57212H57.0526ZM68.7616 11.0328L67.0115 16.4938L65.2087 11.0328H63.8797L66.4325 18.1123L66.3799 18.2571C66.064 19.3624 65.6824 19.415 64.8929 19.415H64.406V20.4151H65.0245C66.6167 20.4151 66.9589 19.9414 67.4852 18.415L70.0117 11.0328H68.7616Z" fill="#F3F3F3"/>
<defs>
<clipPath id="clip0_3034_56168">
<rect width="99.514" height="23.8505" fill="white" transform="translate(76.4863)"/>
</clipPath>
<clipPath id="clip1_3034_56168">
<rect width="109.465" height="23.8505" fill="white" transform="translate(76.4863)"/>
</clipPath>
</defs>
</svg>
