<svg width="32" height="32" viewBox="0 0 32 32" fill="none" xmlns="http://www.w3.org/2000/svg">
<g clip-path="url(#clip0_78_3446)">
<circle cx="16" cy="16" r="16" fill="url(#paint0_radial_78_3446)"/>
<circle cx="16" cy="16" r="16" fill="url(#paint1_radial_78_3446)"/>
<path d="M16 0C7.16347 0 0 7.16347 0 16C0 24.8365 7.16347 32 16 32C24.8365 32 32 24.8365 32 16C32 7.16347 24.8365 0 16 0ZM15.3812 6.11072C15.8255 5.89301 16.2938 5.90792 16.7247 6.15247C18.2188 7.00391 19.7085 7.86281 21.1907 8.73066C21.6678 9.011 21.9124 9.45983 21.9139 10.0116C21.9228 11.9456 21.9199 13.8781 21.9139 15.8121C21.9139 15.8837 21.8677 15.9881 21.8095 16.0224C21.2354 16.3653 20.6539 16.6949 20.0231 17.0587V16.7545C20.0231 14.7653 20.0171 12.7776 20.0276 10.7884C20.0291 10.4067 19.8979 10.1607 19.5594 9.96831C17.8252 8.98266 16.0999 7.97912 14.3717 6.98155C14.2971 6.9383 14.224 6.89208 14.1107 6.82348C14.5551 6.57148 14.9547 6.31799 15.3782 6.11072H15.3812ZM15.0636 25.8967C14.9666 25.8475 14.8951 25.8132 14.825 25.773C12.5361 24.4533 10.2501 23.1247 7.95377 21.8155C7.3096 21.4486 7.01584 20.9253 7.0233 20.1901C7.03672 18.6274 7.03225 17.0647 7.02479 15.5005C7.02181 14.7952 7.30811 14.2837 7.92842 13.9318C9.54035 13.0147 11.1433 12.0842 12.7463 11.1523C12.885 11.0718 12.9864 11.0583 13.131 11.1448C13.6842 11.4774 14.2479 11.795 14.8369 12.1349C14.7251 12.202 14.6401 12.2527 14.5536 12.3034C12.8179 13.3055 11.0852 14.3105 9.34501 15.3066C9.0602 15.4692 8.92749 15.6809 8.93047 16.0119C8.93942 17.2436 8.94091 18.4753 8.93047 19.707C8.92749 20.047 9.06319 20.2632 9.35545 20.4302C11.1911 21.48 13.0192 22.5417 14.8533 23.5944C15.0084 23.6839 15.074 23.7763 15.071 23.9612C15.0576 24.592 15.0665 25.2242 15.0665 25.8982L15.0636 25.8967ZM15.0636 22.3687C14.904 22.2777 14.7892 22.2136 14.6744 22.1465C13.219 21.307 11.7651 20.4645 10.3068 19.6309C10.1487 19.5415 10.0906 19.4445 10.0921 19.2611C10.1025 18.3143 10.098 17.3674 10.0951 16.4205C10.0951 16.2923 10.1144 16.2043 10.2412 16.1327C10.778 15.833 11.3089 15.5198 11.8412 15.2142C11.88 15.1918 11.9217 15.1754 11.9918 15.1411V16.2043C11.9918 16.7799 12.0007 17.3569 11.9888 17.9325C11.9814 18.2606 12.1081 18.4828 12.3944 18.6438C13.219 19.109 14.0332 19.5922 14.8578 20.0559C15.0203 20.1469 15.0695 20.2483 15.0665 20.4272C15.0561 21.0565 15.0621 21.6872 15.0621 22.3672L15.0636 22.3687ZM13.383 9.93998C13.0744 9.75806 12.8104 9.75955 12.5018 9.93998C10.772 10.951 9.03485 11.9486 7.29916 12.9506C7.22609 12.9938 7.15005 13.0326 7.02032 13.1027C7.06654 12.4436 6.92488 11.8218 7.15005 11.2194C7.27232 10.8898 7.50196 10.6423 7.80615 10.4664C9.25405 9.62982 10.7005 8.7918 12.1514 7.95974C12.6807 7.65554 13.2205 7.663 13.7499 7.96869C15.3976 8.91705 17.0438 9.86841 18.687 10.8227C18.7571 10.863 18.8451 10.954 18.8451 11.0226C18.857 11.6995 18.8526 12.378 18.8526 13.1042C18.2546 12.7597 17.7029 12.4406 17.1512 12.1215C15.8941 11.3953 14.6341 10.6766 13.383 9.93998ZM24.9618 20.5853C24.9185 21.1176 24.6069 21.4949 24.1461 21.7603C22.3821 22.7743 20.6196 23.7942 18.857 24.8112C18.3038 25.1303 17.7506 25.4494 17.1959 25.7685C17.1288 25.8073 17.0602 25.8401 16.9692 25.8878C16.9633 25.7953 16.9558 25.7282 16.9558 25.6611C16.9558 25.0766 16.9588 24.4936 16.9528 23.909C16.9528 23.7763 16.9842 23.6958 17.1064 23.6257C19.6772 22.1465 22.2464 20.6628 24.8142 19.1806C24.8529 19.1582 24.8962 19.1404 24.9692 19.1061C24.9692 19.625 24.9991 20.1081 24.9618 20.5853ZM24.9752 16.9051C24.9707 17.5105 24.6442 17.9355 24.1267 18.2337C22.1167 19.3894 20.1081 20.551 18.0995 21.7111C17.7327 21.9228 17.3644 22.1331 16.9707 22.3597C16.9648 22.2598 16.9573 22.1942 16.9573 22.1271C16.9573 21.5515 16.9633 20.9745 16.9528 20.3989C16.9499 20.2349 17.005 20.1484 17.1467 20.0664C18.9733 19.0181 20.794 17.9579 22.6237 16.9156C22.9487 16.7307 23.0919 16.5025 23.0889 16.1208C23.0755 14.1316 23.0829 12.1424 23.0829 10.1532V9.80578C23.5601 10.0936 24.0075 10.3307 24.416 10.6199C24.7888 10.8839 24.9767 11.2835 24.9782 11.7443C24.9842 13.4651 24.9886 15.1858 24.9767 16.9066L24.9752 16.9051Z" fill="#0D0D0D"/>
<path fill-rule="evenodd" clip-rule="evenodd" d="M16 0C7.16344 0 0 7.16344 0 16C0 24.8366 7.16344 32 16 32C24.8366 32 32 24.8366 32 16C32 7.16344 24.8366 0 16 0ZM16 1.33333C7.89983 1.33333 1.33333 7.89983 1.33333 16C1.33333 24.1002 7.89983 30.6667 16 30.6667C24.1002 30.6667 30.6667 24.1002 30.6667 16C30.6667 7.89983 24.1002 1.33333 16 1.33333Z" fill="url(#paint2_radial_78_3446)"/>
<path fill-rule="evenodd" clip-rule="evenodd" d="M16 0C7.16344 0 0 7.16344 0 16C0 24.8366 7.16344 32 16 32C24.8366 32 32 24.8366 32 16C32 7.16344 24.8366 0 16 0ZM16 1.33333C7.89983 1.33333 1.33333 7.89983 1.33333 16C1.33333 24.1002 7.89983 30.6667 16 30.6667C24.1002 30.6667 30.6667 24.1002 30.6667 16C30.6667 7.89983 24.1002 1.33333 16 1.33333Z" fill="url(#paint3_radial_78_3446)"/>
</g>
<defs>
<radialGradient id="paint0_radial_78_3446" cx="0" cy="0" r="1" gradientUnits="userSpaceOnUse" gradientTransform="translate(8.49369 8.45502) rotate(44.9817) scale(33.2435 70.5021)">
<stop stop-color="#A3EEF8"/>
<stop offset="0.177083" stop-color="#A4DCF5"/>
<stop offset="0.380208" stop-color="#A6AEEC"/>
<stop offset="1" stop-color="#ECBEE1"/>
</radialGradient>
<radialGradient id="paint1_radial_78_3446" cx="0" cy="0" r="1" gradientUnits="userSpaceOnUse" gradientTransform="translate(17.3877 30.0137) rotate(84.265) scale(17.2187 32.9397)">
<stop stop-color="#FCF5EE"/>
<stop offset="0.715135" stop-color="#ECBEE1" stop-opacity="0"/>
</radialGradient>
<radialGradient id="paint2_radial_78_3446" cx="0" cy="0" r="1" gradientUnits="userSpaceOnUse" gradientTransform="translate(8.49369 8.45502) rotate(44.9817) scale(33.2435 70.5021)">
<stop stop-color="#A3EEF8"/>
<stop offset="0.177083" stop-color="#A4DCF5"/>
<stop offset="0.380208" stop-color="#A6AEEC"/>
<stop offset="1" stop-color="#ECBEE1"/>
</radialGradient>
<radialGradient id="paint3_radial_78_3446" cx="0" cy="0" r="1" gradientUnits="userSpaceOnUse" gradientTransform="translate(17.3877 30.0137) rotate(84.265) scale(17.2187 32.9397)">
<stop stop-color="#FCF5EE"/>
<stop offset="0.715135" stop-color="#ECBEE1" stop-opacity="0"/>
</radialGradient>
<clipPath id="clip0_78_3446">
<rect width="32" height="32" fill="white"/>
</clipPath>
</defs>
</svg>
