<svg width="249" height="175" viewBox="0 0 249 175" fill="none" xmlns="http://www.w3.org/2000/svg">
  <circle cx="14.9589" cy="14.9589" r="14.9589" transform="matrix(-0.0477871 -0.998858 -0.998858 0.0477871 245.035 161.734)" fill="url(#paint0_linear_3227_52651)" />
  <path d="M188.381 28.7868C166.584 34.1134 139.357 43.937 110.811 57.3708C85.028 69.5045 62.2003 82.6861 44.7618 94.9985" stroke="url(#paint1_linear_3227_52651)" stroke-width="5.8215" stroke-linejoin="round" />
  <g clip-path="url(#clip0_3227_52651)">
    <g filter="url(#filter0_d_3227_52651)">
      <path d="M122.517 35.9129C124.662 34.8621 126.921 34.9341 129.001 36.1144C136.213 40.2238 143.402 44.3692 150.556 48.5578C152.859 49.9108 154.039 52.077 154.046 54.7399C154.09 64.0742 154.075 73.4014 154.046 82.7357C154.046 83.0812 153.823 83.585 153.543 83.7505C150.772 85.4058 147.965 86.9963 144.921 88.7523V87.2841C144.921 77.6835 144.892 68.0901 144.942 58.4894C144.95 56.647 144.316 55.4596 142.683 54.5312C134.313 49.774 125.986 44.9305 117.645 40.1158C117.285 39.9071 116.932 39.684 116.385 39.353C118.53 38.1367 120.459 36.9132 122.503 35.9129H122.517ZM120.984 131.408C120.516 131.171 120.171 131.005 119.832 130.811C108.785 124.442 97.7525 118.029 86.6693 111.71C83.5602 109.94 82.1424 107.414 82.1784 103.866C82.2432 96.3234 82.2216 88.7811 82.1856 81.2316C82.1712 77.8275 83.553 75.3589 86.5469 73.6605C94.3268 69.2344 102.063 64.7435 109.8 60.2455C110.469 59.8569 110.959 59.7921 111.657 60.2095C114.327 61.8144 117.047 63.3473 119.89 64.9882C119.35 65.3121 118.94 65.5568 118.523 65.8015C110.145 70.6378 101.783 75.4885 93.384 80.296C92.0094 81.0804 91.3688 82.1024 91.3832 83.7001C91.4264 89.6447 91.4336 95.5893 91.3832 101.534C91.3688 103.175 92.0238 104.218 93.4343 105.024C102.294 110.091 111.117 115.215 119.969 120.296C120.718 120.728 121.034 121.174 121.02 122.067C120.955 125.111 120.998 128.162 120.998 131.415L120.984 131.408ZM120.984 114.38C120.214 113.941 119.66 113.632 119.106 113.308C112.081 109.256 105.064 105.19 98.0259 101.167C97.2631 100.735 96.9824 100.267 96.9896 99.3821C97.04 94.8121 97.0184 90.2421 97.004 85.672C97.004 85.0531 97.0975 84.6285 97.7093 84.2831C100.3 82.8365 102.862 81.3251 105.432 79.8498C105.619 79.7418 105.82 79.6627 106.158 79.4971V84.6285C106.158 87.4065 106.202 90.1917 106.144 92.9697C106.108 94.553 106.72 95.6253 108.102 96.4026C112.081 98.648 116.011 100.98 119.991 103.218C120.775 103.657 121.013 104.146 120.998 105.01C120.948 108.047 120.977 111.091 120.977 114.373L120.984 114.38ZM112.873 54.3944C111.383 53.5164 110.11 53.5236 108.62 54.3944C100.271 59.2739 91.887 64.0886 83.5099 68.9249C83.1572 69.1336 82.7902 69.3207 82.164 69.659C82.3871 66.478 81.7034 63.4769 82.7902 60.5693C83.3803 58.9788 84.4886 57.7842 85.9568 56.9349C92.945 52.8975 99.9259 48.8528 106.928 44.837C109.483 43.3688 112.089 43.4048 114.644 44.8802C122.596 49.4574 130.541 54.049 138.472 58.655C138.811 58.8493 139.235 59.2883 139.235 59.6194C139.293 62.8867 139.271 66.1613 139.271 69.6662C136.385 68.0037 133.722 66.4636 131.06 64.9235C124.993 61.4186 118.911 57.9497 112.873 54.3944ZM168.757 105.773C168.548 108.342 167.044 110.163 164.82 111.444C156.306 116.338 147.8 121.261 139.293 126.169C136.623 127.709 133.953 129.249 131.276 130.789C130.952 130.976 130.621 131.135 130.182 131.365C130.153 130.919 130.117 130.595 130.117 130.271C130.117 127.45 130.131 124.636 130.102 121.815C130.102 121.174 130.254 120.786 130.844 120.447C143.251 113.308 155.651 106.147 168.044 98.9935C168.231 98.8855 168.44 98.7991 168.793 98.6336C168.793 101.138 168.937 103.47 168.757 105.773ZM168.822 88.011C168.8 90.933 167.224 92.9841 164.727 94.4234C155.025 100.001 145.331 105.607 135.637 111.207C133.866 112.229 132.089 113.243 130.189 114.337C130.16 113.855 130.124 113.538 130.124 113.214C130.124 110.436 130.153 107.651 130.102 104.873C130.088 104.082 130.354 103.664 131.038 103.268C139.854 98.209 148.642 93.092 157.472 88.0614C159.041 87.169 159.732 86.0679 159.718 84.2255C159.653 74.6248 159.689 65.0242 159.689 55.4236V53.7467C161.992 55.1357 164.151 56.28 166.123 57.6762C167.922 58.9501 168.829 60.8788 168.836 63.1027C168.865 71.4078 168.886 79.713 168.829 88.0182L168.822 88.011Z" fill="white" />
    </g>
  </g>
  <circle cx="125.507" cy="81.5027" r="79.0078" fill="url(#paint2_linear_3227_52651)" stroke="url(#paint3_linear_3227_52651)" stroke-width="4.98985" />
  <path d="M206.188 93.6998C212.825 49.1792 182.115 7.70723 137.594 1.06957C220.488 79.7839 156.108 141.349 113.557 162.293C158.078 168.931 199.55 138.22 206.188 93.6998Z" fill="#F269FF" fill-opacity="0.18" />
  <path d="M188.025 28.8798C213.852 22.5806 232.045 22.6127 235.735 30.4542C242.533 44.8995 197.545 80.3761 135.25 109.694C72.9551 139.011 16.944 151.067 10.1458 136.622C6.15459 128.141 20.0129 112.412 44.7433 94.9354" stroke="url(#paint4_linear_3227_52651)" stroke-width="5.8215" />
  <defs>
    <filter id="filter0_d_3227_52651" x="77.5789" y="32.2631" width="95.8602" height="105.39" filterUnits="userSpaceOnUse" color-interpolation-filters="sRGB">
      <feFlood flood-opacity="0" result="BackgroundImageFix" />
      <feColorMatrix in="SourceAlpha" type="matrix" values="0 0 0 0 0 0 0 0 0 0 0 0 0 0 0 0 0 0 127 0" result="hardAlpha" />
      <feOffset dy="1.66328" />
      <feGaussianBlur stdDeviation="2.28702" />
      <feComposite in2="hardAlpha" operator="out" />
      <feColorMatrix type="matrix" values="0 0 0 0 0 0 0 0 0 0 0 0 0 0 0 0 0 0 1 0" />
      <feBlend mode="normal" in2="BackgroundImageFix" result="effect1_dropShadow_3227_52651" />
      <feBlend mode="normal" in="SourceGraphic" in2="effect1_dropShadow_3227_52651" result="shape" />
    </filter>
    <linearGradient id="paint0_linear_3227_52651" x1="10.484" y1="-6.13699" x2="40.0122" y2="12.1897" gradientUnits="userSpaceOnUse">
      <stop stop-color="#95B3F5" stop-opacity="0.559802" />
      <stop offset="0.713542" stop-color="#F269FF" stop-opacity="0.74" />
    </linearGradient>
    <linearGradient id="paint1_linear_3227_52651" x1="120.456" y1="50.834" x2="158.986" y2="88.5489" gradientUnits="userSpaceOnUse">
      <stop stop-color="#F269FF" stop-opacity="0.74" />
      <stop offset="0.484375" stop-color="#BCCFFF" />
    </linearGradient>
    <linearGradient id="paint2_linear_3227_52651" x1="71.2076" y1="22.6159" x2="199.123" y2="153.544" gradientUnits="userSpaceOnUse">
      <stop stop-color="#F269FF" stop-opacity="0.74" />
      <stop offset="0.96875" stop-color="#01003F" stop-opacity="0" />
    </linearGradient>
    <linearGradient id="paint3_linear_3227_52651" x1="74.408" y1="14.8284" x2="188.341" y2="140.389" gradientUnits="userSpaceOnUse">
      <stop stop-color="#F269FF" stop-opacity="0.74" />
      <stop offset="1" stop-color="#BF98FF" stop-opacity="0" />
    </linearGradient>
    <linearGradient id="paint4_linear_3227_52651" x1="91.9318" y1="65.447" x2="209.351" y2="76.5735" gradientUnits="userSpaceOnUse">
      <stop stop-color="#F269FF" stop-opacity="0.74" />
      <stop offset="0.740587" stop-color="white" stop-opacity="0.68" />
      <stop offset="1" stop-color="#BCCFFF" />
    </linearGradient>
    <clipPath id="clip0_3227_52651">
      <rect width="154.445" height="154.445" fill="white" transform="translate(48.2851 6.41992)" />
    </clipPath>
  </defs>
</svg>
