<svg width="174" height="180" viewBox="0 0 174 180" fill="none" xmlns="http://www.w3.org/2000/svg">
  <path opacity="0.5" d="M135.919 70.8386C136.877 67.1564 136.676 62.3424 133.109 57.2929C129.543 52.2434 125.073 50.4446 121.282 50.116" stroke="#443F58" stroke-linecap="round" stroke-linejoin="round" />
  <path opacity="0.5" d="M128.95 72.1044C129.792 69.2107 129.738 65.4595 127.01 61.5982C124.283 57.7368 120.766 56.4311 117.757 56.2577" stroke="#443F58" stroke-linecap="round" stroke-linejoin="round" />
  <rect x="49.3672" y="30.5654" width="49.9943" height="27.6088" rx="2.10366" transform="rotate(54.7665 49.3672 30.5654)" fill="url(#paint0_linear_2795_41752)" />
  <g filter="url(#filter0_d_2795_41752)">
    <circle cx="118.481" cy="67.6248" r="2.23855" transform="rotate(54.7665 118.481 67.6248)" fill="#D0D2E2" />
  </g>
  <path d="M47.6489 31.7791L28.5344 45.2796C27.5854 45.9499 27.3595 47.2625 28.0297 48.2115L48.5554 77.2724L54.7482 38.184L50.5808 32.2837C49.9105 31.3347 48.5979 31.1088 47.6489 31.7791Z" fill="#D9D9D9" fill-opacity="0.1" />
  <line x1="63.724" y1="50.8925" x2="41.1729" y2="66.8203" stroke="#1E182A" stroke-width="0.525916" />
  <line x1="67.0235" y1="79.3011" x2="38.1813" y2="38.4654" stroke="#1E182A" stroke-width="0.525916" />
  <line x1="55.9759" y1="39.9228" x2="33.4249" y2="55.8506" stroke="#1E182A" stroke-width="0.525916" />
  <line x1="71.0423" y1="61.2538" x2="48.4913" y2="77.1816" stroke="#1E182A" stroke-width="0.525916" />
  <rect x="101.025" y="103.704" width="49.9943" height="27.6088" rx="2.10366" transform="rotate(54.7665 101.025 103.704)" fill="url(#paint1_linear_2795_41752)" />
  <line x1="115.384" y1="124.032" x2="92.8331" y2="139.96" stroke="#1E182A" stroke-width="0.525916" />
  <line x1="118.684" y1="152.44" x2="89.8414" y2="111.604" stroke="#1E182A" stroke-width="0.525916" />
  <line x1="107.632" y1="113.06" x2="85.0811" y2="128.988" stroke="#1E182A" stroke-width="0.525916" />
  <line x1="122.702" y1="134.393" x2="100.151" y2="150.321" stroke="#1E182A" stroke-width="0.525916" />
  <path d="M96.3684 97.1098C97.0387 98.0588 96.8127 99.3715 95.8637 100.042L53.3683 130.056C50.5214 132.067 46.5834 131.389 44.5726 128.542L35.9266 116.301C33.9158 113.454 34.5936 109.516 37.4406 107.505L79.936 77.4907C80.8849 76.8204 82.1976 77.0464 82.8679 77.9953L96.3684 97.1098Z" fill="url(#paint2_linear_2795_41752)" />
  <path d="M123.831 88.136C124.166 88.6105 124.053 89.2668 123.578 89.6019L123.336 89.7733C113.846 96.476 100.719 94.2165 94.0166 84.7267L93.7517 84.3516C87.049 74.8617 89.3085 61.7351 98.7983 55.0325L99.041 54.8611C99.5154 54.526 100.172 54.6389 100.507 55.1134L123.831 88.136Z" fill="url(#paint3_linear_2795_41752)" />
  <defs>
    <filter id="filter0_d_2795_41752" x="114.664" y="63.808" width="7.63206" height="7.63303" filterUnits="userSpaceOnUse" color-interpolation-filters="sRGB">
      <feFlood flood-opacity="0" result="BackgroundImageFix" />
      <feColorMatrix in="SourceAlpha" type="matrix" values="0 0 0 0 0 0 0 0 0 0 0 0 0 0 0 0 0 0 127 0" result="hardAlpha" />
      <feMorphology radius="0.525916" operator="dilate" in="SourceAlpha" result="effect1_dropShadow_2795_41752" />
      <feOffset />
      <feGaussianBlur stdDeviation="0.525916" />
      <feComposite in2="hardAlpha" operator="out" />
      <feColorMatrix type="matrix" values="0 0 0 0 0.384314 0 0 0 0 0.4 0 0 0 0 0.580392 0 0 0 1 0" />
      <feBlend mode="normal" in2="BackgroundImageFix" result="effect1_dropShadow_2795_41752" />
      <feBlend mode="normal" in="SourceGraphic" in2="effect1_dropShadow_2795_41752" result="shape" />
    </filter>
    <linearGradient id="paint0_linear_2795_41752" x1="53.8443" y1="29.4462" x2="98.6153" y2="58.1742" gradientUnits="userSpaceOnUse">
      <stop stop-color="#8395E5" stop-opacity="0.44" />
      <stop offset="0.526042" stop-color="#989AD1" stop-opacity="0.734583" />
      <stop offset="1" stop-color="#2D203D" />
    </linearGradient>
    <linearGradient id="paint1_linear_2795_41752" x1="105.502" y1="102.585" x2="150.273" y2="131.313" gradientUnits="userSpaceOnUse">
      <stop stop-color="#8395E5" stop-opacity="0.44" />
      <stop offset="0.526042" stop-color="#989AD1" stop-opacity="0.734583" />
      <stop offset="1" stop-color="#2D203D" />
    </linearGradient>
    <linearGradient id="paint2_linear_2795_41752" x1="88.8945" y1="89.2396" x2="42.7826" y2="120.454" gradientUnits="userSpaceOnUse">
      <stop stop-color="#7676A3" />
      <stop offset="1" stop-color="#EDEFF5" />
    </linearGradient>
    <linearGradient id="paint3_linear_2795_41752" x1="112.599" y1="72.2342" x2="91.9662" y2="86.3506" gradientUnits="userSpaceOnUse">
      <stop stop-color="#DEDFEB" />
      <stop offset="0.916667" stop-color="#656997" />
    </linearGradient>
  </defs>
</svg>
